<svg xmlns="http://www.w3.org/2000/svg" viewBox="0 0 358.71 35.65"><defs><style>.cls-1{fill:#e5007e;}.cls-2{fill:#e5332a;}.cls-3{fill:#312782;}.cls-4,.cls-5{fill:#006837;}.cls-4{fill-rule:evenodd;}</style></defs><title>barrazap-insta-fb</title><g id="Camada_2" data-name="Camada 2"><g id="Camada_1-2" data-name="Camada 1"><path class="cls-1" d="M253.06,4.48h-12a7.39,7.39,0,0,0-7.38,7.37v12a7.38,7.38,0,0,0,7.38,7.37h12a7.38,7.38,0,0,0,7.38-7.37v-12a7.39,7.39,0,0,0-7.38-7.37Zm5,19.35a5,5,0,0,1-5,5h-12a5,5,0,0,1-5-5v-12a5,5,0,0,1,5-5h12a5,5,0,0,1,5,5Z"/><path class="cls-1" d="M247.08,11A6.89,6.89,0,1,0,254,17.84,6.89,6.89,0,0,0,247.08,11Zm0,11.4a4.52,4.52,0,1,1,4.51-4.52,4.53,4.53,0,0,1-4.51,4.52Z"/><path class="cls-2" d="M357.48,7.18H331.55a1.23,1.23,0,0,0-1.24,1.23V27.27a1.24,1.24,0,0,0,1.24,1.24h25.93a1.24,1.24,0,0,0,1.23-1.24V8.41A1.23,1.23,0,0,0,357.48,7.18ZM356.24,26H332.79v-11L344,20.15a1.3,1.3,0,0,0,.51.11,1.26,1.26,0,0,0,.51-.11l11.22-5.1Zm0-13.7-11.73,5.33-11.72-5.33V9.65h23.45Z"/><path class="cls-3" d="M307.52,9.86a4.17,4.17,0,0,0-4-4H287.28a4.17,4.17,0,0,0-4,4v16a4.16,4.16,0,0,0,4,4h8.09v-9h-3v-4h3V15.22c0-2.68,2.05-5.1,4.56-5.1h3.27v4h-3.27a1,1,0,0,0-.78,1.08v1.59h4.05v4h-4.05v9.05h4.32a4.16,4.16,0,0,0,4-4Z"/><path class="cls-4" d="M35.65,17.37a17.53,17.53,0,0,1-26,15.2L0,35.65l3.16-9.31a17.15,17.15,0,0,1-2.51-9,17.5,17.5,0,0,1,35,0ZM18.15,2.77A14.67,14.67,0,0,0,3.44,17.37a14.47,14.47,0,0,0,2.8,8.56L4.4,31.35l5.65-1.8A14.73,14.73,0,0,0,32.87,17.37,14.68,14.68,0,0,0,18.15,2.77ZM27,21.37c-.11-.18-.4-.29-.82-.5s-2.54-1.24-2.94-1.38-.68-.22-1,.21-1.11,1.38-1.36,1.67-.5.32-.93.1a11.64,11.64,0,0,1-3.45-2.11,13,13,0,0,1-2.39-2.95c-.25-.42,0-.65.19-.86s.43-.5.65-.75a3,3,0,0,0,.42-.71.76.76,0,0,0,0-.75c-.11-.21-1-2.3-1.33-3.16s-.71-.71-1-.71-.54,0-.82,0a1.62,1.62,0,0,0-1.15.53,4.79,4.79,0,0,0-1.5,3.55,8.24,8.24,0,0,0,1.75,4.4c.22.29,3,4.73,7.33,6.43s4.36,1.14,5.15,1.06a4.31,4.31,0,0,0,2.9-2,3.47,3.47,0,0,0,.25-2Z"/><path class="cls-5" d="M56.82,10,53,12.87V8.8L56.82,6h3.85V32.83H56.82Z"/><path class="cls-5" d="M70.23,17.25l.08.07A2.91,2.91,0,0,1,71.93,17a4,4,0,0,1,3.24,1.74c.68,1.06.83,2,.83,6.26,0,3.51-.15,4.27-.86,5.48a5.46,5.46,0,0,1-4.87,2.6,5.56,5.56,0,0,1-4.83-2.6c-.76-1.21-.91-2-.91-5.48,0-3.32.19-4.07.72-5.51L70.31,6h4.3Zm1.92,5.05a1.89,1.89,0,1,0-3.77,0v5a1.89,1.89,0,1,0,3.77,0Z"/><path class="cls-5" d="M89.6,21.55l-.08-.08a2.91,2.91,0,0,1-1.62.34,4,4,0,0,1-3.25-1.73c-.68-1.06-.83-2-.83-6.27,0-3.51.15-4.26.87-5.47a5.45,5.45,0,0,1,4.87-2.6,5.57,5.57,0,0,1,4.83,2.6c.75,1.21.91,2,.91,5.47,0,3.32-.19,4.08-.72,5.51L89.52,32.83h-4.3Zm-1.93-5.06a1.89,1.89,0,1,0,3.78,0v-5a1.89,1.89,0,1,0-3.78,0Z"/><path class="cls-5" d="M108.89,21.55l-.08-.08a2.91,2.91,0,0,1-1.62.34A4,4,0,0,1,104,20.08c-.69-1.06-.84-2-.84-6.27,0-3.51.15-4.26.87-5.47a5.46,5.46,0,0,1,4.87-2.6,5.56,5.56,0,0,1,4.83,2.6c.75,1.21.91,2,.91,5.47,0,3.32-.19,4.08-.72,5.51l-5.06,13.51h-4.3ZM107,16.49a1.89,1.89,0,1,0,3.78,0v-5a1.89,1.89,0,1,0-3.78,0Z"/><path class="cls-5" d="M121.09,17.25l.07.07a2.91,2.91,0,0,1,1.62-.34A4,4,0,0,1,126,18.72c.68,1.06.83,2,.83,6.26,0,3.51-.15,4.27-.87,5.48a5.45,5.45,0,0,1-4.87,2.6,5.57,5.57,0,0,1-4.83-2.6c-.75-1.21-.9-2-.9-5.48,0-3.32.19-4.07.71-5.51L121.16,6h4.3ZM123,22.3a1.89,1.89,0,1,0-3.77,0v5a1.89,1.89,0,1,0,3.77,0Z"/><path class="cls-5" d="M132.23,17.29c2.3,0,3.05-.34,3.05-2.34V11.47a1.77,1.77,0,0,0-1.88-1.88,1.83,1.83,0,0,0-1.89,1.88v2.19h-3.85V11.44a5.77,5.77,0,0,1,5.81-5.7,5.39,5.39,0,0,1,4.19,1.89c1,1.2,1.47,2.26,1.47,5.69,0,3.7-.19,4.31-2.37,5.63,2.37,1.47,2.37,2.34,2.37,6.15,0,3.54-.22,4.34-1,5.51a5.39,5.39,0,0,1-4.75,2.45,5.46,5.46,0,0,1-5.7-5.74V25.13h3.85v2a1.88,1.88,0,0,0,1.89,2.08c1.17,0,1.88-.83,1.88-2.15V23.21c0-2.08-.56-2.53-3.05-2.53Z"/><path class="cls-5" d="M145.63,17.25l.08.07a2.91,2.91,0,0,1,1.62-.34,4,4,0,0,1,3.25,1.74c.67,1.06.83,2,.83,6.26,0,3.51-.16,4.27-.87,5.48a5.46,5.46,0,0,1-4.87,2.6,5.56,5.56,0,0,1-4.83-2.6c-.75-1.21-.91-2-.91-5.48,0-3.32.19-4.07.72-5.51L145.71,6H150Zm1.93,5.05a1.89,1.89,0,1,0-3.78,0v5a1.89,1.89,0,1,0,3.78,0Z"/><path class="cls-5" d="M163.79,10l-3.85,2.83V8.8L163.79,6h3.85V32.83h-3.85Z"/><path class="cls-5" d="M172.9,7.81a5.57,5.57,0,0,1,8.67,0C182.59,9.1,183,10,183,13c0,3.17-.08,4.27-1.92,5.74,1.84,1.4,1.92,2.53,1.92,6.6,0,3.29-.26,4.19-1.06,5.36a5.78,5.78,0,0,1-9.35,0c-.8-1.17-1.06-2.07-1.06-5.36,0-4.07.07-5.2,1.92-6.6-1.85-1.47-1.92-2.57-1.92-5.74C171.5,10,171.88,9.1,172.9,7.81Zm6.22,3.66a1.89,1.89,0,0,0-3.77,0V15.4a1.89,1.89,0,1,0,3.77,0Zm0,10.57a1.89,1.89,0,1,0-3.77,0v5.28a1.89,1.89,0,1,0,3.77,0Z"/><path class="cls-5" d="M188.34,10l-3.85,2.83V8.8L188.34,6h3.85V32.83h-3.85Z"/><path class="cls-5" d="M201.82,21.55l-.08-.08a2.91,2.91,0,0,1-1.62.34,4,4,0,0,1-3.24-1.73c-.68-1.06-.84-2-.84-6.27,0-3.51.16-4.26.87-5.47a5.46,5.46,0,0,1,4.87-2.6,5.56,5.56,0,0,1,4.83,2.6c.76,1.21.91,2,.91,5.47,0,3.32-.19,4.08-.72,5.51l-5.06,13.51h-4.3Zm-1.93-5.06a1.89,1.89,0,1,0,3.78,0v-5a1.89,1.89,0,1,0-3.78,0Z"/></g></g></svg>