<svg xmlns="http://www.w3.org/2000/svg" viewBox="0 0 172.14 371"><defs><style>.cls-1{fill:#ea5b20;}.cls-2{fill:#fff;}</style></defs><title>bt-codeputaods</title><g id="Camada_2" data-name="Camada 2"><g id="Camada_1-2" data-name="Camada 1"><rect class="cls-1" width="172.14" height="371"/><path class="cls-2" d="M19.14,286.52H17.57l-.5,3.49H15.82l.5-3.49H14.85v-1h1.58l.35-2.31H15.31v-1.05h1.58l.5-3.49h1.25l-.5,3.49h1.57l.5-3.49h1.25l-.5,3.49h1.47v1.05H20.85l-.35,2.31H22v1H20.38L19.89,290H18.64Zm.46-3.36H18l-.35,2.31h1.57Z"/><path class="cls-2" d="M23.68,278.62h4.45a3.34,3.34,0,0,1,2.32.75A3.27,3.27,0,0,1,29.38,285L32,290H30l-2.35-4.86H25.41V290H23.68Zm1.73,5H28A1.76,1.76,0,0,0,30,281.8a1.56,1.56,0,0,0-.57-1.3,1.92,1.92,0,0,0-1.27-.35h-2.7Z"/><path class="cls-2" d="M33.44,278.62h7.28v1.63H35.17v3.25h4.74V285H35.17v3.35h5.55V290H33.44Z"/><path class="cls-2" d="M42.33,278.62H44l5.15,8.09h0v-8.09h1.73V290H49.25l-5.16-8.1h0V290H42.33Z"/><path class="cls-2" d="M53.39,280.57a4.13,4.13,0,0,1,7.14,0c.37.67.5,1,.5,3.74s-.13,3.08-.5,3.75a4.13,4.13,0,0,1-7.14,0c-.37-.67-.5-1-.5-3.75S53,281.24,53.39,280.57Zm1.81,7a2.28,2.28,0,0,0,3.52,0c.45-.58.58-.9.58-3.24s-.13-2.65-.58-3.23a2.28,2.28,0,0,0-3.52,0c-.45.58-.58.9-.58,3.23S54.75,287,55.2,287.55Z"/><path class="cls-2" d="M61.45,278.62h1.83l2.59,8.67h0l2.6-8.67h1.82L66.56,290H65.21Z"/><path class="cls-2" d="M76.5,287.47H72.17L71.3,290H69.47l4.15-11.39h1.44L79.2,290H77.38Zm-.5-1.54-1.65-5h0l-1.65,5Z"/><path class="cls-2" d="M80.41,278.62h4.45a3.33,3.33,0,0,1,2.32.75,3.17,3.17,0,0,1,1.14,2.43A3.22,3.22,0,0,1,86.11,285L88.75,290h-2l-2.36-4.86H82.14V290H80.41Zm1.73,5h2.61a1.77,1.77,0,0,0,1.94-1.81,1.56,1.56,0,0,0-.58-1.3,1.91,1.91,0,0,0-1.26-.35H82.14Z"/><path class="cls-2" d="M94,278.62h7.29v1.63H95.74v3.25h4.74V285H95.74v3.35h5.56V290H94Zm4-2.9h2.15l-2.27,2.33H96.51Z"/><path class="cls-2" d="M106.75,278.62h1.73V290h-1.73Z"/><path class="cls-2" d="M110.88,278.62h1.63l5.15,8.09h0v-8.09h1.72V290h-1.63l-5.15-8.1h0V290h-1.73Z"/><path class="cls-2" d="M121.93,280.57a4.13,4.13,0,0,1,7.14,0c.37.67.5,1,.5,3.74s-.13,3.08-.5,3.75a4.13,4.13,0,0,1-7.14,0c-.36-.67-.49-1-.49-3.75S121.57,281.24,121.93,280.57Zm1.81,7a2.28,2.28,0,0,0,3.52,0c.45-.58.58-.9.58-3.24s-.13-2.65-.58-3.23a2.28,2.28,0,0,0-3.52,0c-.45.58-.57.9-.57,3.23S123.29,287,123.74,287.55Z"/><path class="cls-2" d="M130,278.62h1.82l2.59,8.67h0l2.59-8.67h1.82L135.1,290h-1.34Z"/><path class="cls-2" d="M145,287.47h-4.32l-.88,2.54H138l4.15-11.39h1.44L147.75,290h-1.83Zm-.5-1.54-1.65-5h0l-1.65,5Z"/><path class="cls-2" d="M149,278.62h4.45a3.34,3.34,0,0,1,2.32.75,3.28,3.28,0,0,1-1.07,5.58L157.3,290h-2.05l-2.36-4.86h-2.2V290H149Zm1.73,5h2.61a1.76,1.76,0,0,0,1.93-1.81,1.56,1.56,0,0,0-.57-1.3,1.94,1.94,0,0,0-1.27-.35h-2.7Z"/><path class="cls-2" d="M21,299.74h8.1V301H21Zm0,3.2h8.1v1.25H21Z"/><path class="cls-2" d="M40.71,303.47H36.39L35.51,306H33.69l4.14-11.39h1.44L43.42,306H41.59Zm-.49-1.54-1.65-5h0l-1.65,5Z"/><path class="cls-2" d="M44.63,294.62h4.13a3.72,3.72,0,0,1,2.56.8,3.36,3.36,0,0,1,1.23,2.72A3.44,3.44,0,0,1,49,301.56H46.36V306H44.63Zm1.73,5.31h2.56a1.8,1.8,0,0,0,1.9-1.84,1.69,1.69,0,0,0-.73-1.52,2,2,0,0,0-1.23-.32h-2.5Z"/><path class="cls-2" d="M54.12,294.62h4.45a3.34,3.34,0,0,1,2.32.75A3.27,3.27,0,0,1,59.82,301L62.46,306H60.41l-2.35-4.86H55.85V306H54.12Zm1.73,5h2.61a1.76,1.76,0,0,0,1.93-1.81,1.56,1.56,0,0,0-.57-1.3,1.94,1.94,0,0,0-1.27-.35h-2.7Z"/><path class="cls-2" d="M63.88,294.62h7.28v1.63H65.61v3.25h4.73V301H65.61v3.35h5.55V306H63.88Z"/><path class="cls-2" d="M72.92,303.24a5.22,5.22,0,0,0,3.23,1.14c1.41,0,2.26-.64,2.26-1.59a1.49,1.49,0,0,0-1.49-1.53l-1.5-.21a3.16,3.16,0,0,1-3-3.2c0-2,1.36-3.33,3.71-3.33a6.75,6.75,0,0,1,3.7,1.18l-1,1.43a5.3,5.3,0,0,0-2.82-.88c-1,0-1.9.54-1.9,1.63,0,.64.46,1.28,1.61,1.46.31.05.74.11,1.29.17a3.26,3.26,0,0,1,3.12,3.28c0,2.1-1.56,3.32-4,3.32a6.36,6.36,0,0,1-4.35-1.57Z"/><path class="cls-2" d="M82,294.62h7.28v1.63H83.69v3.25h4.73V301H83.69v3.35h5.55V306H82Z"/><path class="cls-2" d="M90.85,294.62h1.64l5.15,8.09h0v-8.09H99.4V306H97.77l-5.16-8.1h0V306H90.85Z"/><path class="cls-2" d="M103.73,296.15h-3.12v-1.53h8v1.53h-3.12V306h-1.73Z"/><path class="cls-2" d="M114.46,303.47h-4.33l-.88,2.54h-1.82l4.14-11.39H113L117.16,306h-1.82Zm-.5-1.54-1.65-5h0l-1.65,5Z"/><path class="cls-2" d="M118.37,294.62H120l3.26,7.42,3.2-7.42h1.64V306h-1.73v-7.1h0L124,304.38h-1.44l-2.39-5.47h0V306h-1.73Z"/><path class="cls-2" d="M130.61,296.57a4.13,4.13,0,0,1,7.14,0c.37.67.5,1,.5,3.74s-.13,3.08-.5,3.75a4.13,4.13,0,0,1-7.14,0c-.36-.67-.49-1-.49-3.75S130.25,297.24,130.61,296.57Zm1.81,7a2.28,2.28,0,0,0,3.52,0c.45-.58.58-.9.58-3.24s-.13-2.65-.58-3.23a2.28,2.28,0,0,0-3.52,0c-.45.58-.57.9-.57,3.23S132,303,132.42,303.55Z"/><path class="cls-2" d="M140.41,303.24a5.22,5.22,0,0,0,3.23,1.14c1.41,0,2.26-.64,2.26-1.59a1.49,1.49,0,0,0-1.49-1.53l-1.51-.21a3.15,3.15,0,0,1-3-3.2c0-2,1.36-3.33,3.71-3.33a6.75,6.75,0,0,1,3.7,1.18l-1,1.43a5.3,5.3,0,0,0-2.82-.88c-1.06,0-1.9.54-1.9,1.63,0,.64.46,1.28,1.61,1.46.31.05.74.11,1.28.17a3.25,3.25,0,0,1,3.12,3.28c0,2.1-1.55,3.32-4,3.32a6.36,6.36,0,0,1-4.35-1.57Z"/><path class="cls-2" d="M23.16,312.57a4.13,4.13,0,0,1,7.14,0c.37.67.49,1,.49,3.74s-.12,3.08-.49,3.75a4.13,4.13,0,0,1-7.14,0c-.37-.67-.5-1-.5-3.75S22.79,313.24,23.16,312.57Zm1.81,7a2.28,2.28,0,0,0,3.52,0c.45-.58.57-.9.57-3.24s-.12-2.65-.57-3.23a2.28,2.28,0,0,0-3.52,0c-.45.58-.58.9-.58,3.23S24.52,319,25,319.55Z"/><path class="cls-2" d="M33,319.24a5.24,5.24,0,0,0,3.23,1.14c1.41,0,2.26-.64,2.26-1.59A1.48,1.48,0,0,0,37,317.26l-1.5-.21a3.16,3.16,0,0,1-3-3.2c0-2,1.36-3.33,3.72-3.33a6.74,6.74,0,0,1,3.69,1.18l-1,1.43a5.3,5.3,0,0,0-2.81-.88c-1.06,0-1.91.54-1.91,1.63,0,.64.47,1.28,1.62,1.46.3.05.73.11,1.28.17a3.25,3.25,0,0,1,3.12,3.28c0,2.1-1.55,3.32-4,3.32a6.39,6.39,0,0,1-4.36-1.57Z"/><path class="cls-2" d="M53.51,318.83a3.91,3.91,0,0,1-4,3.28,4.07,4.07,0,0,1-3.57-2.05c-.37-.67-.49-1-.49-3.75s.12-3.07.49-3.74a4.07,4.07,0,0,1,3.57-2.05,4,4,0,0,1,4,3.38H51.69a2.3,2.3,0,0,0-2.18-1.65,2.19,2.19,0,0,0-1.76.83c-.45.58-.58.9-.58,3.23s.13,2.66.58,3.24a2.19,2.19,0,0,0,1.76.83,2.35,2.35,0,0,0,2.18-1.55Z"/><path class="cls-2" d="M54.84,312.57a4.13,4.13,0,0,1,7.14,0c.36.67.49,1,.49,3.74s-.13,3.08-.49,3.75a4.13,4.13,0,0,1-7.14,0c-.37-.67-.5-1-.5-3.75S54.47,313.24,54.84,312.57Zm1.81,7a2.28,2.28,0,0,0,3.52,0c.45-.58.57-.9.57-3.24s-.12-2.65-.57-3.23a2.28,2.28,0,0,0-3.52,0c-.45.58-.58.9-.58,3.23S56.2,319,56.65,319.55Z"/><path class="cls-2" d="M64.49,310.62h4a3.84,3.84,0,0,1,3.47,1.92c.57,1,.61,1.39.61,3.77,0,2.57-.13,3-.64,3.81A4,4,0,0,1,68.36,322H64.49Zm1.72,9.76h2.07a2.37,2.37,0,0,0,2.11-1c.39-.58.43-.9.43-3s0-2.55-.51-3.17a2.2,2.2,0,0,0-2-1H66.21Z"/><path class="cls-2" d="M74.57,310.62h7.28v1.63H76.29v3.25H81V317H76.29v3.35h5.56V322H74.57Z"/><path class="cls-2" d="M83.46,310.62h4.13a3.72,3.72,0,0,1,2.56.8,3.36,3.36,0,0,1,1.23,2.72,3.43,3.43,0,0,1-3.56,3.42H85.19V322H83.46Zm1.73,5.31h2.56a1.81,1.81,0,0,0,1.91-1.84,1.69,1.69,0,0,0-.74-1.52,2,2,0,0,0-1.23-.32h-2.5Z"/><path class="cls-2" d="M92.74,310.62h1.73V318a2.32,2.32,0,1,0,4.64,0v-7.34h1.73v7.53a4.05,4.05,0,0,1-8.1,0Z"/><path class="cls-2" d="M105,312.15h-3.13v-1.53h8v1.53H106.7V322H105Z"/><path class="cls-2" d="M115.69,319.47h-4.32l-.88,2.54h-1.83l4.15-11.39h1.44L118.39,322h-1.82Zm-.5-1.54-1.65-5h0l-1.65,5Z"/><path class="cls-2" d="M119.61,310.62h4a3.84,3.84,0,0,1,3.47,1.92c.56,1,.61,1.39.61,3.77,0,2.57-.13,3-.64,3.81a4.06,4.06,0,0,1-3.55,1.89h-3.87Zm1.72,9.76h2.07a2.37,2.37,0,0,0,2.11-1c.39-.58.43-.9.43-3s0-2.55-.51-3.17a2.2,2.2,0,0,0-2-1h-2.07Z"/><path class="cls-2" d="M137.29,313.4h1.05l-1.28,4.15a2.83,2.83,0,0,0-.16.81c0,.27.1.47.37.47.91,0,2.16-1.91,2.16-3.44,0-2.1-1.74-3.62-4.27-3.62a4.5,4.5,0,0,0-4.82,4.51,4.55,4.55,0,0,0,4.9,4.58,5.1,5.1,0,0,0,4-1.49h1.06a6.12,6.12,0,0,1-5.28,2.74,5.8,5.8,0,1,1,0-11.59c3.07,0,5.6,2,5.6,4.79s-2.29,4.48-3.65,4.48a1.15,1.15,0,0,1-1.28-1h0a2.36,2.36,0,0,1-2,1,2.32,2.32,0,0,1-2.27-2.44c0-2.11,1.54-4.38,3.83-4.38a1.87,1.87,0,0,1,1.8,1.25h0Zm-3.24,5.33c1.4,0,2.5-2,2.5-3.28a1.38,1.38,0,0,0-1.29-1.42c-1.51,0-2.58,1.9-2.58,3.21A1.38,1.38,0,0,0,134.05,318.73Z"/><path class="cls-2" d="M142.63,319.24a5.24,5.24,0,0,0,3.23,1.14c1.41,0,2.26-.64,2.26-1.59a1.49,1.49,0,0,0-1.49-1.53l-1.5-.21a3.16,3.16,0,0,1-3-3.2c0-2,1.36-3.33,3.71-3.33a6.75,6.75,0,0,1,3.7,1.18l-1,1.43a5.3,5.3,0,0,0-2.82-.88c-1,0-1.9.54-1.9,1.63,0,.64.46,1.28,1.62,1.46.3.05.73.11,1.28.17a3.25,3.25,0,0,1,3.12,3.28c0,2.1-1.55,3.32-4,3.32a6.39,6.39,0,0,1-4.36-1.57Z"/><polygon class="cls-2" points="51.7 221.13 120.44 221.13 120.44 214.75 114.99 214.75 114.99 187.42 108.6 187.42 108.6 214.75 102.12 214.75 102.12 187.42 95.74 187.42 95.74 214.75 89.26 214.75 89.26 187.42 82.88 187.42 82.88 214.75 76.4 214.75 76.4 187.42 70.02 187.42 70.02 214.75 63.54 214.75 63.54 187.42 57.16 187.42 57.16 214.75 51.7 214.75 51.7 221.13"/><rect class="cls-2" x="81.6" y="179.94" width="8.93" height="3.83"/><rect class="cls-2" x="94.47" y="179.94" width="8.93" height="3.83"/><rect class="cls-2" x="107.33" y="179.94" width="8.93" height="3.83"/><rect class="cls-2" x="68.74" y="179.94" width="8.93" height="3.83"/><rect class="cls-2" x="55.88" y="179.94" width="8.93" height="3.83"/><rect class="cls-2" x="46.16" y="224.96" width="79.81" height="6.38"/><polygon class="cls-2" points="125.98 169.45 86.07 151.34 46.16 169.45 46.16 176.29 125.98 176.29 125.98 169.45"/></g></g></svg>