<svg xmlns="http://www.w3.org/2000/svg" viewBox="0 0 172.14 371"><defs><style>.cls-1{fill:#4666c1;}.cls-2{fill:#fff;}</style></defs><title>bt-cidades</title><g id="Camada_2" data-name="Camada 2"><g id="Camada_1-2" data-name="Camada 1"><rect class="cls-1" width="172.14" height="371"/><path class="cls-2" d="M41.3,285.52H39.73L39.24,289H38l.5-3.48H37v-1.06H38.6l.35-2.31H37.48v-1h1.58l.5-3.49h1.25l-.5,3.49h1.57l.5-3.49h1.24l-.49,3.49H44.6v1H43l-.36,2.31h1.48v1.06H42.55L42.06,289H40.81Zm.47-3.37H40.2l-.35,2.31h1.57Z"/><path class="cls-2" d="M45.85,277.61h7.28v1.63H47.58v3.36h4.73v1.54H47.58V289H45.85Z"/><path class="cls-2" d="M54.55,279.56a4.13,4.13,0,0,1,7.14,0c.37.67.5,1,.5,3.75s-.13,3.07-.5,3.74a4.13,4.13,0,0,1-7.14,0c-.37-.67-.5-1-.5-3.74S54.18,280.23,54.55,279.56Zm1.81,7a2.28,2.28,0,0,0,3.52,0c.45-.58.58-.9.58-3.23s-.13-2.66-.58-3.24a2.28,2.28,0,0,0-3.52,0c-.45.58-.58.9-.58,3.24S55.91,286,56.36,286.54Z"/><path class="cls-2" d="M64.2,277.61h4.45a3.34,3.34,0,0,1,2.32.75,3.21,3.21,0,0,1,1.14,2.43A3.24,3.24,0,0,1,69.9,284L72.54,289H70.49l-2.35-4.86H65.93V289H64.2Zm1.73,5h2.61a1.76,1.76,0,0,0,1.93-1.81,1.52,1.52,0,0,0-.57-1.29,1.94,1.94,0,0,0-1.27-.36h-2.7Z"/><path class="cls-2" d="M75.61,279.14H72.49v-1.53h8v1.53H77.34V289H75.61Z"/><path class="cls-2" d="M86.33,286.46H82L81.13,289H79.3l4.15-11.39h1.44L89,289H87.21Zm-.5-1.54-1.65-5h0l-1.65,5Z"/><path class="cls-2" d="M90.25,277.61H92v9.76h5.56V289H90.25Z"/><path class="cls-2" d="M99.14,277.61h7.28v1.63h-5.55v3.25h4.74V284h-4.74v3.34h5.55V289H99.14Z"/><path class="cls-2" d="M115.72,285.82a3.92,3.92,0,0,1-4,3.28,4.05,4.05,0,0,1-3.57-2.05c-.37-.67-.5-1-.5-3.74s.13-3.08.5-3.75a4.09,4.09,0,0,1,7.57,1.33H113.9a2.31,2.31,0,0,0-2.18-1.65,2.21,2.21,0,0,0-1.76.83c-.45.58-.58.9-.58,3.24s.13,2.65.58,3.23a2.18,2.18,0,0,0,1.76.83,2.35,2.35,0,0,0,2.18-1.55Z"/><path class="cls-2" d="M116.93,277.61h7.29v1.63h-5.56v3.25h4.74V284h-4.74v3.34h5.56V289h-7.29Z"/><path class="cls-2" d="M125.83,277.61h4.45a3.34,3.34,0,0,1,2.32.75,3.21,3.21,0,0,1,1.14,2.43,3.24,3.24,0,0,1-2.21,3.16l2.64,5.05h-2l-2.35-4.86h-2.21V289h-1.73Zm1.73,5h2.61a1.76,1.76,0,0,0,1.93-1.81,1.52,1.52,0,0,0-.57-1.29,1.92,1.92,0,0,0-1.27-.36h-2.7Z"/><path class="cls-2" d="M51,302.46H46.64L45.76,305H43.93l4.15-11.39h1.44L53.67,305H51.84Zm-.5-1.54-1.64-5h0l-1.64,5Z"/><path class="cls-2" d="M55,302.24a5.32,5.32,0,0,0,3.24,1.13c1.4,0,2.25-.64,2.25-1.58A1.49,1.49,0,0,0,59,300.25c-.51-.06-.91-.13-1.5-.21a3.16,3.16,0,0,1-3-3.2c0-1.95,1.36-3.33,3.72-3.33a6.7,6.7,0,0,1,3.7,1.19l-1,1.42a5.27,5.27,0,0,0-2.81-.88c-1.06,0-1.91.55-1.91,1.63,0,.64.47,1.28,1.62,1.46l1.28.18a3.24,3.24,0,0,1,3.12,3.28c0,2.09-1.55,3.31-4,3.31a6.36,6.36,0,0,1-4.35-1.57Z"/><path class="cls-2" d="M75.59,301.82a3.92,3.92,0,0,1-4,3.28A4.07,4.07,0,0,1,68,303.05c-.36-.67-.49-1-.49-3.74s.13-3.08.49-3.75a4.1,4.1,0,0,1,7.58,1.33H73.76a2.3,2.3,0,0,0-2.18-1.65,2.24,2.24,0,0,0-1.76.83c-.45.58-.57.9-.57,3.24s.12,2.65.57,3.23a2.21,2.21,0,0,0,1.76.83,2.35,2.35,0,0,0,2.18-1.55Z"/><path class="cls-2" d="M76.8,293.61h1.73V305H76.8Z"/><path class="cls-2" d="M80.93,293.61h4a3.84,3.84,0,0,1,3.47,1.92c.56,1,.61,1.39.61,3.78,0,2.56-.13,3-.64,3.81A4.06,4.06,0,0,1,84.8,305H80.93Zm1.72,9.76h2.07a2.35,2.35,0,0,0,2.11-1c.39-.58.43-.9.43-3s0-2.54-.51-3.17a2.2,2.2,0,0,0-2-1H82.65Z"/><path class="cls-2" d="M96.56,302.46H92.24L91.36,305H89.53l4.15-11.39h1.44L99.27,305H97.44Zm-.5-1.54-1.65-5h0l-1.65,5Z"/><path class="cls-2" d="M100.48,293.61h4a3.87,3.87,0,0,1,3.48,1.92c.56,1,.6,1.39.6,3.78,0,2.56-.12,3-.64,3.81a4.06,4.06,0,0,1-3.55,1.88h-3.87Zm1.73,9.76h2.06a2.34,2.34,0,0,0,2.11-1c.39-.58.44-.9.44-3s0-2.54-.52-3.17a2.19,2.19,0,0,0-2-1h-2.06Z"/><path class="cls-2" d="M110.56,293.61h7.28v1.63h-5.55v3.25H117V300h-4.73v3.34h5.55V305h-7.28Z"/><path class="cls-2" d="M119.6,302.24a5.27,5.27,0,0,0,3.23,1.13c1.41,0,2.26-.64,2.26-1.58a1.5,1.5,0,0,0-1.49-1.54c-.51-.06-.91-.13-1.51-.21a3.16,3.16,0,0,1-3-3.2c0-1.95,1.36-3.33,3.71-3.33a6.68,6.68,0,0,1,3.7,1.19l-1,1.42a5.3,5.3,0,0,0-2.82-.88c-1,0-1.9.55-1.9,1.63,0,.64.46,1.28,1.61,1.46l1.29.18a3.24,3.24,0,0,1,3.12,3.28c0,2.09-1.56,3.31-4,3.31a6.36,6.36,0,0,1-4.35-1.57Z"/><path class="cls-2" d="M33.38,309.61h7.29v1.63H35.11v3.25h4.74V316H35.11v3.34h5.56V321H33.38Z"/><path class="cls-2" d="M52,318.46H47.64L46.76,321H44.93l4.15-11.39h1.44L54.67,321H52.84Zm-.5-1.54-1.64-5h0l-1.64,5Z"/><path class="cls-2" d="M66.09,320.11a4.14,4.14,0,0,1-6.26-1.06c-.37-.67-.5-1-.5-3.74s.13-3.08.5-3.75a4.13,4.13,0,0,1,7.14,0c.37.67.5,1,.5,3.75,0,2.46-.1,3-.42,3.57l1.5,1.2-1,1.18Zm-2.87-2.29,1-1.19,1.33,1.06a10.13,10.13,0,0,0,.16-2.38c0-2.34-.13-2.66-.58-3.24a2.28,2.28,0,0,0-3.52,0c-.45.58-.58.9-.58,3.24s.13,2.65.58,3.23a2.18,2.18,0,0,0,1.76.83,2.1,2.1,0,0,0,1.28-.4Z"/><path class="cls-2" d="M69.17,309.61H70.9V317a2.32,2.32,0,1,0,4.64,0v-7.35h1.73v7.54a4.05,4.05,0,0,1-8.1,0Z"/><path class="cls-2" d="M84.9,318.46H80.58L79.7,321H77.88L82,309.61h1.44L87.61,321H85.78Zm-.49-1.54-1.65-5h0l-1.65,5Z"/><path class="cls-2" d="M88.82,309.61h1.73v9.76H96.1V321H88.82Z"/><path class="cls-2" d="M97.72,309.61h1.73V321H97.72Z"/><path class="cls-2" d="M101.85,309.61h4a3.84,3.84,0,0,1,3.47,1.92c.56,1,.61,1.39.61,3.78,0,2.56-.13,3-.64,3.81a4.06,4.06,0,0,1-3.55,1.88h-3.87Zm1.72,9.76h2.07a2.35,2.35,0,0,0,2.11-1c.39-.58.43-.9.43-3s0-2.54-.51-3.17a2.2,2.2,0,0,0-2-1h-2.07Z"/><path class="cls-2" d="M117.48,318.46h-4.32l-.88,2.54h-1.83l4.15-11.39H116L120.18,321h-1.82Zm-.5-1.54-1.65-5h0l-1.65,5Z"/><path class="cls-2" d="M121.4,309.61h4a3.87,3.87,0,0,1,3.48,1.92c.56,1,.6,1.39.6,3.78,0,2.56-.12,3-.64,3.81a4.06,4.06,0,0,1-3.55,1.88H121.4Zm1.73,9.76h2.06a2.34,2.34,0,0,0,2.11-1c.39-.58.44-.9.44-3s0-2.54-.52-3.17a2.19,2.19,0,0,0-2-1h-2.06Z"/><path class="cls-2" d="M131.48,309.61h7.28v1.63h-5.55v3.25h4.73V316h-4.73v3.34h5.55V321h-7.28Z"/><path class="cls-2" d="M36.24,325.61h4a3.87,3.87,0,0,1,3.48,1.92c.56,1,.61,1.39.61,3.78,0,2.56-.13,3-.64,3.81A4.09,4.09,0,0,1,40.11,337H36.24ZM38,335.37H40a2.34,2.34,0,0,0,2.11-1c.39-.58.44-.9.44-3s0-2.54-.52-3.17a2.19,2.19,0,0,0-2-1H38Z"/><path class="cls-2" d="M46.43,327.56a4.13,4.13,0,0,1,7.14,0c.37.67.5,1,.5,3.75s-.13,3.07-.5,3.74a4.13,4.13,0,0,1-7.14,0c-.37-.67-.5-1-.5-3.74S46.06,328.23,46.43,327.56Zm1.81,7a2.28,2.28,0,0,0,3.52,0c.45-.58.58-.9.58-3.23s-.13-2.66-.58-3.24a2.28,2.28,0,0,0-3.52,0c-.45.58-.58.9-.58,3.24S47.79,334,48.24,334.54Z"/><path class="cls-2" d="M56.22,334.24a5.32,5.32,0,0,0,3.23,1.13c1.41,0,2.26-.64,2.26-1.58a1.49,1.49,0,0,0-1.49-1.54c-.51-.06-.91-.13-1.5-.21a3.16,3.16,0,0,1-3-3.2c0-1.95,1.36-3.33,3.72-3.33a6.65,6.65,0,0,1,3.69,1.19l-1,1.42a5.27,5.27,0,0,0-2.81-.88c-1.06,0-1.91.55-1.91,1.63,0,.64.47,1.28,1.62,1.46l1.28.18a3.24,3.24,0,0,1,3.12,3.28c0,2.09-1.55,3.31-4,3.31a6.36,6.36,0,0,1-4.35-1.57Z"/><path class="cls-2" d="M69.25,334.24a5.27,5.27,0,0,0,3.23,1.13c1.41,0,2.26-.64,2.26-1.58a1.5,1.5,0,0,0-1.49-1.54c-.51-.06-.92-.13-1.51-.21a3.15,3.15,0,0,1-3-3.2c0-1.95,1.36-3.33,3.71-3.33a6.68,6.68,0,0,1,3.7,1.19l-1,1.42a5.3,5.3,0,0,0-2.82-.88c-1.06,0-1.9.55-1.9,1.63,0,.64.46,1.28,1.61,1.46l1.28.18a3.24,3.24,0,0,1,3.12,3.28c0,2.09-1.55,3.31-4,3.31a6.36,6.36,0,0,1-4.35-1.57Z"/><path class="cls-2" d="M78.29,325.61h7.28v1.63H80v3.25h4.74V332H80v3.34h5.56V337H78.29Z"/><path class="cls-2" d="M87.18,325.61h4.45a3.34,3.34,0,0,1,2.32.75A3.28,3.28,0,0,1,92.88,332L95.52,337h-2l-2.35-4.86H88.91V337H87.18Zm1.73,5h2.61a1.77,1.77,0,0,0,1.94-1.81,1.53,1.53,0,0,0-.58-1.29,1.91,1.91,0,0,0-1.26-.36H88.91Z"/><path class="cls-2" d="M95.47,325.61h1.82l2.6,8.67h0l2.59-8.67h1.83L100.58,337H99.23Z"/><path class="cls-2" d="M105.55,325.61h1.73V337h-1.73Z"/><path class="cls-2" d="M113.12,337.1a4.07,4.07,0,0,1-3.33-2.05c-.37-.67-.5-1-.5-3.74s.13-3.08.5-3.75a4.09,4.09,0,0,1,7.57,1.33h-1.82a2.31,2.31,0,0,0-2.18-1.65,2.21,2.21,0,0,0-1.76.83c-.45.58-.58.9-.58,3.24s.13,2.65.58,3.23a2.18,2.18,0,0,0,1.76.83,2.35,2.35,0,0,0,2.18-1.55h1.82a3.9,3.9,0,0,1-3.41,3.25l-.67.89h0a1.65,1.65,0,0,1,.43-.06,1.27,1.27,0,0,1,1.41,1.22c0,1-.93,1.5-2,1.5a4.65,4.65,0,0,1-1.61-.38l.28-.67a3.62,3.62,0,0,0,1.12.24c.55,0,.93-.2.93-.68s-.35-.59-.78-.59a1.1,1.1,0,0,0-.61.18l-.35-.31Z"/><path class="cls-2" d="M118.69,327.56a4.12,4.12,0,0,1,7.13,0c.37.67.5,1,.5,3.75s-.13,3.07-.5,3.74a4.12,4.12,0,0,1-7.13,0c-.37-.67-.5-1-.5-3.74S118.32,328.23,118.69,327.56Zm1.8,7a2.29,2.29,0,0,0,3.53,0c.44-.58.57-.9.57-3.23s-.13-2.66-.57-3.24a2.29,2.29,0,0,0-3.53,0c-.44.58-.57.9-.57,3.24S120.05,334,120.49,334.54Z"/><path class="cls-2" d="M128.48,334.24a5.27,5.27,0,0,0,3.23,1.13c1.41,0,2.26-.64,2.26-1.58a1.5,1.5,0,0,0-1.49-1.54c-.51-.06-.91-.13-1.51-.21a3.16,3.16,0,0,1-3-3.2c0-1.95,1.36-3.33,3.71-3.33a6.68,6.68,0,0,1,3.7,1.19l-1,1.42a5.3,5.3,0,0,0-2.82-.88c-1.05,0-1.9.55-1.9,1.63,0,.64.46,1.28,1.61,1.46l1.29.18a3.24,3.24,0,0,1,3.12,3.28c0,2.09-1.56,3.31-4,3.31a6.36,6.36,0,0,1-4.35-1.57Z"/><path class="cls-2" d="M86.07,231.34a37.53,37.53,0,0,0,5.77-74.61v-5.39H80.3v5.39a37.53,37.53,0,0,0,5.77,74.61Zm0-69.28a31.75,31.75,0,1,1-31.75,31.75A31.78,31.78,0,0,1,86.07,162.06Z"/><path class="cls-2" d="M80.3,193.81a5.77,5.77,0,1,0,11.54,0,5.5,5.5,0,0,0-.21-1.47l14.93-14.93-4.08-4.09L87.55,188.25a6.08,6.08,0,0,0-1.48-.21,5.93,5.93,0,0,0-1.47.21l-7.48-7.47L73,184.86l7.47,7.48A5.93,5.93,0,0,0,80.3,193.81Z"/><path class="cls-2" d="M86.07,170.8a3.18,3.18,0,1,0-3.17-3.18A3.19,3.19,0,0,0,86.07,170.8Z"/><path class="cls-2" d="M86.07,216.83A3.18,3.18,0,1,0,89.25,220,3.17,3.17,0,0,0,86.07,216.83Z"/><path class="cls-2" d="M112.26,197a3.18,3.18,0,1,0-3.17-3.18A3.19,3.19,0,0,0,112.26,197Z"/><path class="cls-2" d="M59.88,190.64a3.18,3.18,0,1,0,3.18,3.17A3.17,3.17,0,0,0,59.88,190.64Z"/><path class="cls-2" d="M67.55,178.47a3.18,3.18,0,1,0-2.24-.93A3.16,3.16,0,0,0,67.55,178.47Z"/><path class="cls-2" d="M102.35,210.09a3.17,3.17,0,1,0,4.49,0A3.24,3.24,0,0,0,102.35,210.09Z"/><path class="cls-2" d="M65.31,210.09a3.17,3.17,0,0,0,4.49,4.49h0a3.17,3.17,0,1,0-4.49-4.49Z"/></g></g></svg>