<svg xmlns="http://www.w3.org/2000/svg" viewBox="0 0 172.14 371"><defs><style>.cls-1{fill:#a55199;}.cls-2{fill:#fff;}</style></defs><title>bt-desigualdades</title><g id="Camada_2" data-name="Camada 2"><g id="Camada_1-2" data-name="Camada 1"><rect class="cls-1" width="172.14" height="371"/><path class="cls-2" d="M44.38,285.52H42.81L42.32,289H41.07l.5-3.48H40.09v-1.06h1.59l.35-2.31H40.56v-1h1.58l.5-3.49h1.25l-.5,3.49H45l.5-3.49h1.25l-.5,3.49h1.47v1H46.1l-.36,2.31h1.48v1.06H45.63L45.14,289H43.89Zm.47-3.37H43.28l-.35,2.31H44.5Z"/><path class="cls-2" d="M48.93,277.61h4.45a3.34,3.34,0,0,1,2.32.75,3.2,3.2,0,0,1,1.13,2.43,3.23,3.23,0,0,1-2.2,3.16L57.27,289H55.22l-2.36-4.86H50.65V289H48.93Zm1.72,5h2.61a1.77,1.77,0,0,0,1.94-1.81,1.52,1.52,0,0,0-.57-1.29,2,2,0,0,0-1.27-.36H50.65Z"/><path class="cls-2" d="M58.69,277.61H66v1.63H60.41v3.25h4.74V284H60.41v3.34H66V289H58.69Z"/><path class="cls-2" d="M67.58,277.61h4A3.86,3.86,0,0,1,75,279.53c.56,1,.61,1.39.61,3.78,0,2.56-.13,3-.64,3.81A4.07,4.07,0,0,1,71.46,289H67.58Zm1.73,9.76h2.07a2.36,2.36,0,0,0,2.11-1c.38-.58.43-.9.43-3s0-2.54-.51-3.17a2.21,2.21,0,0,0-2-1H69.31Z"/><path class="cls-2" d="M77.45,277.61h1.73V285a2.32,2.32,0,1,0,4.64,0v-7.35h1.73v7.54a4.05,4.05,0,0,1-8.1,0Z"/><path class="cls-2" d="M87.05,287.56l5.17-8.42h-5v-1.53h7.08v1.29l-5.19,8.47h5.19V289H87.05Z"/><path class="cls-2" d="M96.05,277.61h1.72V289H96.05Z"/><path class="cls-2" d="M100.17,277.61h4.45a3.33,3.33,0,0,1,2.32.75,3.28,3.28,0,0,1-1.07,5.59l2.64,5.05h-2.05l-2.35-4.86H101.9V289h-1.73Zm1.73,5h2.61a1.77,1.77,0,0,0,1.94-1.81,1.53,1.53,0,0,0-.58-1.29,1.91,1.91,0,0,0-1.26-.36H101.9Z"/><path class="cls-2" d="M119.62,286.46h-4.33l-.88,2.54h-1.82l4.14-11.39h1.44L122.32,289H120.5Zm-.5-1.54-1.65-5h0l-1.65,5Z"/><path class="cls-2" d="M123.68,286.24a5.27,5.27,0,0,0,3.23,1.13c1.41,0,2.26-.64,2.26-1.58a1.5,1.5,0,0,0-1.49-1.54c-.51-.06-.91-.13-1.51-.21a3.16,3.16,0,0,1-3-3.2c0-1.95,1.36-3.33,3.71-3.33a6.68,6.68,0,0,1,3.7,1.19l-1,1.42a5.3,5.3,0,0,0-2.82-.88c-1,0-1.9.55-1.9,1.63,0,.64.46,1.28,1.61,1.46l1.29.18a3.24,3.24,0,0,1,3.12,3.28c0,2.09-1.56,3.31-4,3.31a6.36,6.36,0,0,1-4.35-1.57Z"/><path class="cls-2" d="M27.93,293.61h4a3.85,3.85,0,0,1,3.47,1.92c.56,1,.61,1.39.61,3.78,0,2.56-.13,3-.64,3.81A4.07,4.07,0,0,1,31.81,305H27.93Zm1.73,9.76h2.07a2.36,2.36,0,0,0,2.11-1c.38-.58.43-.9.43-3s-.05-2.54-.51-3.17a2.2,2.2,0,0,0-2-1H29.66Z"/><path class="cls-2" d="M38,293.61H45.3v1.63H39.74v3.25h4.74V300H39.74v3.34H45.3V305H38Z"/><path class="cls-2" d="M47.05,302.24a5.32,5.32,0,0,0,3.24,1.13c1.41,0,2.26-.64,2.26-1.58a1.5,1.5,0,0,0-1.49-1.54c-.52-.06-.92-.13-1.51-.21a3.15,3.15,0,0,1-3-3.2c0-1.95,1.36-3.33,3.71-3.33a6.68,6.68,0,0,1,3.7,1.19l-1,1.42a5.33,5.33,0,0,0-2.82-.88c-1.06,0-1.9.55-1.9,1.63,0,.64.46,1.28,1.61,1.46l1.28.18a3.24,3.24,0,0,1,3.12,3.28c0,2.09-1.55,3.31-4,3.31a6.36,6.36,0,0,1-4.35-1.57Z"/><path class="cls-2" d="M56.09,293.61h1.73V305H56.09Z"/><path class="cls-2" d="M63.92,298.73h4v2.32a4,4,0,0,1-4.07,4.05,4.07,4.07,0,0,1-3.57-2.05c-.36-.67-.49-1-.49-3.74s.13-3.08.49-3.75a4.1,4.1,0,0,1,7.58,1.33H66.08a2.3,2.3,0,0,0-2.18-1.65,2.24,2.24,0,0,0-1.76.83c-.45.58-.57.9-.57,3.24s.12,2.65.57,3.23a2.21,2.21,0,0,0,1.76.83A2.3,2.3,0,0,0,66.24,301v-.6H63.92Z"/><path class="cls-2" d="M69.77,293.61H71.5V301a2.32,2.32,0,1,0,4.64,0v-7.35h1.73v7.54a4.05,4.05,0,0,1-8.1,0Z"/><path class="cls-2" d="M85.5,302.46H81.18L80.3,305H78.48l4.14-11.39h1.44L88.21,305H86.38ZM85,300.92l-1.65-5h0l-1.65,5Z"/><path class="cls-2" d="M89.42,293.61h1.73v9.76H96.7V305H89.42Z"/><path class="cls-2" d="M98.32,293.61h4a3.87,3.87,0,0,1,3.48,1.92c.56,1,.6,1.39.6,3.78,0,2.56-.12,3-.64,3.81a4.06,4.06,0,0,1-3.55,1.88H98.32Zm1.73,9.76h2.06a2.34,2.34,0,0,0,2.11-1c.39-.58.44-.9.44-3s0-2.54-.52-3.17a2.19,2.19,0,0,0-2-1h-2.06Z"/><path class="cls-2" d="M114,302.46h-4.32l-.88,2.54h-1.82l4.14-11.39h1.44L116.66,305h-1.83Zm-.49-1.54-1.65-5h0l-1.65,5Z"/><path class="cls-2" d="M117.87,293.61h4a3.86,3.86,0,0,1,3.47,1.92c.56,1,.61,1.39.61,3.78,0,2.56-.13,3-.64,3.81a4.09,4.09,0,0,1-3.56,1.88h-3.87Zm1.73,9.76h2.06a2.37,2.37,0,0,0,2.12-1c.38-.58.43-.9.43-3s0-2.54-.51-3.17a2.22,2.22,0,0,0-2-1H119.6Z"/><path class="cls-2" d="M128,293.61h7.28v1.63h-5.55v3.25h4.74V300h-4.74v3.34h5.55V305H128Z"/><path class="cls-2" d="M137,302.24a5.29,5.29,0,0,0,3.23,1.13c1.41,0,2.26-.64,2.26-1.58a1.49,1.49,0,0,0-1.49-1.54c-.51-.06-.91-.13-1.5-.21a3.16,3.16,0,0,1-3-3.2c0-1.95,1.36-3.33,3.71-3.33a6.68,6.68,0,0,1,3.7,1.19l-1,1.42a5.3,5.3,0,0,0-2.82-.88c-1.05,0-1.9.55-1.9,1.63,0,.64.46,1.28,1.62,1.46l1.28.18a3.24,3.24,0,0,1,3.12,3.28c0,2.09-1.55,3.31-4,3.31a6.39,6.39,0,0,1-4.36-1.57Z"/><polygon class="cls-2" points="81.29 209.32 81.29 209.2 86.67 200.54 81.29 200.54 81.29 173.36 73.7 173.36 73.7 200.54 68.33 200.54 73.7 209.2 73.7 209.32 73.77 209.32 77.5 215.32 81.22 209.32 81.29 209.32"/><polygon class="cls-2" points="91.59 173.36 91.59 173.48 86.22 182.13 91.59 182.13 91.59 209.32 99.18 209.32 99.18 182.13 104.55 182.13 99.18 173.48 99.18 173.36 99.11 173.36 95.38 167.36 91.66 173.36 91.59 173.36"/><path class="cls-2" d="M126.07,191.34a40,40,0,1,0-40,40A40,40,0,0,0,126.07,191.34Zm-72.4,0a32.41,32.41,0,1,1,32.4,32.4A32.44,32.44,0,0,1,53.67,191.34Z"/></g></g></svg>