<svg xmlns="http://www.w3.org/2000/svg" viewBox="0 0 71 125"><defs><style>.cls-1{fill:#ccc;}.cls-2{fill:#009684;}.cls-3{fill:#fff;}</style></defs><title>bt-DOE</title><g id="Camada_2" data-name="Camada 2"><g id="Camada_1-2" data-name="Camada 1"><rect class="cls-1" x="1.95" width="69.05" height="125"/><rect class="cls-2" width="69.05" height="122"/><path class="cls-3" d="M12.86,88.73h6a5.81,5.81,0,0,1,5.21,2.88c.84,1.44.91,2.09.91,5.66,0,3.84-.19,4.52-1,5.72a6.11,6.11,0,0,1-5.33,2.83H12.86Zm2.59,14.64h3.1a3.55,3.55,0,0,0,3.17-1.49c.57-.86.65-1.34.65-4.51s-.08-3.82-.77-4.75a3.31,3.31,0,0,0-3.05-1.44h-3.1Z"/><path class="cls-3" d="M28.15,91.66a6.2,6.2,0,0,1,10.7,0c.56,1,.75,1.51.75,5.61s-.19,4.61-.75,5.62a6.2,6.2,0,0,1-10.7,0c-.55-1-.75-1.51-.75-5.62S27.6,92.67,28.15,91.66Zm2.71,10.46a3.41,3.41,0,0,0,5.28,0c.67-.86.87-1.34.87-4.85s-.2-4-.87-4.84a3.41,3.41,0,0,0-5.28,0c-.67.86-.86,1.34-.86,4.84S30.19,101.26,30.86,102.12Z"/><path class="cls-3" d="M42.62,88.73H53.54v2.45H45.21v4.87h7.11v2.3H45.21v5h8.33v2.45H42.62Z"/></g></g></svg>