<svg xmlns="http://www.w3.org/2000/svg" viewBox="0 0 172.14 371"><defs><style>.cls-1{fill:#e5007e;}.cls-2{fill:#fff;}</style></defs><title>bt-educacao</title><g id="Camada_2" data-name="Camada 2"><g id="Camada_1-2" data-name="Camada 1"><rect class="cls-1" width="172.14" height="371"/><path class="cls-2" d="M23.1,286.3H21.53l-.5,3.49H19.78l.5-3.49H18.81v-1.06h1.58l.35-2.3H19.27v-1.06h1.59l.49-3.49H22.6l-.5,3.49h1.57l.5-3.49h1.25l-.5,3.49h1.47v1.06H24.81l-.35,2.3h1.47v1.06H24.34l-.49,3.49H22.6Zm.46-3.36H22l-.35,2.3h1.57Z"/><path class="cls-2" d="M27.64,278.39h7.28V280H29.37v3.25h4.74v1.54H29.37v3.35h5.55v1.63H27.64Z"/><path class="cls-2" d="M36.53,278.39h4A3.85,3.85,0,0,1,44,280.31c.56,1,.61,1.4.61,3.78,0,2.56-.13,3-.64,3.81a4.06,4.06,0,0,1-3.55,1.89H36.53Zm1.73,9.77h2.07a2.37,2.37,0,0,0,2.11-1c.38-.57.43-.89.43-3s0-2.54-.51-3.17a2.2,2.2,0,0,0-2-1H38.26Z"/><path class="cls-2" d="M46.41,278.39h1.73v7.35a2.32,2.32,0,1,0,4.64,0v-7.35h1.73v7.54a4.05,4.05,0,0,1-8.1,0Z"/><path class="cls-2" d="M64.38,286.6a3.92,3.92,0,0,1-4,3.28,4,4,0,0,1-3.57-2c-.37-.68-.5-1-.5-3.75s.13-3.07.5-3.75a4.09,4.09,0,0,1,7.57,1.33H62.55A2.3,2.3,0,0,0,60.38,280a2.22,2.22,0,0,0-1.77.84c-.44.57-.57.89-.57,3.23s.13,2.66.57,3.23a2.22,2.22,0,0,0,1.77.84,2.34,2.34,0,0,0,2.17-1.56Z"/><path class="cls-2" d="M71.43,287.24H67.11l-.88,2.55H64.41l4.14-11.4H70l4.15,11.4H72.31Zm-.49-1.53-1.65-5h0l-1.65,5Z"/><path class="cls-2" d="M78.5,289.88a4.08,4.08,0,0,1-3.33-2c-.36-.68-.49-1-.49-3.75s.13-3.07.49-3.75a4.1,4.1,0,0,1,7.58,1.33H80.92A2.3,2.3,0,0,0,78.74,280a2.21,2.21,0,0,0-1.76.84c-.45.57-.57.89-.57,3.23s.12,2.66.57,3.23a2.21,2.21,0,0,0,1.76.84,2.35,2.35,0,0,0,2.18-1.56h1.83a3.89,3.89,0,0,1-3.41,3.25l-.68.9h0a1.58,1.58,0,0,1,.43-.06,1.27,1.27,0,0,1,1.41,1.21c0,1-.93,1.51-2,1.51A4.73,4.73,0,0,1,77,293l.29-.67a3.3,3.3,0,0,0,1.12.24c.54,0,.93-.19.93-.67s-.35-.59-.79-.59a1.06,1.06,0,0,0-.6.17l-.36-.3Z"/><path class="cls-2" d="M89.8,287.24H85.48l-.88,2.55H82.77l4.15-11.4h1.44l4.15,11.4H90.68Zm-5-9.57a1.91,1.91,0,0,1,1.81-1.86c.8,0,1.52.61,2.18.61.3,0,.64-.11.75-.7h1c-.18,1-.69,1.86-1.76,1.86-.82,0-1.67-.6-2.31-.6a.66.66,0,0,0-.67.69Zm4.51,8-1.64-5h0l-1.64,5Z"/><path class="cls-2" d="M93.54,280.34a4.14,4.14,0,0,1,7.14,0c.37.68.5,1,.5,3.75s-.13,3.07-.5,3.75a4.14,4.14,0,0,1-7.14,0c-.37-.68-.49-1-.49-3.75S93.17,281,93.54,280.34Zm1.81,7a2.26,2.26,0,0,0,3.52,0c.45-.57.58-.89.58-3.23s-.13-2.66-.58-3.23a2.26,2.26,0,0,0-3.52,0c-.45.57-.58.89-.58,3.23S94.9,286.75,95.35,287.32Z"/><path class="cls-2" d="M114.71,286.6a3.92,3.92,0,0,1-4,3.28,4.06,4.06,0,0,1-3.57-2c-.37-.68-.49-1-.49-3.75s.12-3.07.49-3.75a4.06,4.06,0,0,1,3.57-2,4,4,0,0,1,4,3.37h-1.82a2.3,2.3,0,0,0-2.18-1.65,2.18,2.18,0,0,0-1.76.84c-.45.57-.58.89-.58,3.23s.13,2.66.58,3.23a2.18,2.18,0,0,0,1.76.84,2.35,2.35,0,0,0,2.18-1.56Z"/><path class="cls-2" d="M116,280.34a4.14,4.14,0,0,1,7.14,0c.36.68.49,1,.49,3.75s-.13,3.07-.49,3.75a4.14,4.14,0,0,1-7.14,0c-.37-.68-.5-1-.5-3.75S115.67,281,116,280.34Zm1.81,7a2.26,2.26,0,0,0,3.52,0c.45-.57.57-.89.57-3.23s-.12-2.66-.57-3.23a2.26,2.26,0,0,0-3.52,0c-.45.57-.58.89-.58,3.23S117.4,286.75,117.85,287.32Z"/><path class="cls-2" d="M125.69,278.39h1.63l3.26,7.43,3.2-7.43h1.64v11.4h-1.73v-7.11h0l-2.39,5.48h-1.44l-2.38-5.48h0v7.11h-1.72Z"/><path class="cls-2" d="M137.93,280.34a4.14,4.14,0,0,1,7.13,0c.37.68.5,1,.5,3.75s-.13,3.07-.5,3.75a4.14,4.14,0,0,1-7.13,0c-.37-.68-.5-1-.5-3.75S137.56,281,137.93,280.34Zm1.8,7a2.27,2.27,0,0,0,3.53,0c.44-.57.57-.89.57-3.23s-.13-2.66-.57-3.23a2.27,2.27,0,0,0-3.53,0c-.44.57-.57.89-.57,3.23S139.29,286.75,139.73,287.32Z"/><path class="cls-2" d="M39.36,302.6a3.92,3.92,0,0,1-4,3.28,4.06,4.06,0,0,1-3.57-2c-.37-.68-.5-1-.5-3.75s.13-3.07.5-3.75a4.06,4.06,0,0,1,3.57-2,4,4,0,0,1,4,3.37H37.54A2.3,2.3,0,0,0,35.36,296a2.18,2.18,0,0,0-1.76.84c-.45.57-.58.89-.58,3.23s.13,2.66.58,3.23a2.18,2.18,0,0,0,1.76.84,2.35,2.35,0,0,0,2.18-1.56Z"/><path class="cls-2" d="M40.69,296.34a4.14,4.14,0,0,1,7.14,0c.36.68.49,1,.49,3.75s-.13,3.07-.49,3.75a4.14,4.14,0,0,1-7.14,0c-.37-.68-.5-1-.5-3.75S40.32,297,40.69,296.34Zm1.81,7a2.18,2.18,0,0,0,1.76.84,2.21,2.21,0,0,0,1.76-.84c.45-.57.57-.89.57-3.23s-.12-2.66-.57-3.23a2.21,2.21,0,0,0-1.76-.84,2.18,2.18,0,0,0-1.76.84c-.45.57-.58.89-.58,3.23S42.05,302.75,42.5,303.32Z"/><path class="cls-2" d="M50.33,294.39H52l3.26,7.43,3.2-7.43h1.64v11.4H58.34v-7.11h0l-2.39,5.48H54.48l-2.38-5.48h0v7.11H50.33Z"/><path class="cls-2" d="M62.46,294.39h4.13a3.72,3.72,0,0,1,2.56.8,3.39,3.39,0,0,1,1.24,2.72,3.44,3.44,0,0,1-3.57,3.43H64.19v4.45H62.46Zm1.73,5.32h2.56a1.81,1.81,0,0,0,1.91-1.84,1.71,1.71,0,0,0-.74-1.53,2,2,0,0,0-1.23-.32h-2.5Z"/><path class="cls-2" d="M72,294.39H76.4a3.39,3.39,0,0,1,2.32.75,3.28,3.28,0,0,1-1.07,5.59l2.64,5.06H78.24l-2.35-4.87H73.68v4.87H72Zm1.73,5h2.61a1.77,1.77,0,0,0,1.94-1.81,1.55,1.55,0,0,0-.58-1.3,1.92,1.92,0,0,0-1.27-.35h-2.7Z"/><path class="cls-2" d="M81.82,296.34a4.14,4.14,0,0,1,7.14,0c.37.68.5,1,.5,3.75s-.13,3.07-.5,3.75a4.14,4.14,0,0,1-7.14,0c-.37-.68-.49-1-.49-3.75S81.45,297,81.82,296.34Zm1.81,7a2.26,2.26,0,0,0,3.52,0c.45-.57.58-.89.58-3.23s-.13-2.66-.58-3.23a2.26,2.26,0,0,0-3.52,0c-.45.57-.58.89-.58,3.23S83.18,302.75,83.63,303.32Z"/><path class="cls-2" d="M91.47,294.39H93.1l3.27,7.43,3.2-7.43h1.63v11.4H99.47v-7.11h0l-2.38,5.48H95.62l-2.39-5.48h0v7.11H91.47Z"/><path class="cls-2" d="M103.6,294.39h1.73v11.4H103.6Z"/><path class="cls-2" d="M107.87,303a5.24,5.24,0,0,0,3.23,1.14c1.41,0,2.26-.64,2.26-1.59a1.48,1.48,0,0,0-1.49-1.53l-1.5-.21a3.17,3.17,0,0,1-3-3.2c0-2,1.36-3.33,3.72-3.33a6.66,6.66,0,0,1,3.69,1.18l-1,1.42A5.39,5.39,0,0,0,111,296c-1.06,0-1.91.55-1.91,1.64,0,.64.46,1.28,1.62,1.45.3.05.73.12,1.28.18a3.25,3.25,0,0,1,3.12,3.28c0,2.1-1.55,3.31-4,3.31a6.43,6.43,0,0,1-4.36-1.56Z"/><path class="cls-2" d="M117.05,303a5.27,5.27,0,0,0,3.24,1.14c1.4,0,2.25-.64,2.25-1.59a1.47,1.47,0,0,0-1.48-1.53l-1.51-.21a3.17,3.17,0,0,1-3-3.2c0-2,1.37-3.33,3.72-3.33a6.67,6.67,0,0,1,3.7,1.18l-1,1.42a5.42,5.42,0,0,0-2.82-.88c-1.06,0-1.91.55-1.91,1.64,0,.64.47,1.28,1.62,1.45.3.05.74.12,1.28.18a3.25,3.25,0,0,1,3.12,3.28c0,2.1-1.55,3.31-4,3.31a6.4,6.4,0,0,1-4.35-1.56Z"/><path class="cls-2" d="M126.21,296.34a4.14,4.14,0,0,1,7.13,0c.37.68.5,1,.5,3.75s-.13,3.07-.5,3.75a4.14,4.14,0,0,1-7.13,0c-.37-.68-.5-1-.5-3.75S125.84,297,126.21,296.34Zm1.8,7a2.27,2.27,0,0,0,3.53,0c.44-.57.57-.89.57-3.23s-.13-2.66-.57-3.23a2.27,2.27,0,0,0-3.53,0c-.44.57-.57.89-.57,3.23S127.57,302.75,128,303.32Z"/><path class="cls-2" d="M91,151.34,33.57,176.12l20.19,8.72v28.74l1.79,1.22c.65.44,16.1,10.87,35.46,10.87s34.81-10.43,35.45-10.87l1.79-1.22V184.84l5.62-2.43v13.91l6.81-2.95v-13.9l7.76-3.35Zm0,8.95,36.69,15.83L91,192l-36.7-15.84Zm29,48.83c-4.28,2.49-15.72,8.33-29,8.33s-24.75-5.85-29-8.34V188.38l29,12.53,29-12.53Z"/><polygon class="cls-2" points="102.88 176.12 91.01 171 79.13 176.12 91.01 181.25 102.88 176.12"/></g></g></svg>