<svg xmlns="http://www.w3.org/2000/svg" viewBox="0 0 172.14 371"><defs><style>.cls-1{fill:#ffb300;}.cls-2{fill:#fff;}</style></defs><title>bt-inova</title><g id="Camada_2" data-name="Camada 2"><g id="Camada_1-2" data-name="Camada 1"><rect class="cls-1" width="172.14" height="371"/><path class="cls-2" d="M39.86,285.52H38.3L37.8,289H36.55l.5-3.48H35.57v-1.06h1.59l.35-2.31H36v-1h1.58l.5-3.49h1.25l-.5,3.49h1.57l.5-3.49h1.25l-.5,3.49h1.47v1H41.58l-.35,2.31H42.7v1.06H41.11L40.62,289H39.37Zm.47-3.37H38.76l-.35,2.31H40Z"/><path class="cls-2" d="M48.25,277.61h7.28v1.63H50v3.25h4.73V284H50v3.34h5.55V289H48.25Z"/><path class="cls-2" d="M64.83,285.82a3.92,3.92,0,0,1-4,3.28,4,4,0,0,1-3.56-2.05c-.37-.67-.5-1-.5-3.74s.13-3.08.5-3.75a4.09,4.09,0,0,1,7.57,1.33H63a2.3,2.3,0,0,0-2.18-1.65,2.24,2.24,0,0,0-1.76.83c-.44.58-.57.9-.57,3.24s.13,2.65.57,3.23a2.21,2.21,0,0,0,1.76.83A2.34,2.34,0,0,0,63,285.82Z"/><path class="cls-2" d="M66.15,279.56a4.13,4.13,0,0,1,7.14,0c.37.67.5,1,.5,3.75s-.13,3.07-.5,3.74a4.13,4.13,0,0,1-7.14,0c-.37-.67-.5-1-.5-3.74S65.78,280.23,66.15,279.56Zm1.81,7a2.28,2.28,0,0,0,3.52,0c.45-.58.58-.9.58-3.23s-.13-2.66-.58-3.24a2.28,2.28,0,0,0-3.52,0c-.45.58-.58.9-.58,3.24S67.51,286,68,286.54Z"/><path class="cls-2" d="M75.8,277.61h1.63l5.16,8.1h0v-8.1h1.73V289H82.71l-5.15-8.09h0V289H75.8Z"/><path class="cls-2" d="M86.86,279.56a4.12,4.12,0,0,1,7.13,0c.37.67.5,1,.5,3.75s-.13,3.07-.5,3.74a4.12,4.12,0,0,1-7.13,0c-.37-.67-.5-1-.5-3.74S86.49,280.23,86.86,279.56Zm1.8,7a2.29,2.29,0,0,0,3.53,0c.44-.58.57-.9.57-3.23s-.13-2.66-.57-3.24a2.29,2.29,0,0,0-3.53,0c-.44.58-.57.9-.57,3.24S88.22,286,88.66,286.54Z"/><path class="cls-2" d="M96.5,277.61h1.64L101.4,285l3.2-7.43h1.64V289h-1.73v-7.1h0l-2.38,5.47h-1.44l-2.39-5.47h0V289H96.5Z"/><path class="cls-2" d="M108.63,277.61h1.73V289h-1.73Z"/><path class="cls-2" d="M118.6,286.46h-4.32L113.4,289h-1.83l4.15-11.39h1.44L121.31,289h-1.83Zm-.49-1.54-1.65-5h0l-1.64,5Z"/><path class="cls-2" d="M32.47,293.61H34.2V305H32.47Z"/><path class="cls-2" d="M36.6,293.61h1.63l5.16,8.1h0v-8.1h1.73V305H43.51l-5.15-8.09h0V305H36.6Z"/><path class="cls-2" d="M47.66,295.56a4.12,4.12,0,0,1,7.13,0c.37.67.5,1,.5,3.75s-.13,3.07-.5,3.74a4.12,4.12,0,0,1-7.13,0c-.37-.67-.5-1-.5-3.74S47.29,296.23,47.66,295.56Zm1.8,7a2.29,2.29,0,0,0,3.53,0c.44-.58.57-.9.57-3.23s-.13-2.66-.57-3.24a2.29,2.29,0,0,0-3.53,0c-.44.58-.57.9-.57,3.24S49,302,49.46,302.54Z"/><path class="cls-2" d="M55.72,293.61h1.82l2.6,8.67h0l2.59-8.67h1.83L60.82,305H59.48Z"/><path class="cls-2" d="M70.76,302.46H66.44L65.56,305H63.74l4.14-11.39h1.44L73.47,305H71.64Zm-.49-1.54-1.65-5h0l-1.64,5Z"/><path class="cls-2" d="M74.68,293.61h4a3.87,3.87,0,0,1,3.48,1.92c.56,1,.61,1.39.61,3.78,0,2.56-.13,3-.64,3.81A4.09,4.09,0,0,1,78.55,305H74.68Zm1.73,9.76h2.06a2.37,2.37,0,0,0,2.12-1c.38-.58.43-.9.43-3s0-2.54-.51-3.17a2.22,2.22,0,0,0-2-1H76.41Z"/><path class="cls-2" d="M84.87,295.56a4.13,4.13,0,0,1,7.14,0c.37.67.5,1,.5,3.75s-.13,3.07-.5,3.74a4.13,4.13,0,0,1-7.14,0c-.37-.67-.5-1-.5-3.74S84.5,296.23,84.87,295.56Zm1.81,7a2.28,2.28,0,0,0,3.52,0c.45-.58.58-.9.58-3.23s-.13-2.66-.58-3.24a2.28,2.28,0,0,0-3.52,0c-.45.58-.58.9-.58,3.24S86.23,302,86.68,302.54Z"/><path class="cls-2" d="M94.52,293.61H99a3.34,3.34,0,0,1,2.32.75,3.21,3.21,0,0,1,1.14,2.43,3.24,3.24,0,0,1-2.21,3.16l2.64,5.05h-2l-2.35-4.86H96.25V305H94.52Zm1.73,5h2.61a1.76,1.76,0,0,0,1.93-1.81,1.52,1.52,0,0,0-.57-1.29,1.94,1.94,0,0,0-1.27-.36h-2.7Z"/><path class="cls-2" d="M110.12,302.46H105.8l-.88,2.54h-1.83l4.15-11.39h1.44L112.83,305H111Zm-.5-1.54L108,296h0l-1.64,5Z"/><path class="cls-2" d="M117.88,293.61h7.28v1.63h-5.55v3.25h4.73V300h-4.73v3.34h5.55V305h-7.28Z"/><path class="cls-2" d="M16,309.61h7.29v1.63H17.68v3.25h4.74V316H17.68v3.34h5.56V321H16Z"/><path class="cls-2" d="M24.85,309.61h1.63L29.75,317l3.2-7.43h1.63V321H32.85v-7.1h0l-2.39,5.47H29l-2.38-5.47h0V321H24.85Z"/><path class="cls-2" d="M37,309.61h4.13a3.74,3.74,0,0,1,2.56.8,3.39,3.39,0,0,1,1.23,2.72,3.43,3.43,0,0,1-3.57,3.42H38.7V321H37Zm1.72,5.31h2.57a1.8,1.8,0,0,0,1.9-1.84,1.67,1.67,0,0,0-.74-1.52,2,2,0,0,0-1.23-.32H38.7Z"/><path class="cls-2" d="M46.46,309.61h4.45a3.33,3.33,0,0,1,2.32.75A3.28,3.28,0,0,1,52.16,316L54.8,321h-2l-2.35-4.86H48.19V321H46.46Zm1.73,5H50.8a1.77,1.77,0,0,0,1.94-1.81,1.53,1.53,0,0,0-.58-1.29,1.91,1.91,0,0,0-1.26-.36H48.19Z"/><path class="cls-2" d="M56.22,309.61h7.29v1.63H58v3.25h4.74V316H58v3.34h5.56V321H56.22Z"/><path class="cls-2" d="M65.12,309.61H72.4v1.63H66.85v3.25h4.74V316H66.85v3.34H72.4V321H65.12Z"/><path class="cls-2" d="M74,309.61h1.63l5.15,8.1h0v-8.1h1.73V321H80.93l-5.15-8.09h0V321H74Z"/><path class="cls-2" d="M85,309.61h4a3.86,3.86,0,0,1,3.47,1.92c.56,1,.61,1.39.61,3.78,0,2.56-.13,3-.64,3.81A4.09,4.09,0,0,1,88.83,321H85Zm1.73,9.76h2.06a2.37,2.37,0,0,0,2.12-1c.38-.58.43-.9.43-3s0-2.54-.51-3.17a2.22,2.22,0,0,0-2-1H86.69Z"/><path class="cls-2" d="M95,309.61h7.28v1.63H96.77v3.25h4.74V316H96.77v3.34h5.55V321H95Z"/><path class="cls-2" d="M103.94,309.61h4a3.84,3.84,0,0,1,3.47,1.92c.56,1,.61,1.39.61,3.78,0,2.56-.13,3-.64,3.81a4.06,4.06,0,0,1-3.55,1.88h-3.87Zm1.72,9.76h2.07a2.35,2.35,0,0,0,2.11-1c.39-.58.43-.9.43-3s0-2.54-.51-3.17a2.2,2.2,0,0,0-2-1h-2.07Z"/><path class="cls-2" d="M114.13,311.56a4.13,4.13,0,0,1,7.14,0c.36.67.49,1,.49,3.75s-.13,3.07-.49,3.74a4.13,4.13,0,0,1-7.14,0c-.37-.67-.5-1-.5-3.74S113.76,312.23,114.13,311.56Zm1.81,7a2.28,2.28,0,0,0,3.52,0c.45-.58.57-.9.57-3.23s-.12-2.66-.57-3.24a2.28,2.28,0,0,0-3.52,0c-.45.58-.58.9-.58,3.24S115.49,318,115.94,318.54Z"/><path class="cls-2" d="M123.78,309.61h4.44a3.35,3.35,0,0,1,2.33.75,3.29,3.29,0,0,1-1.08,5.59l2.64,5.05h-2l-2.36-4.86H125.5V321h-1.72Zm1.72,5h2.61a1.77,1.77,0,0,0,1.94-1.81,1.5,1.5,0,0,0-.58-1.29,1.91,1.91,0,0,0-1.26-.36H125.5Z"/><path class="cls-2" d="M139.38,318.46h-4.32l-.88,2.54h-1.83l4.15-11.39h1.44L142.08,321h-1.82Zm-.5-1.54-1.65-5h0l-1.65,5Z"/><path class="cls-2" d="M134.76,201.61c0-15.44-5.31-28.46-15.36-37.65a49.51,49.51,0,0,0-33.61-12.62,49.2,49.2,0,0,0-33.47,12.57c-10,9.16-15.27,22.15-15.27,37.59v2.84h6.8l.56-1.39a12,12,0,0,1,11.33-8,12.33,12.33,0,0,1,11.49,8.39l.36,1H74l.36-1a12.63,12.63,0,0,1,7.82-7.8v43.27A19.41,19.41,0,0,0,82.3,241h-.08a2.75,2.75,0,0,1-5.5,0H69.38a10.09,10.09,0,1,0,20.17,0v-45.4a12.64,12.64,0,0,1,7.83,7.81l.36,1h6.45l.36-1A12,12,0,0,1,127.4,203l.52,1.31h6.84Zm-67.17-9.79a19.08,19.08,0,0,0-22.12-1.24,39.25,39.25,0,0,1,11.8-21.26,40.68,40.68,0,0,1,20.11-9.87C70.91,168.75,68.37,179.45,67.59,191.82Zm18.29-4.19A19.06,19.06,0,0,0,75,191.15c.87-12.28,3.67-22.25,10.92-30.74,7.39,8.65,10.27,18.87,11.18,30.93A19.08,19.08,0,0,0,85.88,187.63Zm30.15,0a19.11,19.11,0,0,0-11.58,4c-.77-11.21-3.22-22.3-10-32.1,14.49,2.83,28,12.85,31.91,31.13A19.08,19.08,0,0,0,116,187.63Z"/></g></g></svg>