<svg xmlns="http://www.w3.org/2000/svg" viewBox="0 0 172.14 371"><defs><style>.cls-1{fill:#a1cf17;}.cls-2{fill:#fff;}</style></defs><title>bt-politica</title><g id="Camada_2" data-name="Camada 2"><g id="Camada_1-2" data-name="Camada 1"><rect class="cls-1" width="172.14" height="371"/><path class="cls-2" d="M55.34,286.52H53.77L53.28,290H52l.5-3.49H51.05v-1h1.59l.35-2.31H51.52v-1.05H53.1l.5-3.49h1.25l-.5,3.49h1.57l.5-3.49h1.24l-.49,3.49h1.47v1.05H57.06l-.36,2.31h1.48v1H56.59L56.1,290H54.85Zm.47-3.36H54.24l-.35,2.31h1.57Z"/><path class="cls-2" d="M59.89,278.62H64a3.74,3.74,0,0,1,2.56.8,3.36,3.36,0,0,1,1.23,2.72,3.44,3.44,0,0,1-3.57,3.42H61.62V290H59.89Zm1.73,5.31h2.56a1.8,1.8,0,0,0,1.9-1.84,1.67,1.67,0,0,0-.74-1.52,2,2,0,0,0-1.23-.32H61.62Z"/><path class="cls-2" d="M69.49,280.57a4.12,4.12,0,0,1,7.13,0c.37.67.5,1,.5,3.74s-.13,3.08-.5,3.75a4.12,4.12,0,0,1-7.13,0c-.37-.67-.5-1-.5-3.75S69.12,281.24,69.49,280.57Zm1.8,7a2.29,2.29,0,0,0,3.53,0c.44-.58.57-.9.57-3.24s-.13-2.65-.57-3.23a2.29,2.29,0,0,0-3.53,0c-.44.58-.57.9-.57,3.23S70.85,287,71.29,287.55Z"/><path class="cls-2" d="M79.13,278.62h1.73v9.76h5.56V290H79.13Z"/><path class="cls-2" d="M89.13,275.72h2.15L89,278.05H87.66Zm-1.1,2.9h1.73V290H88Z"/><path class="cls-2" d="M94.09,280.15H91v-1.53h8v1.53H95.82V290H94.09Z"/><path class="cls-2" d="M100.16,278.62h1.73V290h-1.73Z"/><path class="cls-2" d="M112,286.83a3.92,3.92,0,0,1-4,3.28,4,4,0,0,1-3.57-2.05c-.37-.67-.5-1-.5-3.75s.13-3.07.5-3.74A4.09,4.09,0,0,1,112,281.9h-1.83a2.29,2.29,0,0,0-2.17-1.65,2.18,2.18,0,0,0-1.76.83c-.45.58-.58.9-.58,3.23s.13,2.66.58,3.24a2.18,2.18,0,0,0,1.76.83,2.34,2.34,0,0,0,2.17-1.55Z"/><path class="cls-2" d="M119,287.47H114.7l-.88,2.54H112l4.14-11.39h1.44L121.73,290H119.9Zm-.49-1.54-1.65-5h0l-1.65,5Z"/><path class="cls-2" d="M31.77,303.24A5.27,5.27,0,0,0,35,304.38c1.41,0,2.26-.64,2.26-1.59a1.49,1.49,0,0,0-1.49-1.53l-1.51-.21a3.15,3.15,0,0,1-3-3.2c0-2,1.36-3.33,3.71-3.33a6.75,6.75,0,0,1,3.7,1.18l-1,1.43a5.33,5.33,0,0,0-2.82-.88c-1.06,0-1.91.54-1.91,1.63,0,.64.47,1.28,1.62,1.46.31.05.74.11,1.28.17A3.25,3.25,0,0,1,39,302.79c0,2.1-1.55,3.32-4,3.32a6.36,6.36,0,0,1-4.35-1.57Z"/><path class="cls-2" d="M40.81,294.62H48.1v1.63H42.54v3.25h4.74V301H42.54v3.35H48.1V306H40.81Z"/><path class="cls-2" d="M49.71,294.62h1.63L54.61,302l3.2-7.42h1.63V306H57.71v-7.1h0l-2.38,5.47H53.86l-2.39-5.47h0V306H49.71Z"/><path class="cls-2" d="M65.68,294.62h4.13a3.74,3.74,0,0,1,2.56.8,3.36,3.36,0,0,1,1.23,2.72A3.44,3.44,0,0,1,70,301.56H67.41V306H65.68Zm1.73,5.31H70a1.8,1.8,0,0,0,1.9-1.84,1.69,1.69,0,0,0-.73-1.52,2,2,0,0,0-1.24-.32H67.41Z"/><path class="cls-2" d="M75.17,294.62h4.45a3.34,3.34,0,0,1,2.32.75A3.28,3.28,0,0,1,80.86,301L83.5,306h-2l-2.36-4.86H76.89V306H75.17Zm1.72,5H79.5a1.77,1.77,0,0,0,1.94-1.81,1.54,1.54,0,0,0-.58-1.3,1.91,1.91,0,0,0-1.26-.35H76.89Z"/><path class="cls-2" d="M84.93,294.62h1.72V306H84.93Z"/><path class="cls-2" d="M87.87,294.62h1.82l2.6,8.67h0l2.59-8.67h1.83L93,306H91.63Z"/><path class="cls-2" d="M98,294.62h1.73V306H98Z"/><path class="cls-2" d="M102.08,294.62h1.73v9.76h5.55V306h-7.28Z"/><path class="cls-2" d="M111,294.62h7.29v1.63H112.7v3.25h4.74V301H112.7v3.35h5.56V306H111Zm4-2.9h2.15l-2.28,2.33h-1.34Z"/><path class="cls-2" d="M123.57,299.74h4.05v2.32a4.09,4.09,0,0,1-7.64,2c-.37-.67-.49-1-.49-3.75s.12-3.07.49-3.74a4.07,4.07,0,0,1,3.57-2.05,4,4,0,0,1,4,3.38h-1.82a2.3,2.3,0,0,0-2.18-1.65,2.18,2.18,0,0,0-1.76.83c-.45.58-.58.9-.58,3.23s.13,2.66.58,3.24a2.18,2.18,0,0,0,1.76.83,2.31,2.31,0,0,0,2.34-2.42v-.59h-2.32Z"/><path class="cls-2" d="M129.63,294.62h1.73V306h-1.73Z"/><path class="cls-2" d="M133.87,296.57a4.13,4.13,0,0,1,7.14,0c.37.67.49,1,.49,3.74s-.12,3.08-.49,3.75a4.13,4.13,0,0,1-7.14,0c-.37-.67-.5-1-.5-3.75S133.5,297.24,133.87,296.57Zm1.81,7a2.28,2.28,0,0,0,3.52,0c.45-.58.58-.9.58-3.24s-.13-2.65-.58-3.23a2.28,2.28,0,0,0-3.52,0c-.45.58-.58.9-.58,3.23S135.23,303,135.68,303.55Z"/><path class="cls-2" d="M117.16,151.34H55v80h62.17Zm-6.93,73.07H61.92V158.27h48.31Z"/><polygon class="cls-2" points="71.22 201.29 76.12 206.19 82.61 199.7 82.61 208.87 89.54 208.87 89.54 199.7 96.02 206.19 100.92 201.29 94.44 194.8 103.61 194.8 103.61 187.87 94.44 187.87 100.92 181.39 96.02 176.49 89.54 182.97 89.54 173.8 82.61 173.8 82.61 182.97 76.12 176.49 71.22 181.39 77.71 187.87 68.53 187.87 68.53 194.8 77.71 194.8 71.22 201.29"/></g></g></svg>