<svg xmlns="http://www.w3.org/2000/svg" viewBox="0 0 146.5 125"><defs><style>.cls-1{fill:#ccc;}.cls-2{fill:#e84e1b;}.cls-3{fill:#fff;}</style></defs><title>BT-propostas</title><g id="Camada_2" data-name="Camada 2"><g id="Camada_1-2" data-name="Camada 1"><rect class="cls-1" x="3.43" width="143.07" height="125"/><rect class="cls-2" width="143.07" height="122"/><path class="cls-3" d="M10.36,88.73h6.19a5.61,5.61,0,0,1,3.84,1.2A5.06,5.06,0,0,1,22.24,94a5.16,5.16,0,0,1-5.35,5.14H13v6.67H10.36Zm2.59,8h3.84a2.71,2.71,0,0,0,2.86-2.76,2.53,2.53,0,0,0-1.11-2.28,2.94,2.94,0,0,0-1.84-.48H13Z"/><path class="cls-3" d="M24.59,88.73h6.67a5.06,5.06,0,0,1,3.49,1.13,4.92,4.92,0,0,1-1.61,8.37l4,7.59H34l-3.53-7.3H27.18v7.3H24.59Zm2.59,7.49H31.1A2.65,2.65,0,0,0,34,93.51a2.32,2.32,0,0,0-.86-2,2.89,2.89,0,0,0-1.9-.53H27.18Z"/><path class="cls-3" d="M39.4,91.66a6.2,6.2,0,0,1,10.7,0c.56,1,.75,1.51.75,5.61s-.19,4.61-.75,5.62a6.2,6.2,0,0,1-10.7,0c-.55-1-.74-1.51-.74-5.62S38.85,92.67,39.4,91.66Zm2.71,10.46a3.41,3.41,0,0,0,5.28,0c.67-.86.87-1.34.87-4.85s-.2-4-.87-4.84a3.41,3.41,0,0,0-5.28,0c-.67.86-.86,1.34-.86,4.84S41.44,101.26,42.11,102.12Z"/><path class="cls-3" d="M53.87,88.73h6.19a5.61,5.61,0,0,1,3.84,1.2A5.06,5.06,0,0,1,65.75,94a5.16,5.16,0,0,1-5.35,5.14H56.46v6.67H53.87Zm2.59,8H60.3a2.71,2.71,0,0,0,2.86-2.76,2.54,2.54,0,0,0-1.1-2.28,3,3,0,0,0-1.85-.48H56.46Z"/><path class="cls-3" d="M68.27,91.66a6.21,6.21,0,0,1,10.71,0c.55,1,.74,1.51.74,5.61s-.19,4.61-.74,5.62a6.21,6.21,0,0,1-10.71,0c-.55-1-.74-1.51-.74-5.62S67.72,92.67,68.27,91.66ZM71,102.12a3.41,3.41,0,0,0,5.28,0c.68-.86.87-1.34.87-4.85s-.19-4-.87-4.84a3.41,3.41,0,0,0-5.28,0c-.67.86-.86,1.34-.86,4.84S70.31,101.26,71,102.12Z"/><path class="cls-3" d="M83,101.67a7.88,7.88,0,0,0,4.85,1.7c2.11,0,3.38-1,3.38-2.37A2.22,2.22,0,0,0,89,98.69l-2.26-.31c-3-.41-4.53-2.33-4.53-4.8,0-2.93,2-5,5.57-5a10,10,0,0,1,5.54,1.77L91.84,92.5a8,8,0,0,0-4.22-1.32c-1.59,0-2.86.81-2.86,2.45,0,1,.7,1.92,2.42,2.18.46.07,1.11.17,1.92.26A4.87,4.87,0,0,1,93.78,101c0,3.14-2.32,5-6,5a9.53,9.53,0,0,1-6.52-2.35Z"/><path class="cls-3" d="M99.42,91H94.74v-2.3h12V91H102v14.79h-2.6Z"/><path class="cls-3" d="M115.5,102H109l-1.32,3.82H105l6.21-17.09h2.16l6.22,17.09h-2.74Zm-.74-2.3-2.47-7.47h-.05l-2.47,7.47Z"/><path class="cls-3" d="M121.6,101.67a7.86,7.86,0,0,0,4.85,1.7c2.11,0,3.38-1,3.38-2.37a2.23,2.23,0,0,0-2.23-2.31l-2.26-.31c-3-.41-4.53-2.33-4.53-4.8,0-2.93,2-5,5.57-5a10,10,0,0,1,5.54,1.77l-1.44,2.14a8,8,0,0,0-4.23-1.32c-1.58,0-2.85.81-2.85,2.45,0,1,.69,1.92,2.42,2.18.46.07,1.11.17,1.92.26a4.88,4.88,0,0,1,4.68,4.93c0,3.14-2.33,5-6,5a9.55,9.55,0,0,1-6.53-2.35Z"/></g></g></svg>