<svg xmlns="http://www.w3.org/2000/svg" viewBox="0 0 28.57 106.33"><defs><style>.cls-1{fill:#e5007e;}.cls-2{fill:#e5332a;}.cls-3{fill:#312782;}</style></defs><title>bt-redes-sociais</title><g id="Camada_2" data-name="Camada 2"><g id="Camada_1-2" data-name="Camada 1"><path class="cls-1" d="M20.15,0,8.18.11A7.37,7.37,0,0,0,.87,7.55l.11,12a7.37,7.37,0,0,0,7.44,7.31l12-.11a7.37,7.37,0,0,0,7.31-7.44l-.11-12A7.37,7.37,0,0,0,20.15,0Zm5.18,19.31a5,5,0,0,1-5,5l-12,.11a5,5,0,0,1-5-5l-.11-12a5,5,0,0,1,5-5.05l12-.11a5,5,0,0,1,5,5Z"/><path class="cls-1" d="M14.22,6.53a6.89,6.89,0,1,0,7,6.82,6.89,6.89,0,0,0-7-6.82Zm.1,11.4a4.52,4.52,0,1,1,4.48-4.55,4.51,4.51,0,0,1-4.48,4.55Z"/><path class="cls-1" d="M21.38,4.46A1.7,1.7,0,0,0,20.16,5a1.67,1.67,0,0,0-.5,1.23,1.74,1.74,0,0,0,3,1.2,1.7,1.7,0,0,0,.49-1.23A1.73,1.73,0,0,0,22.61,5a1.7,1.7,0,0,0-1.23-.49Z"/><path class="cls-2" d="M27.15,84.77,1.23,85A1.24,1.24,0,0,0,0,86.25L0,91,.17,105.1a1.23,1.23,0,0,0,1.25,1.23l25.92-.23a1.24,1.24,0,0,0,1.23-1.25l-.13-14.14,0-4.71A1.23,1.23,0,0,0,27.15,84.77Zm-1.07,18.87-23.45.21-.1-11,11.26,5a1.21,1.21,0,0,0,1,0L26,92.65ZM26,89.94,14.28,95.37,2.51,90.14l0-2.68,23.45-.2Z"/><path class="cls-3" d="M26.36,47.71a4.17,4.17,0,0,0-4.09-4l-16.19.14a4.16,4.16,0,0,0-4,4l.14,16a4.17,4.17,0,0,0,4.08,4l8.1-.07-.08-9.05-3,0,0-4,3,0V53.18c0-2.68,2-5.12,4.51-5.14L22,48l0,4-3.27,0A1,1,0,0,0,18,53.11V54.7l4.05,0,0,4-4.05,0,.08,9,4.32,0a4.17,4.17,0,0,0,4-4Z"/></g></g></svg>