<svg xmlns="http://www.w3.org/2000/svg" viewBox="0 0 172.14 371"><defs><style>.cls-1{fill:#00b0c7;}.cls-2{fill:#fff;}</style></defs><title>bt-saneamento</title><g id="Camada_2" data-name="Camada 2"><g id="Camada_1-2" data-name="Camada 1"><rect class="cls-1" width="172.14" height="371"/><path class="cls-2" d="M49.5,286.3H47.93l-.49,3.49H46.19l.5-3.49H45.21v-1.06H46.8l.35-2.3H45.68v-1.06h1.58l.5-3.49H49l-.5,3.49h1.57l.5-3.49h1.24l-.49,3.49H52.8v1.06H51.22l-.36,2.3h1.48v1.06H50.75l-.49,3.49H49Zm.47-3.36H48.4l-.35,2.3h1.56Z"/><path class="cls-2" d="M54.05,278.39h4.13a3.74,3.74,0,0,1,2.56.8A3.39,3.39,0,0,1,62,281.91a3.44,3.44,0,0,1-3.57,3.43H55.78v4.45H54.05Zm1.73,5.32h2.56a1.8,1.8,0,0,0,1.9-1.84,1.69,1.69,0,0,0-.74-1.53,2,2,0,0,0-1.23-.32H55.78Z"/><path class="cls-2" d="M63.53,278.39H68a3.38,3.38,0,0,1,2.32.75,3.28,3.28,0,0,1-1.07,5.59l2.64,5.06H69.82l-2.35-4.87H65.26v4.87H63.53Zm1.73,5h2.61a1.77,1.77,0,0,0,1.94-1.81,1.55,1.55,0,0,0-.58-1.3,1.91,1.91,0,0,0-1.26-.35H65.26Z"/><path class="cls-2" d="M73.4,280.34a4.14,4.14,0,0,1,7.14,0c.37.68.5,1,.5,3.75s-.13,3.07-.5,3.75a4.14,4.14,0,0,1-7.14,0c-.36-.68-.49-1-.49-3.75S73,281,73.4,280.34Zm1.81,7a2.27,2.27,0,0,0,3.53,0c.44-.57.57-.89.57-3.23s-.13-2.66-.57-3.23a2.27,2.27,0,0,0-3.53,0c-.44.57-.57.89-.57,3.23S74.77,286.75,75.21,287.32Z"/><path class="cls-2" d="M84.7,279.93H81.58v-1.54h8v1.54H86.43v9.86H84.7Z"/><path class="cls-2" d="M90.77,278.39h7.28V280H92.49v3.25h4.74v1.54H92.49v3.35h5.56v1.63H90.77Z"/><path class="cls-2" d="M103.1,289.88a4.08,4.08,0,0,1-3.33-2c-.37-.68-.49-1-.49-3.75s.12-3.07.49-3.75a4.06,4.06,0,0,1,3.57-2,4,4,0,0,1,4,3.37h-1.82a2.3,2.3,0,0,0-2.18-1.65,2.2,2.2,0,0,0-1.76.84c-.45.57-.57.89-.57,3.23s.12,2.66.57,3.23a2.2,2.2,0,0,0,1.76.84,2.35,2.35,0,0,0,2.18-1.56h1.82a3.88,3.88,0,0,1-3.4,3.25l-.68.9h0a1.73,1.73,0,0,1,.44-.06,1.27,1.27,0,0,1,1.41,1.21c0,1-.93,1.51-2,1.51a4.73,4.73,0,0,1-1.62-.39l.29-.67a3.25,3.25,0,0,0,1.12.24c.54,0,.93-.19.93-.67s-.36-.59-.79-.59a1.09,1.09,0,0,0-.61.17l-.35-.3Z"/><path class="cls-2" d="M114.4,287.24h-4.32l-.88,2.55h-1.83l4.15-11.4H113l4.15,11.4h-1.83Zm-5-9.57a1.91,1.91,0,0,1,1.81-1.86c.8,0,1.52.61,2.18.61.3,0,.64-.11.75-.7h1c-.18,1-.69,1.86-1.76,1.86-.82,0-1.67-.6-2.31-.6a.66.66,0,0,0-.67.69Zm4.51,8-1.65-5h0l-1.65,5Z"/><path class="cls-2" d="M118.14,280.34a4.14,4.14,0,0,1,7.14,0c.37.68.5,1,.5,3.75s-.13,3.07-.5,3.75a4.14,4.14,0,0,1-7.14,0c-.37-.68-.49-1-.49-3.75S117.77,281,118.14,280.34Zm1.81,7a2.26,2.26,0,0,0,3.52,0c.45-.57.58-.89.58-3.23s-.13-2.66-.58-3.23a2.26,2.26,0,0,0-3.52,0c-.45.57-.58.89-.58,3.23S119.5,286.75,120,287.32Z"/><path class="cls-2" d="M52.38,303.24H48.05l-.88,2.55H45.35l4.14-11.4h1.45l4.14,11.4H53.26Zm-.5-1.53-1.65-5h0l-1.65,5Z"/><path class="cls-2" d="M56.29,294.39h1.64l3.26,7.43,3.2-7.43H66v11.4H64.3v-7.11h0l-2.39,5.48H60.44l-2.39-5.48h0v7.11H56.29Z"/><path class="cls-2" d="M68.42,294.39h4.42c2.22,0,3.38,1.27,3.38,3.06a2.5,2.5,0,0,1-1.68,2.45v0a2.56,2.56,0,0,1,1.85,2.62,3.11,3.11,0,0,1-3.17,3.24h-4.8Zm1.73,1.54v3.26h2.5a1.64,1.64,0,1,0,0-3.26Zm0,4.8v3.43h2.66a1.72,1.72,0,1,0,0-3.43Z"/><path class="cls-2" d="M78.18,294.39h1.73v11.4H78.18Z"/><path class="cls-2" d="M82.31,294.39h7.28V296H84v3.25h4.74v1.54H84v3.35h5.55v1.63H82.31Z"/><path class="cls-2" d="M91.21,294.39h1.63l5.15,8.1h0v-8.1h1.73v11.4H98.12L93,297.69h0v8.1H91.21Z"/><path class="cls-2" d="M104.09,295.93H101v-1.54h8v1.54h-3.13v9.86h-1.72Z"/><path class="cls-2" d="M114.81,303.24h-4.32l-.88,2.55h-1.83l4.15-11.4h1.44l4.14,11.4h-1.82Zm-.5-1.53-1.65-5h0l-1.65,5Z"/><path class="cls-2" d="M118.73,294.39h1.72v9.77H126v1.63h-7.28Z"/><path class="cls-2" d="M31.72,310.39H39V312H33.45v3.25h4.73v1.54H33.45v3.35H39v1.63H31.72Z"/><path class="cls-2" d="M44.6,319a5.22,5.22,0,0,0,3.23,1.14c1.41,0,2.26-.64,2.26-1.59A1.48,1.48,0,0,0,48.6,317l-1.51-.21a3.17,3.17,0,0,1-3-3.2c0-2,1.36-3.33,3.71-3.33a6.67,6.67,0,0,1,3.7,1.18l-1,1.42A5.39,5.39,0,0,0,47.7,312c-1.05,0-1.9.55-1.9,1.64,0,.64.46,1.28,1.61,1.45.31.05.74.12,1.29.18a3.26,3.26,0,0,1,3.12,3.28c0,2.1-1.56,3.31-4,3.31a6.41,6.41,0,0,1-4.36-1.56Z"/><path class="cls-2" d="M59.48,319.24H55.16l-.88,2.55H52.45l4.15-11.4H58l4.15,11.4H60.36Zm-.5-1.53-1.64-5h0l-1.65,5Z"/><path class="cls-2" d="M63.4,310.39H65l5.15,8.1h0v-8.1h1.72v11.4H70.31l-5.15-8.1h0v8.1H63.4Z"/><path class="cls-2" d="M74.34,310.39h7.28V312H76.07v3.25h4.74v1.54H76.07v3.35h5.55v1.63H74.34Z"/><path class="cls-2" d="M89.08,319.24H84.76l-.88,2.55H82.05l4.15-11.4h1.44l4.14,11.4H90Zm-.5-1.53-1.64-5h0l-1.65,5Z"/><path class="cls-2" d="M93,310.39h1.63l3.27,7.43,3.2-7.43h1.63v11.4H101v-7.11h0l-2.39,5.48H97.14l-2.38-5.48h0v7.11H93Z"/><path class="cls-2" d="M105.13,310.39h7.28V312h-5.56v3.25h4.74v1.54h-4.74v3.35h5.56v1.63h-7.28Z"/><path class="cls-2" d="M114,310.39h1.63l5.16,8.1h0v-8.1h1.73v11.4h-1.63l-5.16-8.1h0v8.1H114Z"/><path class="cls-2" d="M126.9,311.93h-3.12v-1.54h8v1.54h-3.12v9.86H126.9Z"/><path class="cls-2" d="M132.79,312.34a4.14,4.14,0,0,1,7.14,0c.37.68.49,1,.49,3.75s-.12,3.07-.49,3.75a4.14,4.14,0,0,1-7.14,0c-.37-.68-.5-1-.5-3.75S132.42,313,132.79,312.34Zm1.81,7a2.26,2.26,0,0,0,3.52,0c.45-.57.57-.89.57-3.23s-.12-2.66-.57-3.23a2.26,2.26,0,0,0-3.52,0c-.45.57-.58.89-.58,3.23S134.15,318.75,134.6,319.32Z"/><path class="cls-2" d="M61.33,326.39h4.42c2.23,0,3.38,1.27,3.38,3.06a2.49,2.49,0,0,1-1.68,2.45v0a2.55,2.55,0,0,1,1.86,2.62,3.12,3.12,0,0,1-3.17,3.24H61.33Zm1.73,1.54v3.26h2.5a1.64,1.64,0,1,0,0-3.26Zm0,4.8v3.43h2.66a1.72,1.72,0,1,0,0-3.43Z"/><path class="cls-2" d="M76.94,335.24H72.61l-.88,2.55H69.91l4.14-11.4h1.44l4.15,11.4H77.82Zm-.5-1.53-1.65-5h0l-1.65,5ZM75,323.49h2.14l-2.27,2.34H73.54Z"/><path class="cls-2" d="M81,335a5.22,5.22,0,0,0,3.23,1.14c1.41,0,2.26-.64,2.26-1.59A1.48,1.48,0,0,0,85,333l-1.51-.21a3.17,3.17,0,0,1-3-3.2c0-2,1.36-3.33,3.71-3.33a6.67,6.67,0,0,1,3.7,1.18l-1,1.42A5.39,5.39,0,0,0,84.1,328c-1,0-1.9.55-1.9,1.64,0,.64.46,1.28,1.61,1.45.31.05.74.12,1.29.18a3.26,3.26,0,0,1,3.12,3.28c0,2.1-1.56,3.31-4,3.31a6.4,6.4,0,0,1-4.35-1.56Z"/><path class="cls-2" d="M90,326.39h1.73v11.4H90Z"/><path class="cls-2" d="M101.85,334.6a3.92,3.92,0,0,1-4,3.28,4,4,0,0,1-3.57-2c-.37-.68-.5-1-.5-3.75s.13-3.07.5-3.75a4.09,4.09,0,0,1,7.57,1.33H100A2.29,2.29,0,0,0,97.85,328a2.18,2.18,0,0,0-1.76.84c-.45.57-.58.89-.58,3.23s.13,2.66.58,3.23a2.18,2.18,0,0,0,1.76.84A2.34,2.34,0,0,0,100,334.6Z"/><path class="cls-2" d="M103.17,328.34a4.14,4.14,0,0,1,7.14,0c.37.68.5,1,.5,3.75s-.13,3.07-.5,3.75a4.14,4.14,0,0,1-7.14,0c-.37-.68-.49-1-.49-3.75S102.8,329,103.17,328.34Zm1.81,7a2.26,2.26,0,0,0,3.52,0c.45-.57.58-.89.58-3.23s-.13-2.66-.58-3.23a2.26,2.26,0,0,0-3.52,0c-.45.57-.58.89-.58,3.23S104.53,334.75,105,335.32Z"/><path class="cls-2" d="M86.07,231.34a23.23,23.23,0,0,0,23.21-23.21c0-9.84-13.42-41.17-19.19-54.18a4.39,4.39,0,0,0-8,0c-5.77,13-19.19,44.34-19.19,54.18A23.23,23.23,0,0,0,86.07,231.34Zm0-68.42c8.3,19.22,15.93,39.36,15.93,45.21a15.93,15.93,0,0,1-31.86,0C70.14,202.28,77.77,182.14,86.07,162.92Z"/></g></g></svg>