<svg xmlns="http://www.w3.org/2000/svg" viewBox="0 0 381.38 417.21"><defs><style>.cls-1{fill:#f2e500;}</style></defs><title>foto-mask</title><g id="Camada_2" data-name="Camada 2"><g id="Camada_1-2" data-name="Camada 1"><path class="cls-1" d="M18,261.85c4.09,7.2,8.35,16.38,13.13,23,0-1,.22-2.34.42-3.88A130.94,130.94,0,0,0,61.3,321.16c3.21,8.36,7.3,15.35,13.79,20.83,1.69-1.69-.13-5.65,2.33-7.15L107,368.2c19.19,11.13,45.19,17.84,69.84,24.14-1.78,8-4,18.7,2.55,24.87-.77-8.61.4-15,1.46-21.66,10-3.22,19.42.72,28.71,2.93,1.31-1.65,6.43-4.82,6.2.14-.15,2.35,3.46,6.27,5.1,4,1.59-2.08.16-5.65.1-8.75,2.67,1.35,5.13,7.11,8,7.27,1.9-3.88-1.68-7.59.47-10.36,3.21-4,5.28,3.23,6.15,6.81,4.14-3.94-1.19-7,3-12.5l4.81,2.18c7.64-7.08,23.68-13.8,31.36-22.57,1.49-1.7,5.06-4.21,3.38-6.88s1-3.86,2.43-1.16c.93-2.24,1.9-4.74-.64-6.07-3.18-1.67-6.08,2.27-10.24,2.5-.11,2.09-5.47-4.85-8.19-6.72,5.89-7.89,16.95-10.54,25.86-16.22l2.54-4.19c-.29-4.58,5.84,1.78,7.37-2,1.23-3.17,3.25-1.11,3.56-.65,5.75-1.49,10.22-6.08,14.36-9.82a114.48,114.48,0,0,1-16.34,22.91c6-1.32,2.6,7.91,9.74,6.39,20.71-4.41,28.45-22.31,28.49-36.59,0-3.42,4-2,3.5-.42-1.12,3.53,4.35,5.37,5.23,2.52,3.55-11,12.52-20.66,19.53-30.14-1.36-20.51,10.69-36.31,14-55,2.25-12.6,4.93-26.31-5-42.2,1.11-20.09,1.3-42-5.95-64.66.56-6.78-.29-17-8.08-24.32-5.08-4.75-12.76-7.67-18.4-6.14,1.21-2.88-2-6.33-4-8.59-1.57-1.74-8.28-3.37-5.7,3.24-11.95-7.28-21.72-14.63-33.5-17.75-2.7-.72-4-2.32-5.52-4.12-12.52-14.79-28.18-28-44.5-34.05.87-4.22.86-8-1.52-10.79-5.06-6-14.24-6.62-21.69-2.94.57,3.43,5.72,4.78,5.11,8.44-9.58,2.16-3.91-10.09-10.42-9.14-3,.45-.05,3.44.54,4.64-2.35,2.62-5.35,2-8.05,1-5.92-2.33-4.09-9.69-8.21-13.2-6.28-5.5-16.77-1.69-21.2,6.59-2.23,4.24-5.69,13.77-12.4,14.34-19.3,1.67-45.25,13.17-71.24,21.86C90.08,55.89,74.89,70.38,62,74.5,54.65,88.11,43,98.4,28.55,106c-1,9.08-1.24,17.48-4,25.21-23,27.06-27.83,59.08-22.69,93.6,1.73,11.61,1.52,22.46,10.35,36.1Zm279.42,50.56c-2,1.38-6,2.84-10,4.22,2.57-2,5.09-4.1,7.53-6.23C297,311.22,298.9,311.39,297.43,312.41Zm2.83-6.83q5.39-5.06,10.3-10.4c-.23.41-.5.83-.72,1.25A19.37,19.37,0,0,1,300.26,305.58Z"/></g></g></svg>