<svg xmlns="http://www.w3.org/2000/svg" viewBox="0 0 75.05 80"><defs><style>.cls-1{fill:#fff;}</style></defs><title>ico-propostas-cidades</title><g id="Camada_2" data-name="Camada 2"><g id="Camada_1-2" data-name="Camada 1"><path class="cls-1" d="M37.52,80A37.52,37.52,0,0,0,43.3,5.4V0H31.75V5.4A37.52,37.52,0,0,0,37.52,80Zm0-69.28A31.76,31.76,0,1,1,5.77,42.48,31.8,31.8,0,0,1,37.52,10.72Z"/><path class="cls-1" d="M31.75,42.48a5.78,5.78,0,0,0,11.55,0A5.51,5.51,0,0,0,43.08,41L58,26.07,53.93,22,39,36.92a5.05,5.05,0,0,0-3,0l-7.48-7.48-4.08,4.08L32,41A5.51,5.51,0,0,0,31.75,42.48Z"/><path class="cls-1" d="M37.52,19.46a3.18,3.18,0,1,0-3.17-3.17A3.17,3.17,0,0,0,37.52,19.46Z"/><path class="cls-1" d="M37.52,65.49a3.18,3.18,0,1,0,3.18,3.17A3.17,3.17,0,0,0,37.52,65.49Z"/><path class="cls-1" d="M63.71,45.65a3.18,3.18,0,1,0-3.17-3.17A3.17,3.17,0,0,0,63.71,45.65Z"/><path class="cls-1" d="M11.34,39.3a3.18,3.18,0,1,0,3.17,3.18A3.18,3.18,0,0,0,11.34,39.3Z"/><path class="cls-1" d="M19,27.13a3.18,3.18,0,1,0-2.25-.93A3.16,3.16,0,0,0,19,27.13Z"/><path class="cls-1" d="M53.8,58.75a3.17,3.17,0,1,0,4.49,0A3.25,3.25,0,0,0,53.8,58.75Z"/><path class="cls-1" d="M16.76,58.75a3.17,3.17,0,1,0,4.49,4.49h0a3.17,3.17,0,0,0-4.49-4.49Z"/></g></g></svg>