<svg xmlns="http://www.w3.org/2000/svg" viewBox="0 0 56.01 45.15"><defs><style>.cls-1{fill:#2c3e50;}.cls-1,.cls-2,.cls-3{fill-rule:evenodd;}.cls-2{fill:#3d566f;}.cls-3,.cls-4{fill:#f39b13;}.cls-5{fill:#f9cb4d;}</style></defs><title>ico-conquistas5</title><g id="Camada_2" data-name="Camada 2"><g id="Camada_1-2" data-name="Camada 1"><path class="cls-1" d="M24.51,26.94c-7.73,7.73-18.25-4.56-11.4-11.41a1.54,1.54,0,0,1,2.16,0l.4.4,7.58-7.58,3.57-3.56-.41-.4a1.54,1.54,0,0,1,0-2.16c6.89-6.89,19.11,3.7,11.41,11.4a1.52,1.52,0,0,1-2.16,0l.22.22-2.56,2.54L24.72,25l-.19-.19A1.52,1.52,0,0,1,24.51,26.94Z"/><path class="cls-2" d="M12.05,24.92a7.56,7.56,0,0,1,1.06-9.39,1.54,1.54,0,0,1,2.16,0l.4.4,7.58-7.58,3.57-3.56-.41-.4a1.54,1.54,0,0,1,0-2.16,7.56,7.56,0,0,1,9.41-1.07Z"/><path class="cls-1" d="M32.35,18.49c2.22,2,17.59,16.87,22,21.88,3.56,4,.73,6.46-2.87,3.4-4.91-4.2-20.1-20.06-22.13-22.3Z"/><path class="cls-3" d="M6,34.69H31.83a3,3,0,0,1,3.05,2.63l.24,3H2.73l.22-3A3,3,0,0,1,6,34.69Z"/><path class="cls-1" d="M6,34.69H31.83a3,3,0,0,1,3.05,2.63v0H3A3,3,0,0,1,6,34.69Z"/><path class="cls-2" d="M6,34.69H31.83a3.09,3.09,0,0,1,2.63,1.4H3.36A3.11,3.11,0,0,1,6,34.69Z"/><rect class="cls-4" x="19.89" y="7.06" width="11.23" height="15.13" transform="translate(-2.87 22.32) rotate(-45)"/><rect class="cls-5" x="16.43" y="8.49" width="11.23" height="5.33" transform="translate(-1.44 18.85) rotate(-44.98)"/><path class="cls-1" d="M37.87,45l-.17-4a2.85,2.85,0,0,0-2.85-2.72H3A2.83,2.83,0,0,0,.17,41.05L0,45Z"/><path class="cls-2" d="M37.3,39.73a2.84,2.84,0,0,0-2.45-1.4H3a2.85,2.85,0,0,0-2.45,1.4Z"/><rect class="cls-4" x="20.1" y="13.82" width="0.68" height="12.81" transform="translate(-8.32 20.37) rotate(-45)"/><rect class="cls-4" x="30.77" y="3.15" width="0.68" height="12.81" transform="translate(2.32 24.73) rotate(-44.87)"/></g></g></svg>