<svg xmlns="http://www.w3.org/2000/svg" viewBox="0 0 36.79 32.16"><defs><style>.cls-1{fill:#f39b13;}.cls-1,.cls-2{fill-rule:evenodd;}.cls-2,.cls-3{fill:#2c3e50;}</style></defs><title>ico-conquistas4</title><g id="Camada_2" data-name="Camada 2"><g id="Camada_1-2" data-name="Camada 1"><path class="cls-1" d="M19.37.61,28,15.53l8.66,15a1.08,1.08,0,0,1-.4,1.48,1.11,1.11,0,0,1-.55.15H1.09A1.09,1.09,0,0,1,0,31.06a1.05,1.05,0,0,1,.2-.63L17.45.55a1.08,1.08,0,0,1,1.49-.4A1,1,0,0,1,19.37.61Z"/><path class="cls-2" d="M18.4,3.28Q10.69,16.63,3,30H33.81Z"/><polygon class="cls-1" points="18.39 6.42 31.31 28.78 5.49 28.78 18.39 6.42"/><polygon class="cls-2" points="19.79 11.98 19.61 22.03 17.15 22.03 17 11.98 19.79 11.98"/><rect class="cls-3" x="17.13" y="24.28" width="2.54" height="2.75"/></g></g></svg>