<svg xmlns="http://www.w3.org/2000/svg" viewBox="0 0 80 80"><defs><style>.cls-1{fill:#fff;}</style></defs><title>ico-propostas-desigualdades</title><g id="Camada_2" data-name="Camada 2"><g id="Camada_1-2" data-name="Camada 1"><polygon class="cls-1" points="35.22 57.98 35.22 57.86 40.59 49.2 35.22 49.2 35.22 22.02 27.63 22.02 27.63 49.2 22.26 49.2 27.63 57.86 27.63 57.98 27.7 57.98 31.43 63.98 35.15 57.98 35.22 57.98"/><polygon class="cls-1" points="45.52 22.02 45.52 22.14 40.14 30.8 45.52 30.8 45.52 57.98 53.11 57.98 53.11 30.8 58.48 30.8 53.11 22.14 53.11 22.02 53.04 22.02 49.31 16.02 45.59 22.02 45.52 22.02"/><path class="cls-1" d="M80,40A40,40,0,1,0,40,80,40,40,0,0,0,80,40ZM7.6,40A32.4,32.4,0,1,1,40,72.4,32.43,32.43,0,0,1,7.6,40Z"/></g></g></svg>