<svg xmlns="http://www.w3.org/2000/svg" viewBox="0 0 17.05 52.93"><defs><style>.cls-1{fill:#f9cb4d;}.cls-1,.cls-2,.cls-3{fill-rule:evenodd;}.cls-2{fill:#2c3e50;}.cls-3{fill:#3d566f;}</style></defs><title>ico-conquistas1</title><g id="Camada_2" data-name="Camada 2"><g id="Camada_1-2" data-name="Camada 1"><path class="cls-1" d="M3.47.72A18.46,18.46,0,0,1,8.53,0h.09a18.48,18.48,0,0,1,5,.72,4.7,4.7,0,0,1,2.51,1.7,4.77,4.77,0,0,1,1,2.88h0V38.52L9.58,52.31a1.2,1.2,0,0,1-1.64.46,1.12,1.12,0,0,1-.47-.47L0,38.5V5.31A4.72,4.72,0,0,1,3.47.72Z"/><path class="cls-2" d="M5.32,38.27V2.74c-.4.08-.8.18-1.19.29a2.41,2.41,0,0,0-1.25.84A2.36,2.36,0,0,0,2.41,5.3V37.57Z"/><path class="cls-2" d="M12.58,46.76l-3,5.55a1.2,1.2,0,0,1-1.64.46,1.18,1.18,0,0,1-.47-.47l-3-5.47,2.18.78L9.2,45.38Z"/><path class="cls-2" d="M3.47.72A18.46,18.46,0,0,1,8.53,0h.09a18.61,18.61,0,0,1,5,.72,4.71,4.71,0,0,1,2.5,1.7,4.77,4.77,0,0,1,1,2.88h0V38.52l-3.44-1.18L5.51,40,0,38.5V5.3A4.72,4.72,0,0,1,3.47.72Z"/><path class="cls-3" d="M3.47.72a16.62,16.62,0,0,1,2-.46V40L0,38.5V5.31A4.72,4.72,0,0,1,3.47.72Z"/><path class="cls-3" d="M13.61.73a4.69,4.69,0,0,1,2.48,1.69,4.77,4.77,0,0,1,1,2.88h0V38.52l-3.44-1.18Z"/></g></g></svg>