<svg xmlns="http://www.w3.org/2000/svg" viewBox="0 0 62.17 80"><defs><style>.cls-1{fill:#fff;}</style></defs><title>ico-propostas-política</title><g id="Camada_2" data-name="Camada 2"><g id="Camada_1-2" data-name="Camada 1"><path class="cls-1" d="M62.17,0H0V80H62.17ZM55.24,73.07H6.93V6.93H55.24Z"/><polygon class="cls-1" points="16.23 49.95 21.13 54.85 27.62 48.36 27.62 57.54 34.55 57.54 34.55 48.36 41.04 54.85 45.94 49.95 39.45 43.47 48.62 43.47 48.62 36.53 39.45 36.53 45.94 30.05 41.04 25.15 34.55 31.64 34.55 22.46 27.62 22.46 27.62 31.64 21.13 25.15 16.23 30.05 22.72 36.53 13.55 36.53 13.55 43.47 22.72 43.47 16.23 49.95"/></g></g></svg>