<svg xmlns="http://www.w3.org/2000/svg" viewBox="0 0 97.71 99.7"><defs><style>.cls-1{fill:#fff;}</style></defs><title>ico-propostas-inova</title><g id="Camada_2" data-name="Camada 2"><g id="Camada_1-2" data-name="Camada 1"><path class="cls-1" d="M97.71,50.27c0-15.43-5.31-28.45-15.36-37.64A49.47,49.47,0,0,0,48.74,0,49.25,49.25,0,0,0,15.27,12.57C5.28,21.73,0,34.73,0,50.16V53H6.8l.56-1.39a12,12,0,0,1,11.33-8A12.32,12.32,0,0,1,30.18,52l.36,1H37l.36-1a12.65,12.65,0,0,1,7.82-7.81V87.48a19.41,19.41,0,0,0,.08,2.13h-.08a2.75,2.75,0,1,1-5.5,0H32.33a10.09,10.09,0,1,0,20.17,0V44.21A12.66,12.66,0,0,1,60.33,52l.36,1h6.45l.36-1a12,12,0,0,1,22.85-.33L90.87,53h6.84ZM30.54,40.48A19.08,19.08,0,0,0,8.42,39.24,39.28,39.28,0,0,1,20.22,18,40.68,40.68,0,0,1,40.33,8.11C33.86,17.41,31.32,28.11,30.54,40.48Zm18.29-4.19a19.06,19.06,0,0,0-10.91,3.52c.87-12.27,3.67-22.24,10.92-30.74C56.23,17.72,59.11,27.94,60,40A19.08,19.08,0,0,0,48.83,36.29Zm30.15,0a19.11,19.11,0,0,0-11.58,4c-.77-11.2-3.22-22.3-10-32.1,14.49,2.83,28,12.86,31.91,31.13A19.08,19.08,0,0,0,79,36.29Z"/></g></g></svg>