<svg xmlns="http://www.w3.org/2000/svg" viewBox="0 0 38.81 45.9"><defs><style>.cls-1{fill:#f0c310;}.cls-1,.cls-2{fill-rule:evenodd;}.cls-2{fill:#f39b13;}.cls-3{fill:#3d566f;}.cls-4{fill:#2c3e50;}</style></defs><title>ico-conquistas6</title><g id="Camada_2" data-name="Camada 2"><g id="Camada_1-2" data-name="Camada 1"><path class="cls-1" d="M0,0C2,10.6,2.34,25.3,11.76,28.06c7.76,1.87,5.79,9.94,1.66,10.75L7.52,40H31.29l-5.9-1.14c-4.13-.81-6.1-8.89,1.67-10.77C36.48,25.3,36.8,10.6,38.81,0ZM8,2.51c.18,1.91.36,3.84.55,5.76.49,5,1.27,13.32,3.91,17.37C6.27,23.78,4.8,14,3.94,8.68c-.33-2-.62-4.11-.95-6.17ZM26.44,25.62c2.5-3.89,3.36-12.23,3.87-17.35.2-1.92.37-3.84.55-5.76h5c-.33,2.05-.62,4.12-1,6.18-.76,4.72-2.08,12.59-6.09,15.72A7,7,0,0,1,26.44,25.62Z"/><path class="cls-2" d="M31.29,40l-5.9-1.14c-4.13-.81-6.1-8.89,1.67-10.77C36.48,25.3,36.8,10.6,38.81,0H19.41V40ZM26.44,25.62c2.5-3.89,3.36-12.23,3.87-17.35.2-1.92.37-3.84.55-5.76h5c-.33,2.05-.62,4.12-1,6.18-.76,4.72-2.08,12.59-6.09,15.72A7,7,0,0,1,26.44,25.62Z"/><rect class="cls-3" x="5.44" y="39.97" width="27.93" height="5.93"/><rect class="cls-4" x="19.41" y="39.97" width="13.96" height="5.93"/></g></g></svg>