<svg xmlns="http://www.w3.org/2000/svg" viewBox="0 0 48.64 39.02"><defs><style>.cls-1{fill:#3d566f;}.cls-2{fill:#2c3e50;}.cls-2,.cls-3,.cls-4{fill-rule:evenodd;}.cls-3,.cls-5{fill:#ebeff0;}.cls-4,.cls-6{fill:#94a4a5;}</style></defs><title>ico-conquistas2</title><g id="Camada_2" data-name="Camada 2"><g id="Camada_1-2" data-name="Camada 1"><rect class="cls-1" x="4.25" y="11.62" width="40.14" height="26.89"/><path class="cls-2" d="M0,38.5v-2A.54.54,0,0,1,.57,36h47.5a.55.55,0,0,1,.57.52v2a.55.55,0,0,1-.57.52H.57A.55.55,0,0,1,0,38.5Z"/><path class="cls-3" d="M9.33,9.56h30a.22.22,0,0,0,.21-.16.2.2,0,0,0-.12-.23l-15-6.3a.19.19,0,0,0-.18,0l-15,6.3a.2.2,0,0,0-.12.23A.22.22,0,0,0,9.33,9.56Z"/><path class="cls-3" d="M1,10.23,23.64.15A1.62,1.62,0,0,1,25,.15L47.67,10.23a1.59,1.59,0,0,1,1,1.47v1a.57.57,0,0,1-.57.56H.57A.57.57,0,0,1,0,12.69v-1A1.57,1.57,0,0,1,1,10.23Z"/><polygon class="cls-4" points="6.73 10.58 41.91 10.58 24.32 2.76 6.73 10.58"/><rect class="cls-5" x="4.25" y="15.78" width="8.19" height="20.18"/><rect class="cls-6" x="5.16" y="15.78" width="0.91" height="20.18"/><rect class="cls-6" x="8.81" y="15.78" width="0.91" height="20.18"/><rect class="cls-6" x="6.99" y="15.78" width="0.91" height="20.18"/><rect class="cls-6" x="10.63" y="15.78" width="0.91" height="20.18"/><rect class="cls-5" x="20.22" y="15.78" width="8.19" height="20.18"/><rect class="cls-6" x="21.14" y="15.78" width="0.91" height="20.18"/><rect class="cls-6" x="24.78" y="15.78" width="0.91" height="20.18"/><rect class="cls-6" x="22.96" y="15.78" width="0.91" height="20.18"/><rect class="cls-6" x="26.61" y="15.78" width="0.91" height="20.18"/><rect class="cls-5" x="36.2" y="15.78" width="8.19" height="20.18"/><rect class="cls-6" x="37.11" y="15.78" width="0.91" height="20.18"/><rect class="cls-6" x="40.76" y="15.78" width="0.91" height="20.18"/><rect class="cls-6" x="38.94" y="15.78" width="0.91" height="20.18"/><rect class="cls-6" x="42.58" y="15.78" width="0.91" height="20.18"/><rect class="cls-6" x="18.26" y="13.24" width="12.13" height="2.54" rx="0.52" ry="0.52"/><path class="cls-6" d="M2.8,13.24h11.1a.51.51,0,0,1,.51.51v1.51a.52.52,0,0,1-.52.52H2.8a.52.52,0,0,1-.52-.52V13.76A.52.52,0,0,1,2.8,13.24Z"/><rect class="cls-6" x="34.23" y="13.24" width="12.13" height="2.54" rx="0.52" ry="0.52"/></g></g></svg>