<svg xmlns="http://www.w3.org/2000/svg" viewBox="0 0 79.81 80"><defs><style>.cls-1{fill:#fff;}</style></defs><title>ico-propostas-codeputados</title><g id="Camada_2" data-name="Camada 2"><g id="Camada_1-2" data-name="Camada 1"><polygon class="cls-1" points="5.54 69.8 74.27 69.8 74.27 63.42 68.82 63.42 68.82 36.09 62.44 36.09 62.44 63.42 55.96 63.42 55.96 36.09 49.58 36.09 49.58 63.42 43.1 63.42 43.1 36.09 36.72 36.09 36.72 63.42 30.24 63.42 30.24 36.09 23.86 36.09 23.86 63.42 17.37 63.42 17.37 36.09 10.99 36.09 10.99 63.42 5.54 63.42 5.54 69.8"/><rect class="cls-1" x="35.44" y="28.6" width="8.93" height="3.83"/><rect class="cls-1" x="48.3" y="28.6" width="8.93" height="3.83"/><rect class="cls-1" x="61.16" y="28.6" width="8.93" height="3.83"/><rect class="cls-1" x="22.58" y="28.6" width="8.93" height="3.83"/><rect class="cls-1" x="9.72" y="28.6" width="8.93" height="3.83"/><rect class="cls-1" y="73.62" width="79.81" height="6.38"/><polygon class="cls-1" points="79.81 18.12 39.91 0 0 18.12 0 24.95 79.81 24.95 79.81 18.12"/></g></g></svg>