<svg xmlns="http://www.w3.org/2000/svg" viewBox="0 0 114.87 74.33"><defs><style>.cls-1{fill:#fff;}</style></defs><title>ico-propostas-educa</title><g id="Camada_2" data-name="Camada 2"><g id="Camada_1-2" data-name="Camada 1"><path class="cls-1" d="M57.44,0,0,24.79,20.19,33.5V62.24L22,63.46c.65.45,16.1,10.87,35.46,10.87S92.25,63.91,92.9,63.46l1.78-1.22V33.5l5.62-2.43V45L107.11,42V28.14l7.76-3.35Zm0,9L94.13,24.79,57.44,40.62,20.74,24.79Zm29,48.83c-4.28,2.49-15.72,8.33-29,8.33s-24.75-5.85-29-8.33V37.05l29,12.52,29-12.52Z"/><polygon class="cls-1" points="69.31 24.79 57.44 19.66 45.56 24.79 57.44 29.91 69.31 24.79"/></g></g></svg>