<svg xmlns="http://www.w3.org/2000/svg" viewBox="0 0 251.91 142"><defs><style>.cls-1{fill:#005845;}</style></defs><title>logomarina</title><g id="Camada_2" data-name="Camada 2"><g id="Camada_1-2" data-name="Camada 1"><path class="cls-1" d="M3.66,112.55h4l2,5.94h0l2-5.94h4l-4.15,9.26H7.81Z"/><path class="cls-1" d="M16.71,112.55h3.66v9.26H16.71Z"/><path class="cls-1" d="M33.86,118.21a4.34,4.34,0,0,1-1.56,2.88c-.89.67-2.29,1-4.52,1s-6.33-.16-6.33-5,4.11-5,6.33-5,5.6.28,6.08,4H29.74a1.83,1.83,0,0,0-2-1.63c-1.49,0-2.44.74-2.44,2.62s.92,2.62,2.26,2.62a2,2,0,0,0,2.14-1.59Z"/><path class="cls-1" d="M34.64,112.55h9.85v2.26H38.3v1.25h5.75v2.25H38.3v1.25h6.19v2.25H34.64Z"/><path class="cls-1" d="M3.66,71h7.55c2.6,0,3.56,1.17,3.56,3.23,0,1.78-.94,3.15-3.53,3.15H7.32v2.88H3.66Zm3.66,4.13H9.68c.92,0,1.27-.29,1.27-1s-.35-1-1.27-1H7.32Z"/><path class="cls-1" d="M15.91,71h7.7a4.94,4.94,0,0,1,2.2.34,2.54,2.54,0,0,1,1.25,2.24,2,2,0,0,1-1.42,2.12v0a1.52,1.52,0,0,1,1.05,1.43l.15,2a2,2,0,0,0,.46,1.09h-4a5.86,5.86,0,0,1-.19-1.75c0-.69-.27-1.1-.95-1.1H19.57v2.85H15.91ZM19.57,75h2.59c.71,0,1-.28,1-.86s-.45-.87-1.06-.87H19.57Z"/><path class="cls-1" d="M28.39,71h9.84v2.26H32.05v1.24h5.74v2.26H32.05V78h6.18v2.25H28.39Z"/><path class="cls-1" d="M41.78,76.29C40,76,39.25,75,39.25,73.69c0-2.4,2.35-3,5.35-3,4.13,0,5.83,1.07,6,3H46.3a.77.77,0,0,0-.55-.74,3,3,0,0,0-1.15-.19c-1.08,0-1.46.27-1.46.66s.12.43.48.48l4.37.65c1.84.27,3,1.13,3,2.7,0,2.25-1.84,3.32-5.95,3.32-2.81,0-5.89-.39-5.9-3.12h4.41a.71.71,0,0,0,.39.66,2.94,2.94,0,0,0,1.24.2c1.14,0,1.46-.31,1.46-.75,0-.28-.17-.55-.67-.63Z"/><path class="cls-1" d="M52.22,71h3.66v9.26H52.22Z"/><path class="cls-1" d="M56.93,71h7.12c3.14,0,4.8,1.22,4.8,4.63,0,3.26-1.65,4.63-4.72,4.63h-7.2Zm3.66,6.93h2.1A2,2,0,0,0,65,75.59c0-1.46-.68-2.29-2.35-2.29h-2.1Z"/><path class="cls-1" d="M69.89,71h9.84v2.26H73.55v1.24h5.74v2.26H73.55V78h6.18v2.25H69.89Z"/><path class="cls-1" d="M80.94,71h4.18l3.71,5.14h0V71h3.5v9.26h-4L84.47,75h0v5.19h-3.5Z"/><path class="cls-1" d="M96.6,73.3H93.22V71h10.42V73.3h-3.38v6.92H96.6Z"/><path class="cls-1" d="M104.49,71h9.84v2.26h-6.18v1.24h5.74v2.26h-5.74V78h6.18v2.25h-9.84Z"/><path class="cls-1" d="M3.66,128.57H17.45v3.16H8.79v1.75h8v3.16h-8v1.74h8.66v3.16H3.66Z"/><path class="cls-1" d="M19.14,128.57h10c4.4,0,6.72,1.71,6.72,6.49,0,4.56-2.31,6.48-6.61,6.48H19.14Zm5.12,9.7H27.2c2.35,0,3.29-1.16,3.29-3.21s-.94-3.22-3.29-3.22H24.26Z"/><path class="cls-1" d="M37.37,128.57h5.12v7.85c0,1.67,1,2.2,2.64,2.2s2.63-.53,2.63-2.2v-7.85h5.12v8.05c0,4.12-2.48,5.38-7.75,5.38s-7.76-1.26-7.76-5.38Z"/><path class="cls-1" d="M58.79,128.57h6.28l5.52,13H65.14l-.54-1.49H59.26l-.55,1.49H53.26ZM62,132.5h0l-1.53,4.39h3.09Z"/><path class="cls-1" d="M71.61,128.57H82.4a6.84,6.84,0,0,1,3.07.48,3.55,3.55,0,0,1,1.76,3.14,2.86,2.86,0,0,1-2,3v0a2.08,2.08,0,0,1,1.47,2l.22,2.84a2.82,2.82,0,0,0,.64,1.52H82a8.46,8.46,0,0,1-.27-2.45c-.06-1-.38-1.54-1.33-1.54H76.73v4H71.61Zm5.12,5.71h3.63c1,0,1.42-.4,1.42-1.22,0-1-.64-1.22-1.49-1.22H76.73Z"/><path class="cls-1" d="M89.08,128.57h10c4.4,0,6.72,1.71,6.72,6.49,0,4.56-2.3,6.48-6.61,6.48H89.08Zm5.12,9.7h2.94c2.35,0,3.29-1.16,3.29-3.21s-.94-3.22-3.29-3.22H94.2Z"/><path class="cls-1" d="M115.76,128.12c3.11,0,8.86.22,8.86,6.94s-5.75,6.94-8.86,6.94-8.86-.22-8.86-6.94S112.65,128.12,115.76,128.12Zm0,10.61c2.09,0,3.42-1,3.42-3.67s-1.33-3.67-3.42-3.67-3.41,1-3.41,3.67S113.67,138.73,115.76,138.73Z"/><path class="cls-1" d="M140.93,128.57h5.12v7.87c0,3.3-.89,5.56-6.37,5.56-5,0-7-1.22-7-5.89h5.13a5.18,5.18,0,0,0,.23,2c.22.46.58.68,1.31.68,1.09,0,1.56-.6,1.56-2Z"/><path class="cls-1" d="M156.48,128.12c3.11,0,8.86.22,8.86,6.94s-5.75,6.94-8.86,6.94-8.86-.22-8.86-6.94S153.37,128.12,156.48,128.12Zm0,10.61c2.09,0,3.41-1,3.41-3.67s-1.32-3.67-3.41-3.67-3.42,1-3.42,3.67S154.39,138.73,156.48,138.73Z"/><path class="cls-1" d="M166.79,128.57h10.79a6.79,6.79,0,0,1,3.07.48,3.53,3.53,0,0,1,1.77,3.14,2.86,2.86,0,0,1-2,3v0a2.08,2.08,0,0,1,1.47,2l.22,2.84a2.89,2.89,0,0,0,.63,1.52h-5.59a8.46,8.46,0,0,1-.27-2.45c-.06-1-.39-1.54-1.33-1.54h-3.63v4h-5.13Zm5.13,5.71h3.63c1,0,1.42-.4,1.42-1.22,0-1-.64-1.22-1.49-1.22h-3.56Z"/><path class="cls-1" d="M193.49,134.15h7.29v7.39h-2.2l-.58-1.18c-1.33,1.18-3,1.64-5.94,1.64-3.6,0-8.48-.89-8.48-6.89,0-5.68,4.54-7,8.46-7,5.7,0,8.41,1.56,8.81,4.9h-5.78a1.81,1.81,0,0,0-1-1.32,4,4,0,0,0-1.75-.31c-2.09,0-3.41,1-3.41,3.67,0,2.4,1.27,3.67,3.81,3.67,1.67,0,2.51-.66,2.87-1.64h-2.11Z"/><path class="cls-1" d="M202.76,128.57h13.78v3.16h-8.66v1.75h8v3.16h-8v1.74h8.66v3.16H202.76Z"/><path class="cls-1" d="M3.66,86.92H14.13l3.08,10.94h.05l3.09-10.94H30.81v18.82H24.07V92.29H24l-4,13.45H14.42l-4-13.45h-.05v13.45H3.66Z"/><path class="cls-1" d="M39.78,86.92H48.9l8,18.82H49l-.79-2.16H40.46l-.79,2.16H31.76Zm4.58,5.69h0L42.1,99h4.48Z"/><path class="cls-1" d="M57.86,86.92H73.52A10.07,10.07,0,0,1,78,87.6a5.16,5.16,0,0,1,2.56,4.56,4.14,4.14,0,0,1-2.9,4.3v.05a3,3,0,0,1,2.13,2.9l.32,4.11a4.23,4.23,0,0,0,.92,2.22H72.88c-.26-.56-.26-1.37-.39-3.56-.08-1.4-.56-2.24-1.93-2.24H65.29v5.8H57.86Zm7.43,8.27h5.27c1.45,0,2.06-.58,2.06-1.76,0-1.42-.92-1.77-2.16-1.77H65.29Z"/><path class="cls-1" d="M83.82,86.92h7.44v18.82H83.82Z"/><path class="cls-1" d="M93.92,86.92h8.49l7.53,10.44H110V86.92h7.12v18.82H109l-7.91-10.55h0v10.55H93.92Z"/><path class="cls-1" d="M126.1,86.92h9.12l8,18.82h-7.91l-.79-2.16h-7.75l-.79,2.16h-7.91Zm4.59,5.69h-.05L128.42,99h4.48Z"/><path class="cls-1" d="M159.16,97.75c-3.64-.55-5.14-2.66-5.14-5.3,0-4.87,4.77-6.19,10.88-6.19,8.39,0,11.84,2.19,12.1,6.17h-8.64a1.56,1.56,0,0,0-1.14-1.51,6,6,0,0,0-2.32-.39c-2.21,0-3,.55-3,1.34,0,.53.24.87,1,1l8.88,1.32c3.75.55,6.07,2.29,6.07,5.48,0,4.59-3.75,6.75-12.1,6.75-5.72,0-12-.79-12-6.33h9a1.45,1.45,0,0,0,.79,1.35,6.14,6.14,0,0,0,2.53.39c2.32,0,3-.63,3-1.53,0-.55-.34-1.11-1.35-1.26Z"/><path class="cls-1" d="M180.38,86.92h7.43v18.82h-7.43Z"/><path class="cls-1" d="M190.47,86.92h7.43v13.76h11.52v5.06H190.47Z"/><path class="cls-1" d="M206.58,86.92h8.17L218.89,99h.05l4.14-12.07h8.17l-8.44,18.82H215Z"/><path class="cls-1" d="M234.78,86.92h9.12l8,18.82H244l-.79-2.16h-7.75l-.79,2.16h-7.91Zm4.59,5.69h-.05L237.1,99h4.48Z"/><path class="cls-1" d="M16.57,24.78H0V11.18H3.28C12.9,11,17.9,8.91,20.56,1.41h16.5V55.66H16.57Z"/><path class="cls-1" d="M112,15.25c0,6.17-3.67,10.16-9.69,11.18v.15c7.66,1,11.57,6.88,11.57,12.35,0,12.67-10.87,18.14-34.79,18.14-23.77,0-34.63-5.47-34.63-18.14,0-5.47,3.9-11.33,11.41-12.35v-.15c-6-1-9.69-5-9.69-11.18C46.16,2.89,59.45,0,79.15,0,98.69,0,112,2.89,112,15.25ZM67.42,38.86c0,2.89,2.42,5.08,11.73,5.08s11.72-2.19,11.72-5.08c0-4.38-3-5.63-11.72-5.55C70.47,33.23,67.42,34.48,67.42,38.86Zm22-21.35c0-3.36-2.66-4.38-10.4-4.38s-10.4,1-10.4,4.38c0,3.52,2.66,4.54,10.4,4.54S89.47,21,89.47,17.51Z"/></g></g></svg>