<svg xmlns="http://www.w3.org/2000/svg" viewBox="0 0 180 32.3"><defs><style>.cls-1{fill:#00acbe;}.cls-1,.cls-2,.cls-3,.cls-4{fill-rule:evenodd;}.cls-2,.cls-5{fill:#e64011;}.cls-3{fill:#009785;}.cls-4{fill:#474344;}</style></defs><title>logo-rede</title><g id="Camada_2" data-name="Camada 2"><g id="Camada_1-2" data-name="Camada 1"><path class="cls-1" d="M41.8,14.2C32.07,22.12,17.94,30,5.43,27.06c4,2.56,13.09,4.57,15,4.9,8.37,1.57,21.54-2.42,29.3-8.5,3.12-2.52,7.15-5.75,6.3-9.84-2-3.9-3.76-7-5.74-10.88C48.75,7.32,46.26,10.13,41.8,14.2Z"/><path class="cls-2" d="M12.13,6.12A18.28,18.28,0,0,0,7,7.12C2.49,8.86-.33,12.41,0,18.47c.45,4.85,2.69,7.34,5.41,8.6a25.3,25.3,0,0,0,7.11.56C5.3,21.12,7.82,10.23,12.13,6.12Z"/><path class="cls-3" d="M26.73,9.11a39.38,39.38,0,0,0,16.64,3.63c3.48-3.32,5.56-6,6.91-10A5.67,5.67,0,0,0,45.87,0l-.33,0c-4.91.76-9.82,3-14.75,3.37-4-.26-7.24-2.64-11.14-1.29C15,3.65,10.59,5.67,6.93,7.14,14.07,4.57,21.74,7.29,26.73,9.11Z"/><path class="cls-4" d="M79.8,22.06H74.66l-3.55-5.45a8.9,8.9,0,0,1-1.26.09H68.33v5.36H63.89V.52h6c6,0,9.63,2.88,9.63,8.14a6.69,6.69,0,0,1-4.15,6.68l4.47,6.72ZM69.72,12.84c3.61,0,5.2-1.14,5.2-4.18s-1.65-4.25-5.2-4.25H68.33v8.43Z"/><polygon class="cls-4" points="83.34 0.52 97.6 0.52 97.6 4.41 87.78 4.41 87.78 11.26 96.43 11.26 96.43 15.06 87.78 15.06 87.78 18.16 98.04 18.16 98.04 22.06 83.34 22.06 83.34 0.52"/><path class="cls-4" d="M102.16.52h6.62c6.62,0,11.34,4.4,11.34,10.77s-4.68,10.77-11.34,10.77h-6.62V.52Zm6.4,17.64c4.78,0,7-2.85,7-6.87s-2.19-6.88-7-6.88h-2V18.16Z"/><polygon class="cls-4" points="123.86 0.52 138.12 0.52 138.12 4.41 128.29 4.41 128.29 11.26 136.94 11.26 136.94 15.06 128.29 15.06 128.29 18.16 138.56 18.16 138.56 22.06 123.86 22.06 123.86 0.52"/><path class="cls-2" d="M63.89,30.68l.51-.27a1.57,1.57,0,0,0,1.48.9,1.06,1.06,0,0,0,1.19-1c0-.58-.36-.88-1.08-1.2l-.46-.21c-.82-.37-1.27-.77-1.27-1.57A1.4,1.4,0,0,1,65.78,26a1.7,1.7,0,0,1,1.56.86l-.49.3a1.18,1.18,0,0,0-1.07-.62.81.81,0,0,0-.91.82c0,.51.27.74.91,1l.46.21c1,.43,1.45.9,1.45,1.76a1.59,1.59,0,0,1-1.79,1.53A2.1,2.1,0,0,1,63.89,30.68Z"/><path class="cls-2" d="M68.88,29.82V26h.61v3.75a1.46,1.46,0,1,0,2.91,0V26H73v3.8a2.07,2.07,0,0,1-4.13,0Z"/><path class="cls-2" d="M74,30.68l.51-.27a1.57,1.57,0,0,0,1.48.9,1.07,1.07,0,0,0,1.2-1c0-.58-.37-.88-1.09-1.2l-.46-.21c-.82-.37-1.27-.77-1.27-1.57A1.4,1.4,0,0,1,75.88,26a1.7,1.7,0,0,1,1.56.86l-.49.3a1.18,1.18,0,0,0-1.07-.62.81.81,0,0,0-.91.82c0,.51.27.74.91,1l.46.21c1,.43,1.45.9,1.45,1.76A1.59,1.59,0,0,1,76,31.85,2.1,2.1,0,0,1,74,30.68Z"/><polygon class="cls-2" points="80.17 26.57 78.39 26.57 78.39 26.02 82.54 26.02 82.54 26.57 80.77 26.57 80.77 31.78 80.17 31.78 80.17 26.57"/><polygon class="cls-2" points="83.61 26.02 87.12 26.02 87.12 26.57 84.22 26.57 84.22 29.27 86.8 29.27 86.8 29.8 84.22 29.8 84.22 31.24 87.23 31.24 87.23 31.78 83.61 31.78 83.61 26.02"/><path class="cls-2" d="M89.44,27.78c-.16-.2-.39-.54-.39-.54s0,.41,0,.65v3.89h-.58V26h.1L92.06,30c.16.19.4.53.4.53s0-.41,0-.65V26H93v5.82h-.1Z"/><polygon class="cls-2" points="95.82 26.57 94.05 26.57 94.05 26.02 98.2 26.02 98.2 26.57 96.43 26.57 96.43 31.78 95.82 31.78 95.82 26.57"/><path class="cls-2" d="M100.5,26h.1L103,31.78h-.64l-.39-1H99.1l-.39,1h-.6L100.5,26Zm1.29,4.33-1-2.56c-.11-.27-.22-.68-.22-.68s-.12.41-.23.68l-1,2.56Z"/><path class="cls-2" d="M104.14,26h2a1.4,1.4,0,0,1,1.58,1.42,1.1,1.1,0,0,1-.74,1.14,1.48,1.48,0,0,1,1.18,1.51,1.62,1.62,0,0,1-1.82,1.69h-2.16V26Zm2,2.36a.82.82,0,0,0,.93-.91c0-.52-.28-.9-1-.9h-1.31v1.81Zm.12,2.86a1.09,1.09,0,0,0,1.24-1.17,1.11,1.11,0,0,0-1.27-1.17h-1.48v2.34Z"/><rect class="cls-5" x="109.32" y="26.02" width="0.62" height="5.76"/><polygon class="cls-2" points="111.54 26.02 112.15 26.02 112.15 31.24 114.87 31.24 114.87 31.78 111.54 31.78 111.54 26.02"/><rect class="cls-5" x="116.03" y="26.02" width="0.62" height="5.76"/><path class="cls-2" d="M118.25,26h1.4a2.89,2.89,0,1,1,0,5.76h-1.4V26Zm1.35,5.21a2.34,2.34,0,1,0,0-4.66h-.74v4.66Z"/><path class="cls-2" d="M125.54,26h.1l2.44,5.82h-.64l-.39-1h-2.92l-.38,1h-.6L125.54,26Zm1.29,4.33-1-2.56c-.11-.27-.22-.68-.22-.68s-.12.41-.23.68l-1,2.56Z"/><path class="cls-2" d="M129.18,26h1.39a2.89,2.89,0,1,1,0,5.76h-1.39V26Zm1.35,5.21a2.34,2.34,0,1,0,0-4.66h-.74v4.66Z"/><polygon class="cls-2" points="134.94 26.02 138.44 26.02 138.44 26.57 135.55 26.57 135.55 29.27 138.13 29.27 138.13 29.8 135.55 29.8 135.55 31.24 138.56 31.24 138.56 31.78 134.94 31.78 134.94 26.02"/><polygon class="cls-2" points="147.79 4.85 142.46 4.85 142.46 0.53 152.66 0.53 152.66 31.79 147.79 31.79 147.79 4.85"/><path class="cls-2" d="M156.65,22.13c0-4.23,2.75-7.08,6.57-8.32a6.58,6.58,0,0,1-3.86-6.11c0-4.37,4-7.54,9-7.54s9,3.17,9,7.54a6.56,6.56,0,0,1-3.91,6.11C177.29,15.05,180,18,180,22.13c0,5.84-4.6,10.07-11.63,10.07S156.65,28,156.65,22.13ZM175.08,22c0-3.4-2.67-5.89-6.71-5.89s-6.71,2.49-6.71,5.89,2.62,5.93,6.71,5.93,6.71-2.48,6.71-5.93ZM172.55,8.11c0-2.16-1.65-3.72-4.18-3.72S164.18,6,164.18,8.11s1.66,3.77,4.19,3.77S172.55,10.32,172.55,8.11Z"/></g></g></svg>