<svg xmlns="http://www.w3.org/2000/svg" viewBox="0 0 801.25 56.78"><defs><style>.cls-1{fill:#0a7e6f;}.cls-2{fill:#009684;}.cls-3{fill:#fff;}</style></defs><title>presidentedepartidomaisjovem</title><g id="Camada_2" data-name="Camada 2"><g id="Camada_1-2" data-name="Camada 1"><polygon class="cls-1" points="0 56.78 29.44 56.78 46.27 48.37 29.44 8.41 0 8.41 14.72 34.32 0 56.78"/><polygon class="cls-1" points="801.25 56.78 771.81 56.78 754.98 48.37 771.81 8.41 801.25 8.41 786.53 34.32 801.25 56.78"/><rect class="cls-2" x="25.24" width="748.67" height="48.37"/><path class="cls-3" d="M40.66,12.47h8.68a7.85,7.85,0,0,1,5.39,1.68,7.15,7.15,0,0,1,2.59,5.72,7.22,7.22,0,0,1-7.51,7.2H44.3v9.35H40.66ZM44.3,23.64h5.38a3.79,3.79,0,0,0,4-3.87,3.56,3.56,0,0,0-1.54-3.2,4.23,4.23,0,0,0-2.6-.67H44.3Z"/><path class="cls-3" d="M60.62,12.47H70a7.05,7.05,0,0,1,4.88,1.58,6.89,6.89,0,0,1-2.26,11.74l5.55,10.63h-4.3l-5-10.23H64.25V36.42H60.62ZM64.25,23h5.48a3.71,3.71,0,0,0,4.07-3.8,3.22,3.22,0,0,0-1.21-2.72,4,4,0,0,0-2.65-.74H64.25Z"/><path class="cls-3" d="M81.14,12.47H96.45V15.9H84.77v6.83h10V26h-10v7H96.45v3.43H81.14Z"/><path class="cls-3" d="M100.15,30.6A11,11,0,0,0,107,33c3,0,4.74-1.35,4.74-3.33,0-1.68-1-3-3.13-3.23L105.4,26c-4.14-.57-6.36-3.26-6.36-6.73,0-4.1,2.86-7,7.81-7a14.11,14.11,0,0,1,7.77,2.49l-2,3a11.18,11.18,0,0,0-5.92-1.85c-2.22,0-4,1.14-4,3.43,0,1.35,1,2.69,3.4,3.06.64.1,1.55.24,2.69.37,4.48.54,6.57,3.64,6.57,6.9,0,4.41-3.27,7-8.42,7a13.44,13.44,0,0,1-9.15-3.29Z"/><path class="cls-3" d="M119.16,12.47h3.64v24h-3.64Z"/><path class="cls-3" d="M127.84,12.47h8.38a8.12,8.12,0,0,1,7.3,4c1.18,2,1.28,2.93,1.28,7.94,0,5.39-.27,6.33-1.35,8a8.53,8.53,0,0,1-7.46,4h-8.15ZM131.48,33h4.34a5,5,0,0,0,4.44-2.09c.81-1.21.91-1.88.91-6.32s-.1-5.35-1.08-6.66a4.62,4.62,0,0,0-4.27-2h-4.34Z"/><path class="cls-3" d="M149,12.47h15.31V15.9H152.68v6.83h9.95V26h-9.95v7h11.67v3.43H149Z"/><path class="cls-3" d="M167.75,12.47h3.43l10.84,17h.06v-17h3.64v24h-3.44l-10.83-17h-.07v17h-3.63Z"/><path class="cls-3" d="M194.84,15.7h-6.56V12.47H205V15.7h-6.56V36.42h-3.63Z"/><path class="cls-3" d="M207.59,12.47H222.9V15.9H211.22v6.83h10V26h-10v7H222.9v3.43H207.59Z"/><path class="cls-3" d="M234.37,12.47h8.38a8.12,8.12,0,0,1,7.3,4c1.18,2,1.28,2.93,1.28,7.94,0,5.39-.27,6.33-1.35,8a8.53,8.53,0,0,1-7.46,4h-8.15ZM238,33h4.34a5,5,0,0,0,4.44-2.09c.81-1.21.91-1.88.91-6.32s-.1-5.35-1.08-6.66a4.62,4.62,0,0,0-4.27-2H238Z"/><path class="cls-3" d="M255.57,12.47h15.31V15.9H259.2v6.83h10V26h-10v7h11.68v3.43H255.57Z"/><path class="cls-3" d="M282.35,12.47H291a7.84,7.84,0,0,1,5.38,1.68A7.12,7.12,0,0,1,299,19.87a7.22,7.22,0,0,1-7.5,7.2H286v9.35h-3.64ZM286,23.64h5.38a3.8,3.8,0,0,0,4-3.87,3.55,3.55,0,0,0-1.55-3.2,4.22,4.22,0,0,0-2.59-.67H286Z"/><path class="cls-3" d="M312.1,31.07H303l-1.85,5.35h-3.83l8.71-24h3l8.71,24H314Zm-1-3.23-3.47-10.46h-.07l-3.46,10.46Z"/><path class="cls-3" d="M320.34,12.47h9.36a7,7,0,0,1,4.87,1.58,6.9,6.9,0,0,1-2.25,11.74l5.55,10.63h-4.3l-4.95-10.23H324V36.42h-3.64ZM324,23h5.48a3.71,3.71,0,0,0,4.07-3.8,3.22,3.22,0,0,0-1.21-2.72,4,4,0,0,0-2.66-.74H324Z"/><path class="cls-3" d="M344.33,15.7h-6.56V12.47h16.76V15.7H348V36.42h-3.64Z"/><path class="cls-3" d="M357.09,12.47h3.63v24h-3.63Z"/><path class="cls-3" d="M365.77,12.47h8.38a8.12,8.12,0,0,1,7.3,4c1.17,2,1.28,2.93,1.28,7.94,0,5.39-.27,6.33-1.35,8a8.54,8.54,0,0,1-7.47,4h-8.14ZM369.4,33h4.34a5,5,0,0,0,4.44-2.09c.81-1.21.91-1.88.91-6.32s-.1-5.35-1.08-6.66a4.62,4.62,0,0,0-4.27-2H369.4Z"/><path class="cls-3" d="M387.2,16.57a8.69,8.69,0,0,1,15,0c.77,1.41,1,2.12,1,7.87s-.27,6.46-1,7.88a8.7,8.7,0,0,1-15,0c-.77-1.42-1-2.12-1-7.88S386.43,18,387.2,16.57ZM391,31.24a4.8,4.8,0,0,0,7.41,0c.94-1.21,1.21-1.88,1.21-6.8s-.27-5.58-1.21-6.79a4.8,4.8,0,0,0-7.41,0c-.94,1.21-1.21,1.88-1.21,6.79S390.06,30,391,31.24Z"/><path class="cls-3" d="M415.57,12.47H419l6.86,15.61,6.73-15.61H436v24h-3.63V21.48h-.07l-5,11.51h-3l-5-11.51h-.07V36.42h-3.63Z"/><path class="cls-3" d="M453.35,31.07h-9.08l-1.85,5.35h-3.84l8.72-24h3l8.72,24H455.2Zm-1-3.23-3.47-10.46h-.06l-3.47,10.46Z"/><path class="cls-3" d="M461.6,12.47h3.63v24H461.6Z"/><path class="cls-3" d="M470.58,30.6a11,11,0,0,0,6.8,2.39c3,0,4.74-1.35,4.74-3.33,0-1.68-1-3-3.13-3.23L475.83,26c-4.14-.57-6.36-3.26-6.36-6.73,0-4.1,2.86-7,7.81-7a14.11,14.11,0,0,1,7.77,2.49l-2,3a11.18,11.18,0,0,0-5.92-1.85c-2.22,0-4,1.14-4,3.43,0,1.35,1,2.69,3.4,3.06.64.1,1.55.24,2.69.37,4.48.54,6.56,3.64,6.56,6.9,0,4.41-3.26,7-8.41,7a13.42,13.42,0,0,1-9.15-3.29Z"/><path class="cls-3" d="M498.1,31.37A3.85,3.85,0,0,0,501.3,33a4,4,0,0,0,4.14-4.37V12.47h3.63V29a7.52,7.52,0,0,1-7.67,7.63,7.45,7.45,0,0,1-6.22-3.13Z"/><path class="cls-3" d="M514.09,16.57a8.68,8.68,0,0,1,15,0c.78,1.41,1,2.12,1,7.87s-.27,6.46-1,7.88a8.69,8.69,0,0,1-15,0c-.78-1.42-1.05-2.12-1.05-7.88S513.31,18,514.09,16.57Zm3.8,14.67a4.79,4.79,0,0,0,7.4,0c.94-1.21,1.21-1.88,1.21-6.8s-.27-5.58-1.21-6.79a4.79,4.79,0,0,0-7.4,0c-.94,1.21-1.21,1.88-1.21,6.79S517,30,517.89,31.24Z"/><path class="cls-3" d="M531.05,12.47h3.83l5.45,18.23h.07l5.45-18.23h3.83l-7.9,24H539Z"/><path class="cls-3" d="M552.24,12.47h15.31V15.9H555.88v6.83h10V26h-10v7h11.67v3.43H552.24Z"/><path class="cls-3" d="M571,12.47h3.43l6.87,15.61L588,12.47h3.43v24h-3.64V21.48h-.06l-5,11.51h-3l-5-11.51h-.06V36.42H571Z"/><path class="cls-3" d="M604.53,12.47h8.38a8.12,8.12,0,0,1,7.3,4c1.18,2,1.28,2.93,1.28,7.94,0,5.39-.27,6.33-1.35,8a8.54,8.54,0,0,1-7.47,4h-8.14ZM608.17,33h4.34A5,5,0,0,0,617,30.9c.81-1.21.91-1.88.91-6.32s-.1-5.35-1.08-6.66a4.62,4.62,0,0,0-4.27-2h-4.34Z"/><path class="cls-3" d="M626,16.57a8.68,8.68,0,0,1,15,0c.78,1.41,1,2.12,1,7.87s-.26,6.46-1,7.88a8.69,8.69,0,0,1-15,0c-.78-1.42-1.05-2.12-1.05-7.88S625.19,18,626,16.57Zm3.8,14.67a4.79,4.79,0,0,0,7.4,0c.94-1.21,1.21-1.88,1.21-6.8s-.27-5.58-1.21-6.79a4.79,4.79,0,0,0-7.4,0c-.94,1.21-1.21,1.88-1.21,6.79S628.83,30,629.77,31.24Z"/><path class="cls-3" d="M654.33,12.47h9.29c4.67,0,7.1,2.65,7.1,6.42,0,2-.74,3.9-3.54,5.15v.07c2.63.6,3.91,3.09,3.91,5.51a6.55,6.55,0,0,1-6.67,6.8H654.33ZM658,15.7v6.86h5.25c2.63,0,3.87-1.55,3.87-3.43s-1.24-3.43-3.87-3.43Zm0,10.09V33h5.59c2.69,0,3.9-1.72,3.9-3.6s-1.21-3.6-3.9-3.6Z"/><path class="cls-3" d="M674.86,12.47h9.35a7.05,7.05,0,0,1,4.88,1.58,6.89,6.89,0,0,1-2.26,11.74l5.55,10.63h-4.3l-5-10.23h-4.64V36.42h-3.63ZM678.49,23H684a3.72,3.72,0,0,0,4.08-3.8,3.23,3.23,0,0,0-1.22-2.72,4,4,0,0,0-2.65-.74h-5.69Z"/><path class="cls-3" d="M707.66,31.07h-9.08l-1.85,5.35h-3.84l8.72-24h3l8.72,24h-3.84Zm-1-3.23-3.47-10.46h-.06l-3.47,10.46Z"/><path class="cls-3" d="M716.21,30.6A11,11,0,0,0,723,33c3,0,4.74-1.35,4.74-3.33,0-1.68-1-3-3.13-3.23-1.08-.14-1.92-.27-3.16-.44-4.14-.57-6.36-3.26-6.36-6.73,0-4.1,2.86-7,7.8-7a14.14,14.14,0,0,1,7.78,2.49l-2,3a11.18,11.18,0,0,0-5.92-1.85c-2.23,0-4,1.14-4,3.43,0,1.35,1,2.69,3.4,3.06.64.1,1.55.24,2.69.37,4.48.54,6.56,3.64,6.56,6.9,0,4.41-3.26,7-8.41,7a13.42,13.42,0,0,1-9.15-3.29Z"/><path class="cls-3" d="M735.22,12.47h3.63v24h-3.63Z"/><path class="cls-3" d="M743.9,12.47h3.63V33h11.68v3.43H743.9Z"/></g></g></svg>