<svg xmlns="http://www.w3.org/2000/svg" viewBox="0 0 183.99 209"><defs><style>.cls-1{fill:none;stroke:#009244;stroke-miterlimit:10;stroke-width:2px;}.cls-2{fill:#026937;}</style></defs><title>img-nossasprinicipais</title><g id="Camada_2" data-name="Camada 2"><g id="Camada_1-2" data-name="Camada 1"><line class="cls-1" x1="125.15" y1="10" x2="58.15" y2="10"/><line class="cls-1" x1="125.15" y1="5.5" x2="58.15" y2="5.5"/><line class="cls-1" x1="125.15" y1="1" x2="58.15" y2="1"/><line class="cls-1" x1="125.15" y1="208" x2="58.15" y2="208"/><line class="cls-1" x1="125.15" y1="203.5" x2="58.15" y2="203.5"/><line class="cls-1" x1="125.15" y1="199" x2="58.15" y2="199"/><path class="cls-2" d="M32.74,37.23h4.8l7.54,21h.1v-21h5V72.08h-4.7L37.84,51.13h-.1V72.08h-5Z"/><path class="cls-2" d="M54.38,45.45a8.37,8.37,0,1,1,16.74,0V63.86a8.37,8.37,0,1,1-16.74,0Zm5,18.41a3.38,3.38,0,1,0,6.76,0V45.45a3.38,3.38,0,1,0-6.76,0Z"/><path class="cls-2" d="M91.68,47.26h-5V46.14c0-2.31-1-4.21-3.52-4.21-2.74,0-3.38,2.2-3.38,4.5,0,2.69.25,3.62,2.84,4.65l3.82,1.52c4.4,1.66,5.24,4.45,5.24,9.54,0,5.88-2.16,10.23-8.62,10.23a8.23,8.23,0,0,1-8.52-8.27V62.24h5v1.57a3.29,3.29,0,0,0,3.52,3.57c3.38,0,3.62-2,3.62-5.19,0-3.72-.44-4.31-2.89-5.29l-3.57-1.46c-4.31-1.77-5.43-4.61-5.43-9,0-5.29,2.84-9.55,8.56-9.55a8.17,8.17,0,0,1,8.33,7.88Z"/><path class="cls-2" d="M111.55,47.26h-5V46.14c0-2.31-1-4.21-3.52-4.21-2.74,0-3.38,2.2-3.38,4.5,0,2.69.25,3.62,2.84,4.65l3.82,1.52c4.41,1.66,5.24,4.45,5.24,9.54,0,5.88-2.16,10.23-8.62,10.23a8.22,8.22,0,0,1-8.51-8.27V62.24h5v1.57a3.29,3.29,0,0,0,3.52,3.57c3.38,0,3.62-2,3.62-5.19,0-3.72-.44-4.31-2.88-5.29l-3.58-1.46c-4.3-1.77-5.43-4.61-5.43-9,0-5.29,2.84-9.55,8.57-9.55a8.17,8.17,0,0,1,8.32,7.88Z"/><path class="cls-2" d="M120.8,37.23H125l7.78,34.85h-5l-1.47-7.49h-6.8L118,72.08h-5Zm2.1,10h-.1l-2.44,12.63h5Z"/><path class="cls-2" d="M151.34,47.26h-5V46.14c0-2.31-1-4.21-3.53-4.21-2.74,0-3.37,2.2-3.37,4.5,0,2.69.24,3.62,2.83,4.65l3.82,1.52c4.41,1.66,5.24,4.45,5.24,9.54,0,5.88-2.15,10.23-8.62,10.23a8.22,8.22,0,0,1-8.51-8.27V62.24h5v1.57a3.29,3.29,0,0,0,3.52,3.57c3.38,0,3.63-2,3.63-5.19,0-3.72-.44-4.31-2.89-5.29l-3.57-1.46c-4.31-1.77-5.44-4.61-5.44-9,0-5.29,2.84-9.55,8.57-9.55a8.17,8.17,0,0,1,8.32,7.88Z"/><path class="cls-2" d="M8.86,83.84h7.49c2.74,0,4.75.64,6.46,2.45s2.25,4,2.25,8.17c0,3-.24,5.09-1.42,7-1.37,2.26-3.57,3.63-7.24,3.63H13.85v13.6h-5Zm5,16.55h2.4c4.06,0,4.11-2.4,4.11-5.88,0-3.28,0-6-3.91-6h-2.6Z"/><path class="cls-2" d="M28.78,83.84h8c5.92,0,8.81,3.48,8.81,10.23,0,4-1.13,7-4.31,8.72l5.39,15.9H41.41l-4.65-14.88h-3v14.88h-5Zm5,15.57h2.84c3.48,0,4-2,4-5.44s-.59-5.43-4.26-5.43h-2.6Z"/><path class="cls-2" d="M49.78,83.84h5v34.85h-5Z"/><path class="cls-2" d="M59.42,83.84h4.8l7.53,21h.1v-21h5v34.85h-4.7l-7.64-21h-.1v21h-5Z"/><path class="cls-2" d="M97.21,110.91A8.06,8.06,0,0,1,89.28,119c-3.82,0-8.23-1.86-8.23-8.23V91.58a7.79,7.79,0,0,1,8.13-8c4.6,0,8,3.47,8,8.32v2h-5V92.16c0-2-1.17-3.62-3.08-3.62-2.5,0-3.08,1.71-3.08,4.06v17.82c0,2,.78,3.58,3,3.58,1.37,0,3.13-.79,3.13-3.53v-1.71h5Z"/><path class="cls-2" d="M101.41,83.84h5v34.85h-5Z"/><path class="cls-2" d="M111.25,83.84h7.49c2.74,0,4.75.64,6.46,2.45s2.25,4,2.25,8.17c0,3-.24,5.09-1.41,7-1.38,2.26-3.58,3.63-7.25,3.63h-2.54v13.6h-5Zm5,16.55h2.39c4.07,0,4.12-2.4,4.12-5.88,0-3.28,0-6-3.92-6h-2.59Z"/><path class="cls-2" d="M134.89,83.84h4.16l7.79,34.85h-5l-1.46-7.48h-6.81l-1.47,7.48h-5Zm2.11,10h-.1l-2.45,12.63h5Z"/><path class="cls-2" d="M149.43,83.84h5v34.85h-5Z"/><path class="cls-2" d="M175.42,93.88h-5V92.75c0-2.3-1-4.21-3.53-4.21-2.74,0-3.37,2.2-3.37,4.5,0,2.7.24,3.63,2.84,4.65l3.81,1.52c4.41,1.67,5.24,4.46,5.24,9.55,0,5.87-2.15,10.23-8.61,10.23a8.23,8.23,0,0,1-8.52-8.27v-1.86h5v1.56a3.3,3.3,0,0,0,3.53,3.58c3.37,0,3.62-2,3.62-5.19,0-3.72-.44-4.31-2.89-5.29L164,102.05c-4.31-1.76-5.44-4.6-5.44-9,0-5.28,2.84-9.54,8.57-9.54a8.16,8.16,0,0,1,8.32,7.88Z"/><path class="cls-2" d="M16.15,157.53a8,8,0,0,1-7.93,8.07c-3.81,0-8.22-1.86-8.22-8.22V138.19a7.79,7.79,0,0,1,8.13-8c4.6,0,8,3.48,8,8.33v1.95h-5v-1.66c0-2-1.17-3.62-3.08-3.62-2.5,0-3.09,1.71-3.09,4.06V157c0,2,.79,3.57,3,3.57,1.37,0,3.13-.78,3.13-3.52v-1.72h5Z"/><path class="cls-2" d="M19.92,138.68a8.18,8.18,0,0,1,8.37-8.52,8.18,8.18,0,0,1,8.37,8.52v18.41a8.17,8.17,0,0,1-8.37,8.51,8.17,8.17,0,0,1-8.37-8.51Zm5,18.41a3.23,3.23,0,0,0,3.38,3.52,3.23,3.23,0,0,0,3.38-3.52V138.68a3.22,3.22,0,0,0-3.38-3.52,3.22,3.22,0,0,0-3.38,3.52Z"/><path class="cls-2" d="M40.87,130.46h4.8l7.54,21h.09v-21h5v34.85H53.6L46,144.36h-.1v20.95h-5Z"/><path class="cls-2" d="M62.5,138.68a8.37,8.37,0,1,1,16.74,0v18.41a8.16,8.16,0,0,1-.73,3.57l3.08,2.5-2.54,3-2.94-2.4a8.28,8.28,0,0,1-5.24,1.81,8.17,8.17,0,0,1-8.37-8.51Zm5,18.41a3.22,3.22,0,0,0,3.37,3.52,2.73,2.73,0,0,0,1.08-.19L69.7,158.6l2.54-3,2,1.61v-18.5a3.38,3.38,0,1,0-6.75,0Z"/><path class="cls-2" d="M99.8,157.48a8.08,8.08,0,1,1-16.15,0v-27h5V157c0,2.45,1.32,3.62,3.08,3.62s3.09-1.17,3.09-3.62V130.46h5Z"/><path class="cls-2" d="M104.65,130.46h5v34.85h-5Z"/><path class="cls-2" d="M130.64,140.49h-5v-1.12c0-2.3-1-4.21-3.52-4.21-2.74,0-3.38,2.2-3.38,4.5,0,2.69.25,3.62,2.84,4.65l3.82,1.52c4.4,1.66,5.24,4.45,5.24,9.54,0,5.88-2.16,10.23-8.62,10.23a8.23,8.23,0,0,1-8.52-8.27v-1.86h5V157a3.29,3.29,0,0,0,3.52,3.57c3.38,0,3.62-2,3.62-5.19,0-3.72-.44-4.31-2.88-5.29l-3.58-1.46c-4.31-1.77-5.43-4.6-5.43-9,0-5.29,2.84-9.55,8.56-9.55a8.17,8.17,0,0,1,8.33,7.88Z"/><path class="cls-2" d="M137.63,135.16h-5.77v-4.7H148.4v4.7h-5.77v30.15h-5Z"/><path class="cls-2" d="M153.44,130.46h4.16l7.79,34.85h-5l-1.46-7.49h-6.81l-1.47,7.49h-5Zm2.11,10h-.1L153,153.12h5Z"/><path class="cls-2" d="M184,140.49h-5v-1.12c0-2.3-1-4.21-3.52-4.21-2.74,0-3.38,2.2-3.38,4.5,0,2.69.25,3.62,2.84,4.65l3.82,1.52c4.4,1.66,5.24,4.45,5.24,9.54,0,5.88-2.16,10.23-8.62,10.23a8.23,8.23,0,0,1-8.52-8.27v-1.86h5V157a3.29,3.29,0,0,0,3.52,3.57c3.38,0,3.62-2,3.62-5.19,0-3.72-.44-4.31-2.88-5.29l-3.58-1.46c-4.31-1.77-5.43-4.6-5.43-9,0-5.29,2.84-9.55,8.57-9.55A8.17,8.17,0,0,1,184,138Z"/></g></g></svg>