<svg xmlns="http://www.w3.org/2000/svg" viewBox="0 0 142.45 46.39"><defs><style>.cls-1{fill:#fff;}</style></defs><title>pro-codeputados</title><g id="Camada_2" data-name="Camada 2"><g id="Camada_1-2" data-name="Camada 1"><path class="cls-1" d="M4.29,10.8H2.72l-.49,3.49H1l.49-3.49H0V9.75H1.58l.36-2.31H.46V6.39H2.05l.5-3.49H3.79L3.3,6.39H4.87L5.36,2.9H6.61L6.12,6.39H7.59V7.44H6L5.65,9.75H7.12V10.8H5.54L5,14.29H3.79Zm.46-3.36H3.19L2.83,9.75H4.4Z"/><path class="cls-1" d="M8.83,2.9h4.45a3.33,3.33,0,0,1,2.32.75,3.21,3.21,0,0,1,1.14,2.43,3.24,3.24,0,0,1-2.21,3.16l2.64,5H15.12L12.77,9.43H10.56v4.86H8.83Zm1.73,5h2.61a1.77,1.77,0,0,0,1.94-1.81,1.53,1.53,0,0,0-.58-1.29,1.86,1.86,0,0,0-1.26-.36H10.56Z"/><path class="cls-1" d="M18.59,2.9h7.29V4.53H20.32V7.78h4.74V9.32H20.32v3.34h5.56v1.63H18.59Z"/><path class="cls-1" d="M27.49,2.9h1.63L34.28,11h0V2.9H36V14.29H34.4l-5.15-8.1h0v8.1H27.49Z"/><path class="cls-1" d="M38.54,4.85a4.13,4.13,0,0,1,7.14,0c.37.67.5,1,.5,3.75s-.13,3.07-.5,3.74a4.13,4.13,0,0,1-7.14,0c-.36-.67-.49-1-.49-3.74S38.18,5.52,38.54,4.85Zm1.81,7a2.29,2.29,0,0,0,3.53,0c.44-.58.57-.9.57-3.23s-.13-2.66-.57-3.24a2.29,2.29,0,0,0-3.53,0c-.44.58-.57.9-.57,3.24S39.91,11.25,40.35,11.83Z"/><path class="cls-1" d="M46.61,2.9h1.82L51,11.57h0L53.65,2.9h1.83L51.71,14.29H50.37Z"/><path class="cls-1" d="M61.65,11.75H57.33l-.88,2.54H54.62L58.77,2.9h1.44l4.15,11.39H62.53Zm-.49-1.54-1.65-5h0l-1.64,5Z"/><path class="cls-1" d="M65.57,2.9H70a3.34,3.34,0,0,1,2.32.75,3.21,3.21,0,0,1,1.14,2.43,3.25,3.25,0,0,1-2.21,3.16l2.64,5h-2L69.51,9.43H67.3v4.86H65.57Zm1.73,5h2.61a1.76,1.76,0,0,0,1.93-1.81,1.52,1.52,0,0,0-.57-1.29A1.89,1.89,0,0,0,70,4.43H67.3Z"/><path class="cls-1" d="M79.17,2.9h7.28V4.53H80.9V7.78h4.73V9.32H80.9v3.34h5.55v1.63H79.17Zm4-2.9h2.14L83,2.34H81.67Z"/><path class="cls-1" d="M91.9,2.9h1.73V14.29H91.9Z"/><path class="cls-1" d="M96,2.9h1.63l5.16,8.1h0V2.9h1.73V14.29H103l-5.16-8.1h0v8.1H96Z"/><path class="cls-1" d="M107.09,4.85a4.13,4.13,0,0,1,7.14,0c.36.67.49,1,.49,3.75s-.13,3.07-.49,3.74a4.13,4.13,0,0,1-7.14,0c-.37-.67-.5-1-.5-3.74S106.72,5.52,107.09,4.85Zm1.81,7a2.28,2.28,0,0,0,3.52,0c.45-.58.57-.9.57-3.23s-.12-2.66-.57-3.24a2.28,2.28,0,0,0-3.52,0c-.45.58-.58.9-.58,3.24S108.45,11.25,108.9,11.83Z"/><path class="cls-1" d="M115.15,2.9H117l2.59,8.67h0l2.59-8.67H124l-3.76,11.39h-1.35Z"/><path class="cls-1" d="M130.19,11.75h-4.32L125,14.29h-1.82L127.31,2.9h1.44l4.15,11.39h-1.83Zm-.49-1.54-1.65-5h0l-1.65,5Z"/><path class="cls-1" d="M134.11,2.9h4.45a3.34,3.34,0,0,1,2.32.75A3.21,3.21,0,0,1,142,6.08a3.24,3.24,0,0,1-2.21,3.16l2.64,5h-2l-2.35-4.86h-2.21v4.86h-1.73Zm1.73,5h2.61a1.77,1.77,0,0,0,1.94-1.81,1.53,1.53,0,0,0-.58-1.29,1.87,1.87,0,0,0-1.27-.36h-2.7Z"/><path class="cls-1" d="M6.14,24h8.1v1.25H6.14Zm0,3.2h8.1v1.25H6.14Z"/><path class="cls-1" d="M25.87,27.75H21.54l-.87,2.54H18.84L23,18.9h1.44l4.14,11.39H26.75Zm-.5-1.54-1.65-5h0l-1.65,5Z"/><path class="cls-1" d="M29.78,18.9h4.13a3.72,3.72,0,0,1,2.56.8,3.39,3.39,0,0,1,1.24,2.72,3.44,3.44,0,0,1-3.57,3.42H31.51v4.45H29.78Zm1.73,5.31h2.56A1.81,1.81,0,0,0,36,22.37a1.69,1.69,0,0,0-.74-1.52A2,2,0,0,0,34,20.53h-2.5Z"/><path class="cls-1" d="M39.27,18.9h4.45a3.34,3.34,0,0,1,2.32.75A3.28,3.28,0,0,1,45,25.24l2.64,5.05h-2l-2.35-4.86H41v4.86H39.27Zm1.73,5h2.61a1.77,1.77,0,0,0,1.94-1.81A1.53,1.53,0,0,0,45,20.79a1.86,1.86,0,0,0-1.26-.36H41Z"/><path class="cls-1" d="M49,18.9h7.29v1.63H50.76v3.25H55.5v1.54H50.76v3.34h5.56v1.63H49Z"/><path class="cls-1" d="M58.07,27.52a5.26,5.26,0,0,0,3.23,1.14c1.41,0,2.26-.64,2.26-1.58a1.49,1.49,0,0,0-1.49-1.54c-.51-.06-.91-.13-1.5-.21a3.16,3.16,0,0,1-3-3.2c0-1.95,1.36-3.33,3.72-3.33A6.7,6.7,0,0,1,65,20l-1,1.42a5.27,5.27,0,0,0-2.81-.88c-1.06,0-1.91.54-1.91,1.63,0,.64.47,1.28,1.62,1.46.3.05.74.11,1.28.17a3.25,3.25,0,0,1,3.12,3.29c0,2.09-1.55,3.31-4,3.31a6.36,6.36,0,0,1-4.35-1.57Z"/><path class="cls-1" d="M67.11,18.9h7.28v1.63H68.84v3.25h4.74v1.54H68.84v3.34h5.55v1.63H67.11Z"/><path class="cls-1" d="M76,18.9h1.63L82.79,27h0V18.9h1.73V30.29H82.92l-5.15-8.1h0v8.1H76Z"/><path class="cls-1" d="M88.89,20.43H85.77V18.9h8v1.53H90.62v9.86H88.89Z"/><path class="cls-1" d="M99.61,27.75H95.29l-.88,2.54H92.58L96.73,18.9h1.44l4.15,11.39h-1.83Zm-.5-1.54-1.65-5h0l-1.65,5Z"/><path class="cls-1" d="M103.53,18.9h1.63l3.27,7.42,3.2-7.42h1.63V30.29h-1.73v-7.1h0l-2.39,5.47h-1.44l-2.38-5.47h0v7.1h-1.73Z"/><path class="cls-1" d="M115.77,20.85a4.13,4.13,0,0,1,7.14,0c.36.67.49,1,.49,3.75s-.13,3.07-.49,3.74a4.13,4.13,0,0,1-7.14,0c-.37-.67-.5-1-.5-3.74S115.4,21.52,115.77,20.85Zm1.81,7a2.28,2.28,0,0,0,3.52,0c.45-.58.57-.9.57-3.23s-.12-2.66-.57-3.24a2.28,2.28,0,0,0-3.52,0c-.45.58-.58.9-.58,3.24S117.13,27.25,117.58,27.83Z"/><path class="cls-1" d="M125.56,27.52a5.24,5.24,0,0,0,3.23,1.14c1.41,0,2.26-.64,2.26-1.58a1.5,1.5,0,0,0-1.49-1.54c-.51-.06-.91-.13-1.5-.21a3.16,3.16,0,0,1-3-3.2c0-1.95,1.36-3.33,3.71-3.33a6.68,6.68,0,0,1,3.7,1.19l-1,1.42a5.3,5.3,0,0,0-2.82-.88c-1,0-1.9.54-1.9,1.63,0,.64.46,1.28,1.62,1.46.3.05.73.11,1.28.17a3.25,3.25,0,0,1,3.12,3.29c0,2.09-1.55,3.31-4,3.31a6.39,6.39,0,0,1-4.36-1.57Z"/><path class="cls-1" d="M8.31,36.85a4.13,4.13,0,0,1,7.14,0c.37.67.5,1,.5,3.75s-.13,3.07-.5,3.74a4.13,4.13,0,0,1-7.14,0c-.37-.67-.49-1-.49-3.74S7.94,37.52,8.31,36.85Zm1.81,7a2.28,2.28,0,0,0,3.52,0c.45-.58.58-.9.58-3.23s-.13-2.66-.58-3.24a2.28,2.28,0,0,0-3.52,0c-.45.58-.58.9-.58,3.24S9.67,43.25,10.12,43.83Z"/><path class="cls-1" d="M18.1,43.52a5.27,5.27,0,0,0,3.24,1.14c1.41,0,2.25-.64,2.25-1.58a1.49,1.49,0,0,0-1.48-1.54c-.52-.06-.92-.13-1.51-.21a3.15,3.15,0,0,1-3-3.2c0-2,1.36-3.33,3.71-3.33A6.68,6.68,0,0,1,25,36l-1,1.42a5.33,5.33,0,0,0-2.82-.88c-1.06,0-1.91.54-1.91,1.63,0,.64.47,1.28,1.62,1.46.31.05.74.11,1.28.17a3.25,3.25,0,0,1,3.12,3.29c0,2.09-1.55,3.31-4,3.31A6.36,6.36,0,0,1,17,44.82Z"/><path class="cls-1" d="M38.67,43.11a3.92,3.92,0,0,1-4,3.28,4,4,0,0,1-3.57-2c-.37-.67-.5-1-.5-3.74s.13-3.08.5-3.75a4.09,4.09,0,0,1,7.57,1.33H36.84a2.3,2.3,0,0,0-2.17-1.65,2.18,2.18,0,0,0-1.76.83c-.45.58-.58.9-.58,3.24s.13,2.65.58,3.23a2.18,2.18,0,0,0,1.76.83,2.34,2.34,0,0,0,2.17-1.55Z"/><path class="cls-1" d="M40,36.85a4.13,4.13,0,0,1,7.14,0c.37.67.5,1,.5,3.75s-.13,3.07-.5,3.74a4.13,4.13,0,0,1-7.14,0c-.37-.67-.49-1-.49-3.74S39.62,37.52,40,36.85Zm1.81,7a2.28,2.28,0,0,0,3.52,0c.45-.58.58-.9.58-3.23s-.13-2.66-.58-3.24a2.28,2.28,0,0,0-3.52,0c-.45.58-.58.9-.58,3.24S41.35,43.25,41.8,43.83Z"/><path class="cls-1" d="M49.64,34.9h4a3.86,3.86,0,0,1,3.47,1.92c.56,1,.61,1.39.61,3.78,0,2.56-.13,3-.64,3.8a4.07,4.07,0,0,1-3.56,1.89H49.64Zm1.73,9.76h2.06a2.39,2.39,0,0,0,2.12-1c.38-.58.43-.9.43-3s0-2.55-.51-3.17a2.22,2.22,0,0,0-2-1H51.37Z"/><path class="cls-1" d="M59.72,34.9H67v1.63H61.45v3.25h4.74v1.54H61.45v3.34H67v1.63H59.72Z"/><path class="cls-1" d="M68.62,34.9h4.13a3.74,3.74,0,0,1,2.56.8,3.39,3.39,0,0,1,1.23,2.72A3.43,3.43,0,0,1,73,41.84H70.34v4.45H68.62Zm1.72,5.31h2.57a1.8,1.8,0,0,0,1.9-1.84,1.67,1.67,0,0,0-.74-1.52,2,2,0,0,0-1.23-.32h-2.5Z"/><path class="cls-1" d="M77.9,34.9h1.72v7.34a2.33,2.33,0,1,0,4.65,0V34.9H86v7.54a4.05,4.05,0,0,1-8.1,0Z"/><path class="cls-1" d="M90.12,36.43H87V34.9h8v1.53H91.85v9.86H90.12Z"/><path class="cls-1" d="M100.84,43.75H96.52l-.88,2.54H93.82L98,34.9H99.4l4.15,11.39h-1.83Zm-.49-1.54-1.65-5h0l-1.65,5Z"/><path class="cls-1" d="M104.76,34.9h4a3.86,3.86,0,0,1,3.47,1.92c.56,1,.61,1.39.61,3.78,0,2.56-.13,3-.64,3.8a4.07,4.07,0,0,1-3.56,1.89h-3.87Zm1.73,9.76h2.06a2.39,2.39,0,0,0,2.12-1c.38-.58.43-.9.43-3s0-2.55-.51-3.17a2.22,2.22,0,0,0-2-1h-2.06Z"/><path class="cls-1" d="M122.44,37.68h1.06l-1.28,4.15a2.58,2.58,0,0,0-.16.81c0,.28.09.47.37.47.91,0,2.16-1.91,2.16-3.44,0-2.1-1.75-3.62-4.28-3.62a4.49,4.49,0,0,0-4.81,4.51,4.54,4.54,0,0,0,4.89,4.58,5.14,5.14,0,0,0,4-1.49h1a6.09,6.09,0,0,1-5.28,2.74,5.8,5.8,0,1,1,0-11.59c3.08,0,5.6,2,5.6,4.79s-2.28,4.48-3.64,4.48a1.15,1.15,0,0,1-1.28-1h0a2.35,2.35,0,0,1-4.29-1.4c0-2.12,1.54-4.39,3.83-4.39a1.89,1.89,0,0,1,1.81,1.25h0ZM119.21,43c1.39,0,2.5-2,2.5-3.28a1.38,1.38,0,0,0-1.3-1.42c-1.51,0-2.58,1.9-2.58,3.21A1.39,1.39,0,0,0,119.21,43Z"/><path class="cls-1" d="M127.78,43.52A5.27,5.27,0,0,0,131,44.66c1.4,0,2.25-.64,2.25-1.58a1.49,1.49,0,0,0-1.49-1.54c-.51-.06-.91-.13-1.5-.21a3.16,3.16,0,0,1-3-3.2c0-2,1.37-3.33,3.72-3.33a6.68,6.68,0,0,1,3.7,1.19l-1,1.42a5.33,5.33,0,0,0-2.82-.88c-1.06,0-1.91.54-1.91,1.63,0,.64.47,1.28,1.62,1.46.3.05.74.11,1.28.17A3.25,3.25,0,0,1,135,43.08c0,2.09-1.55,3.31-4,3.31a6.36,6.36,0,0,1-4.35-1.57Z"/></g></g></svg>