<svg xmlns="http://www.w3.org/2000/svg" viewBox="0 0 105.38 63.11"><defs><style>.cls-1{fill:#fff;}</style></defs><title>pro-cidades</title><g id="Camada_2" data-name="Camada 2"><g id="Camada_1-2" data-name="Camada 1"><path class="cls-1" d="M7.92,8H6.35l-.49,3.49H4.61L5.1,8H3.63V7H5.22l.35-2.31H4.1v-1H5.68L6.18.1H7.42L6.93,3.59H8.5L9,.1h1.25L9.75,3.59h1.47v1H9.63L9.28,7h1.47V8H9.17l-.5,3.49H7.42Zm.46-3.36H6.82L6.46,7H8Z"/><path class="cls-1" d="M12.46.1h7.29V1.73H14.19V5.09h4.74V6.63H14.19v4.86H12.46Z"/><path class="cls-1" d="M21.17,2.05a4.13,4.13,0,0,1,7.14,0c.36.67.49,1,.49,3.74s-.13,3.08-.49,3.75a4.13,4.13,0,0,1-7.14,0c-.37-.67-.5-1-.5-3.75S20.8,2.72,21.17,2.05ZM23,9A2.28,2.28,0,0,0,26.5,9c.45-.58.57-.9.57-3.24S27,3.14,26.5,2.56a2.28,2.28,0,0,0-3.52,0c-.45.58-.58.9-.58,3.23S22.53,8.45,23,9Z"/><path class="cls-1" d="M30.82.1h4.45a3.34,3.34,0,0,1,2.32.75,3.2,3.2,0,0,1,1.13,2.43,3.22,3.22,0,0,1-2.21,3.15l2.64,5.06h-2L34.75,6.63H32.54v4.86H30.82Zm1.72,5h2.61a1.77,1.77,0,0,0,1.94-1.81A1.54,1.54,0,0,0,36.51,2a1.91,1.91,0,0,0-1.26-.35H32.54Z"/><path class="cls-1" d="M42.22,1.63H39.1V.1h8V1.63H44v9.86H42.22Z"/><path class="cls-1" d="M53,9H48.62l-.88,2.54H45.92L50.06.1H51.5l4.15,11.39H53.83Zm-.5-1.54-1.65-5h0l-1.65,5Z"/><path class="cls-1" d="M56.86.1h1.73V9.86h5.56v1.63H56.86Z"/><path class="cls-1" d="M65.76.1H73V1.73H67.49V5h4.74V6.51H67.49V9.86H73v1.63H65.76Z"/><path class="cls-1" d="M82.34,8.31a3.92,3.92,0,0,1-4,3.28,4,4,0,0,1-3.57-2.05c-.37-.67-.5-1-.5-3.75s.13-3.07.5-3.74a4.09,4.09,0,0,1,7.57,1.33H80.51a2.3,2.3,0,0,0-2.17-1.65,2.18,2.18,0,0,0-1.76.83c-.45.58-.58.9-.58,3.23s.13,2.66.58,3.24a2.18,2.18,0,0,0,1.76.83,2.34,2.34,0,0,0,2.17-1.55Z"/><path class="cls-1" d="M83.55.1h7.28V1.73H85.28V5H90V6.51H85.28V9.86h5.55v1.63H83.55Z"/><path class="cls-1" d="M92.45.1H96.9a3.34,3.34,0,0,1,2.32.75,3.2,3.2,0,0,1,1.13,2.43,3.22,3.22,0,0,1-2.2,3.15l2.64,5.06H98.74L96.38,6.63h-2.2v4.86H92.45Zm1.73,5h2.6a1.77,1.77,0,0,0,1.94-1.81A1.56,1.56,0,0,0,98.15,2a1.94,1.94,0,0,0-1.27-.35h-2.7Z"/><path class="cls-1" d="M17.58,25H13.26l-.88,2.54H10.55L14.7,16.1h1.44l4.14,11.39H18.46Zm-.5-1.54-1.65-5h0l-1.65,5Z"/><path class="cls-1" d="M21.64,24.72a5.24,5.24,0,0,0,3.23,1.14c1.41,0,2.26-.64,2.26-1.58a1.48,1.48,0,0,0-1.49-1.54l-1.5-.21a3.16,3.16,0,0,1-3-3.2c0-1.95,1.36-3.33,3.71-3.33a6.75,6.75,0,0,1,3.7,1.18l-1,1.43a5.3,5.3,0,0,0-2.82-.88c-1,0-1.9.54-1.9,1.63,0,.64.46,1.28,1.62,1.46.3.05.73.11,1.28.17a3.25,3.25,0,0,1,3.12,3.29c0,2.09-1.55,3.31-4,3.31A6.39,6.39,0,0,1,20.5,26Z"/><path class="cls-1" d="M42.2,24.31a3.92,3.92,0,0,1-4,3.28,4.07,4.07,0,0,1-3.57-2.05c-.37-.67-.49-1-.49-3.75s.12-3.07.49-3.74A4.07,4.07,0,0,1,38.2,16a4,4,0,0,1,4,3.38H40.38a2.3,2.3,0,0,0-2.18-1.65,2.18,2.18,0,0,0-1.76.83c-.45.58-.58.9-.58,3.23s.13,2.66.58,3.24a2.18,2.18,0,0,0,1.76.83,2.35,2.35,0,0,0,2.18-1.55Z"/><path class="cls-1" d="M43.42,16.1h1.72V27.49H43.42Z"/><path class="cls-1" d="M47.54,16.1h4A3.85,3.85,0,0,1,55,18c.56,1,.61,1.39.61,3.77,0,2.57-.13,3-.64,3.81a4.06,4.06,0,0,1-3.55,1.89H47.54Zm1.73,9.76h2.07a2.38,2.38,0,0,0,2.11-1c.38-.58.43-.9.43-3s-.05-2.55-.51-3.17a2.21,2.21,0,0,0-2-1H49.27Z"/><path class="cls-1" d="M63.18,25H58.86L58,27.49H56.15L60.3,16.1h1.44l4.14,11.39H64.06Zm-.5-1.54-1.65-5h0l-1.65,5Z"/><path class="cls-1" d="M67.09,16.1h4A3.85,3.85,0,0,1,74.55,18c.56,1,.61,1.39.61,3.77,0,2.57-.13,3-.64,3.81A4.06,4.06,0,0,1,71,27.49H67.09Zm1.73,9.76h2.07a2.38,2.38,0,0,0,2.11-1c.39-.58.43-.9.43-3s0-2.55-.51-3.17a2.2,2.2,0,0,0-2-1H68.82Z"/><path class="cls-1" d="M77.17,16.1h7.29v1.63H78.9V21h4.74v1.53H78.9v3.35h5.56v1.63H77.17Z"/><path class="cls-1" d="M86.21,24.72a5.27,5.27,0,0,0,3.24,1.14c1.41,0,2.26-.64,2.26-1.58a1.49,1.49,0,0,0-1.49-1.54l-1.51-.21a3.15,3.15,0,0,1-3-3.2c0-1.95,1.36-3.33,3.71-3.33a6.75,6.75,0,0,1,3.7,1.18l-1,1.43a5.33,5.33,0,0,0-2.82-.88c-1.06,0-1.9.54-1.9,1.63,0,.64.46,1.28,1.61,1.46.31.05.74.11,1.28.17a3.25,3.25,0,0,1,3.12,3.29c0,2.09-1.55,3.31-4,3.31A6.36,6.36,0,0,1,85.08,26Z"/><path class="cls-1" d="M0,32.1H7.28v1.63H1.73V37H6.47v1.53H1.73v3.35H7.28v1.63H0Z"/><path class="cls-1" d="M18.58,41H14.26l-.88,2.54H11.55L15.7,32.1h1.44l4.14,11.39H19.46Zm-.5-1.54-1.65-5h0l-1.65,5Z"/><path class="cls-1" d="M32.71,42.6a4.1,4.1,0,0,1-2.69,1,4,4,0,0,1-3.57-2.05c-.37-.67-.5-1-.5-3.75s.13-3.07.5-3.74a4.13,4.13,0,0,1,7.14,0c.36.67.49,1,.49,3.74,0,2.47-.09,3-.41,3.57l1.5,1.2-1,1.19Zm-2.87-2.29,1-1.19,1.32,1.06a9.64,9.64,0,0,0,.16-2.39c0-2.33-.12-2.65-.57-3.23a2.28,2.28,0,0,0-3.52,0c-.45.58-.58.9-.58,3.23s.13,2.66.58,3.24a2.18,2.18,0,0,0,1.76.83,2.12,2.12,0,0,0,1.28-.4Z"/><path class="cls-1" d="M35.79,32.1h1.73v7.34a2.32,2.32,0,1,0,4.64,0V32.1h1.73v7.53a4.05,4.05,0,0,1-8.1,0Z"/><path class="cls-1" d="M51.52,41H47.2l-.88,2.54H44.49L48.64,32.1h1.44l4.15,11.39H52.4ZM51,39.41l-1.65-5h0l-1.64,5Z"/><path class="cls-1" d="M55.44,32.1h1.73v9.76h5.55v1.63H55.44Z"/><path class="cls-1" d="M64.33,32.1h1.73V43.49H64.33Z"/><path class="cls-1" d="M68.46,32.1h4A3.85,3.85,0,0,1,75.92,34c.56,1,.61,1.39.61,3.77,0,2.57-.13,3-.64,3.81a4.06,4.06,0,0,1-3.55,1.89H68.46Zm1.73,9.76h2.07a2.38,2.38,0,0,0,2.11-1c.38-.58.43-.9.43-3s0-2.55-.51-3.17a2.21,2.21,0,0,0-2-1H70.19Z"/><path class="cls-1" d="M84.1,41H79.78l-.88,2.54H77.07L81.22,32.1h1.44L86.8,43.49H85Zm-.5-1.54-1.65-5h0l-1.65,5Z"/><path class="cls-1" d="M88,32.1h4A3.85,3.85,0,0,1,95.47,34c.56,1,.61,1.39.61,3.77,0,2.57-.13,3-.64,3.81a4.06,4.06,0,0,1-3.55,1.89H88Zm1.73,9.76h2.07a2.38,2.38,0,0,0,2.11-1c.39-.58.43-.9.43-3s0-2.55-.51-3.17a2.2,2.2,0,0,0-2-1H89.74Z"/><path class="cls-1" d="M98.09,32.1h7.29v1.63H99.82V37h4.74v1.53H99.82v3.35h5.56v1.63H98.09Z"/><path class="cls-1" d="M2.86,48.1h4A3.84,3.84,0,0,1,10.31,50c.57,1,.61,1.39.61,3.77,0,2.57-.13,3-.64,3.81a4,4,0,0,1-3.55,1.89H2.86Zm1.72,9.76H6.65a2.37,2.37,0,0,0,2.11-1c.39-.58.43-.9.43-3s0-2.55-.51-3.17a2.2,2.2,0,0,0-2-1H4.58Z"/><path class="cls-1" d="M13.05,50.05a4.13,4.13,0,0,1,7.14,0c.36.67.49,1,.49,3.74s-.13,3.08-.49,3.75a4.13,4.13,0,0,1-7.14,0c-.37-.67-.5-1-.5-3.75S12.68,50.72,13.05,50.05Zm1.81,7a2.28,2.28,0,0,0,3.52,0c.45-.58.57-.9.57-3.24s-.12-2.65-.57-3.23a2.28,2.28,0,0,0-3.52,0c-.45.58-.58.9-.58,3.23S14.41,56.45,14.86,57Z"/><path class="cls-1" d="M22.84,56.72a5.24,5.24,0,0,0,3.23,1.14c1.41,0,2.26-.64,2.26-1.58a1.48,1.48,0,0,0-1.49-1.54l-1.5-.21a3.16,3.16,0,0,1-3-3.2C22.31,49.38,23.67,48,26,48a6.75,6.75,0,0,1,3.7,1.18l-1,1.43a5.3,5.3,0,0,0-2.82-.88c-1.05,0-1.9.54-1.9,1.63,0,.64.46,1.28,1.62,1.46.3,0,.73.11,1.28.17a3.25,3.25,0,0,1,3.12,3.29c0,2.09-1.55,3.31-4,3.31A6.39,6.39,0,0,1,21.7,58Z"/><path class="cls-1" d="M35.86,56.72a5.27,5.27,0,0,0,3.24,1.14c1.4,0,2.25-.64,2.25-1.58a1.48,1.48,0,0,0-1.49-1.54l-1.5-.21a3.16,3.16,0,0,1-3-3.2c0-1.95,1.37-3.33,3.72-3.33a6.75,6.75,0,0,1,3.7,1.18l-1,1.43A5.33,5.33,0,0,0,39,49.73c-1.06,0-1.91.54-1.91,1.63,0,.64.47,1.28,1.62,1.46.3,0,.74.11,1.28.17a3.25,3.25,0,0,1,3.12,3.29c0,2.09-1.55,3.31-4,3.31A6.36,6.36,0,0,1,34.73,58Z"/><path class="cls-1" d="M44.9,48.1h7.29v1.63H46.63V53h4.74v1.53H46.63v3.35h5.56v1.63H44.9Z"/><path class="cls-1" d="M53.8,48.1h4.45a3.34,3.34,0,0,1,2.32.75,3.27,3.27,0,0,1-1.07,5.58l2.64,5.06h-2l-2.35-4.86H55.53v4.86H53.8Zm1.73,5h2.61a1.76,1.76,0,0,0,1.93-1.81A1.56,1.56,0,0,0,59.5,50a1.94,1.94,0,0,0-1.27-.35h-2.7Z"/><path class="cls-1" d="M62.09,48.1h1.82l2.59,8.67h0l2.59-8.67H71L67.19,59.49H65.85Z"/><path class="cls-1" d="M72.17,48.1H73.9V59.49H72.17Z"/><path class="cls-1" d="M79.74,59.59a4.09,4.09,0,0,1-3.33-2.05c-.37-.67-.5-1-.5-3.75s.13-3.07.5-3.74A4.09,4.09,0,0,1,84,51.38H82.15A2.3,2.3,0,0,0,80,49.73a2.18,2.18,0,0,0-1.76.83c-.45.58-.58.9-.58,3.23s.13,2.66.58,3.24a2.18,2.18,0,0,0,1.76.83,2.34,2.34,0,0,0,2.17-1.55H84a3.9,3.9,0,0,1-3.41,3.25l-.67.89h0a1.58,1.58,0,0,1,.43-.06,1.27,1.27,0,0,1,1.41,1.22c0,1-.93,1.5-2,1.5a4.94,4.94,0,0,1-1.62-.38l.29-.68a3.3,3.3,0,0,0,1.12.24c.55,0,.93-.19.93-.67s-.35-.59-.78-.59a1.1,1.1,0,0,0-.61.18l-.35-.31Z"/><path class="cls-1" d="M85.3,50.05a4.13,4.13,0,0,1,7.14,0c.37.67.5,1,.5,3.74s-.13,3.08-.5,3.75a4.13,4.13,0,0,1-7.14,0c-.37-.67-.49-1-.49-3.75S84.93,50.72,85.3,50.05Zm1.81,7a2.28,2.28,0,0,0,3.52,0c.45-.58.58-.9.58-3.24s-.13-2.65-.58-3.23a2.28,2.28,0,0,0-3.52,0c-.45.58-.57.9-.57,3.23S86.66,56.45,87.11,57Z"/><path class="cls-1" d="M95.09,56.72a5.27,5.27,0,0,0,3.24,1.14c1.41,0,2.25-.64,2.25-1.58a1.48,1.48,0,0,0-1.48-1.54l-1.51-.21a3.15,3.15,0,0,1-3-3.2c0-1.95,1.36-3.33,3.71-3.33a6.75,6.75,0,0,1,3.7,1.18l-1,1.43a5.33,5.33,0,0,0-2.82-.88c-1.06,0-1.91.54-1.91,1.63,0,.64.47,1.28,1.62,1.46.31,0,.74.11,1.28.17a3.25,3.25,0,0,1,3.12,3.29c0,2.09-1.55,3.31-4,3.31A6.36,6.36,0,0,1,94,58Z"/></g></g></svg>