<svg xmlns="http://www.w3.org/2000/svg" viewBox="0 0 108.71 62.17"><defs><style>.cls-1{fill:#fff;}</style></defs><title>pro-saneamento</title><g id="Camada_2" data-name="Camada 2"><g id="Camada_1-2" data-name="Camada 1"><path class="cls-1" d="M17.79,10.58H16.22l-.5,3.49H14.47l.5-3.49H13.5V9.52h1.58l.35-2.3H14V6.16h1.58L16,2.67h1.25l-.5,3.49h1.57l.5-3.49h1.25l-.5,3.49h1.47V7.22H19.5l-.35,2.3h1.47v1.06H19l-.49,3.49H17.29Zm.46-3.36H16.68l-.35,2.3H17.9Z"/><path class="cls-1" d="M22.33,2.67h4.13a3.79,3.79,0,0,1,2.56.8A3.39,3.39,0,0,1,30.25,6.2a3.44,3.44,0,0,1-3.57,3.42H24.06v4.45H22.33ZM24.06,8h2.56a1.8,1.8,0,0,0,1.9-1.84,1.68,1.68,0,0,0-.73-1.52,2,2,0,0,0-1.24-.32H24.06Z"/><path class="cls-1" d="M31.82,2.67h4.44a3.36,3.36,0,0,1,2.33.76,3.18,3.18,0,0,1,1.13,2.43A3.22,3.22,0,0,1,37.51,9l2.64,5.06h-2L35.75,9.2H33.54v4.87H31.82Zm1.72,5h2.61a1.77,1.77,0,0,0,1.94-1.81,1.54,1.54,0,0,0-.58-1.3,1.91,1.91,0,0,0-1.26-.35H33.54Z"/><path class="cls-1" d="M41.69,4.63a4.13,4.13,0,0,1,7.14,0c.36.67.49,1,.49,3.74s-.13,3.08-.49,3.75a4.13,4.13,0,0,1-7.14,0c-.37-.67-.5-1-.5-3.75S41.32,5.3,41.69,4.63Zm1.81,7a2.28,2.28,0,0,0,3.52,0c.44-.58.57-.9.57-3.24S47.46,5.71,47,5.14a2.28,2.28,0,0,0-3.52,0c-.45.57-.58.9-.58,3.23S43.05,11,43.5,11.61Z"/><path class="cls-1" d="M53,4.21H49.86V2.67h8V4.21H54.71v9.86H53Z"/><path class="cls-1" d="M59.05,2.67h7.28V4.31H60.78V7.55h4.73V9.09H60.78v3.35h5.55v1.63H59.05Z"/><path class="cls-1" d="M71.38,14.17a4.11,4.11,0,0,1-3.33-2.05c-.36-.67-.49-1-.49-3.75s.13-3.07.49-3.74A4.1,4.1,0,0,1,75.63,6H73.8a2.29,2.29,0,0,0-2.18-1.65,2.21,2.21,0,0,0-1.76.83c-.44.57-.57.9-.57,3.23s.13,2.66.57,3.24a2.24,2.24,0,0,0,1.76.83,2.35,2.35,0,0,0,2.18-1.56h1.83a3.89,3.89,0,0,1-3.41,3.25l-.68.9h0A1.58,1.58,0,0,1,72,15a1.27,1.27,0,0,1,1.41,1.21c0,1-.93,1.51-2,1.51a4.73,4.73,0,0,1-1.62-.39l.29-.67a3.3,3.3,0,0,0,1.12.24c.54,0,.93-.19.93-.67s-.35-.59-.79-.59a1.06,1.06,0,0,0-.6.17l-.36-.3Z"/><path class="cls-1" d="M82.68,11.53H78.36l-.88,2.54H75.65L79.8,2.67h1.44l4.15,11.4H83.56ZM77.67,2A1.9,1.9,0,0,1,79.48.1c.8,0,1.52.61,2.18.61.3,0,.64-.12.75-.71h1c-.18,1-.69,1.86-1.76,1.86-.82,0-1.67-.6-2.31-.6a.66.66,0,0,0-.67.69Zm4.52,8L80.54,5h0l-1.64,5Z"/><path class="cls-1" d="M86.42,4.63a4.13,4.13,0,0,1,7.14,0c.37.67.5,1,.5,3.74s-.13,3.08-.5,3.75a4.13,4.13,0,0,1-7.14,0c-.37-.67-.49-1-.49-3.75S86.05,5.3,86.42,4.63Zm1.81,7a2.28,2.28,0,0,0,3.52,0c.45-.58.58-.9.58-3.24s-.13-2.66-.58-3.23a2.28,2.28,0,0,0-3.52,0c-.45.57-.57.9-.57,3.23S87.78,11,88.23,11.61Z"/><path class="cls-1" d="M20.66,27.53H16.34l-.88,2.54H13.63l4.15-11.4h1.44l4.14,11.4H21.54ZM20.16,26l-1.65-5h0l-1.65,5Z"/><path class="cls-1" d="M24.58,18.67h1.63l3.26,7.43,3.2-7.43h1.64v11.4H32.58V23h0l-2.39,5.48H28.72L26.34,23h0v7.11H24.58Z"/><path class="cls-1" d="M36.7,18.67h4.42c2.23,0,3.38,1.27,3.38,3.06a2.49,2.49,0,0,1-1.68,2.45v0a2.55,2.55,0,0,1,1.85,2.63,3.11,3.11,0,0,1-3.17,3.23H36.7Zm1.73,1.54v3.26h2.5a1.64,1.64,0,1,0,0-3.26Zm0,4.8v3.43h2.66a1.72,1.72,0,1,0,0-3.43Z"/><path class="cls-1" d="M46.46,18.67h1.73v11.4H46.46Z"/><path class="cls-1" d="M50.59,18.67h7.28v1.64H52.32v3.24h4.74v1.54H52.32v3.35h5.55v1.63H50.59Z"/><path class="cls-1" d="M59.49,18.67h1.63l5.15,8.1h0v-8.1H68v11.4H66.4L61.25,22h0v8.1H59.49Z"/><path class="cls-1" d="M72.37,20.21H69.25V18.67h8v1.54H74.1v9.86H72.37Z"/><path class="cls-1" d="M83.09,27.53H78.77l-.88,2.54H76.06l4.15-11.4h1.44l4.14,11.4H84ZM82.59,26l-1.65-5h0l-1.65,5Z"/><path class="cls-1" d="M87,18.67h1.73v9.77h5.55v1.63H87Z"/><path class="cls-1" d="M0,34.67H7.28v1.64H1.73v3.24H6.47v1.54H1.73v3.35H7.28v1.63H0Z"/><path class="cls-1" d="M12.88,43.3a5.24,5.24,0,0,0,3.23,1.14c1.41,0,2.26-.64,2.26-1.59a1.48,1.48,0,0,0-1.49-1.53l-1.5-.21a3.17,3.17,0,0,1-3-3.2c0-2,1.36-3.33,3.71-3.33a6.67,6.67,0,0,1,3.7,1.18l-1,1.43A5.3,5.3,0,0,0,16,36.31c-1.05,0-1.9.54-1.9,1.63,0,.64.46,1.28,1.62,1.45.3,0,.73.12,1.28.18a3.25,3.25,0,0,1,3.12,3.28c0,2.1-1.55,3.32-4,3.32a6.44,6.44,0,0,1-4.36-1.57Z"/><path class="cls-1" d="M27.76,43.53H23.44l-.88,2.54H20.74l4.14-11.4h1.44l4.15,11.4H28.64ZM27.27,42l-1.65-5h0l-1.64,5Z"/><path class="cls-1" d="M31.68,34.67h1.63l5.16,8.1h0v-8.1h1.73v11.4H38.59L33.44,38h0v8.1H31.68Z"/><path class="cls-1" d="M42.62,34.67h7.29v1.64H44.35v3.24h4.74v1.54H44.35v3.35h5.56v1.63H42.62Z"/><path class="cls-1" d="M57.36,43.53H53l-.88,2.54H50.33l4.15-11.4h1.44l4.15,11.4H58.24ZM56.87,42l-1.65-5h0l-1.64,5Z"/><path class="cls-1" d="M61.28,34.67h1.63l3.27,7.43,3.2-7.43H71v11.4H69.28V39h0l-2.38,5.48H65.42L63,39h0v7.11H61.28Z"/><path class="cls-1" d="M73.41,34.67h7.28v1.64H75.14v3.24h4.73v1.54H75.14v3.35h5.55v1.63H73.41Z"/><path class="cls-1" d="M82.3,34.67h1.63l5.16,8.1h0v-8.1h1.73v11.4H89.22L84.06,38h0v8.1H82.3Z"/><path class="cls-1" d="M95.18,36.21H92.06V34.67h8v1.54H96.91v9.86H95.18Z"/><path class="cls-1" d="M101.07,36.63a4.13,4.13,0,0,1,7.14,0c.37.67.5,1,.5,3.74s-.13,3.08-.5,3.75a4.13,4.13,0,0,1-7.14,0c-.37-.67-.5-1-.5-3.75S100.7,37.3,101.07,36.63Zm1.81,7a2.28,2.28,0,0,0,3.52,0c.45-.58.58-.9.58-3.24s-.13-2.66-.58-3.23a2.28,2.28,0,0,0-3.52,0c-.45.57-.58.9-.58,3.23S102.43,43,102.88,43.61Z"/><path class="cls-1" d="M29.62,50.67H34c2.23,0,3.38,1.27,3.38,3.06a2.49,2.49,0,0,1-1.68,2.45v0a2.56,2.56,0,0,1,1.86,2.63,3.12,3.12,0,0,1-3.17,3.23h-4.8Zm1.72,1.54v3.26h2.5a1.64,1.64,0,1,0,0-3.26Zm0,4.8v3.43H34A1.72,1.72,0,1,0,34,57Z"/><path class="cls-1" d="M45.22,59.53H40.9L40,62.07H38.19l4.15-11.4h1.44l4.14,11.4H46.1ZM44.72,58l-1.65-5h0l-1.65,5ZM43.3,47.78h2.14l-2.27,2.33H41.82Z"/><path class="cls-1" d="M49.28,59.3a5.24,5.24,0,0,0,3.23,1.14c1.41,0,2.26-.64,2.26-1.59a1.48,1.48,0,0,0-1.49-1.53l-1.5-.21a3.17,3.17,0,0,1-3-3.2c0-2,1.36-3.33,3.71-3.33a6.67,6.67,0,0,1,3.7,1.18l-1,1.43a5.3,5.3,0,0,0-2.82-.88c-1.05,0-1.9.54-1.9,1.63,0,.64.46,1.28,1.62,1.45.3,0,.73.12,1.28.18a3.25,3.25,0,0,1,3.12,3.28c0,2.1-1.55,3.32-4,3.32a6.44,6.44,0,0,1-4.36-1.57Z"/><path class="cls-1" d="M58.32,50.67h1.73v11.4H58.32Z"/><path class="cls-1" d="M70.13,58.88a3.93,3.93,0,0,1-4,3.29,4.05,4.05,0,0,1-3.57-2.05c-.37-.67-.5-1-.5-3.75s.13-3.07.5-3.74A4.09,4.09,0,0,1,70.13,54H68.31a2.3,2.3,0,0,0-2.18-1.65,2.18,2.18,0,0,0-1.76.83c-.45.57-.58.9-.58,3.23s.13,2.66.58,3.24a2.21,2.21,0,0,0,1.76.83,2.35,2.35,0,0,0,2.18-1.56Z"/><path class="cls-1" d="M71.45,52.63a4.13,4.13,0,0,1,7.14,0c.37.67.5,1,.5,3.74s-.13,3.08-.5,3.75a4.13,4.13,0,0,1-7.14,0c-.36-.67-.49-1-.49-3.75S71.09,53.3,71.45,52.63Zm1.81,7a2.24,2.24,0,0,0,1.76.83,2.21,2.21,0,0,0,1.76-.83c.45-.58.58-.9.58-3.24s-.13-2.66-.58-3.23A2.18,2.18,0,0,0,75,52.31a2.21,2.21,0,0,0-1.76.83c-.45.57-.57.9-.57,3.23S72.81,59,73.26,59.61Z"/></g></g></svg>