<svg xmlns="http://www.w3.org/2000/svg" viewBox="0 0 110.87 30.39"><defs><style>.cls-1{fill:#fff;}</style></defs><title>pro-politica</title><g id="Camada_2" data-name="Camada 2"><g id="Camada_1-2" data-name="Camada 1"><path class="cls-1" d="M24.71,10.8H23.14l-.5,3.49H21.39l.5-3.49H20.42V9.75H22l.35-2.31H20.88V6.39h1.58L23,2.9h1.25l-.5,3.49h1.57l.5-3.49H27l-.5,3.49H28V7.44H26.42l-.35,2.31h1.47V10.8H26l-.49,3.49H24.21Zm.46-3.36H23.6l-.35,2.31h1.57Z"/><path class="cls-1" d="M29.25,2.9h4.13a3.74,3.74,0,0,1,2.56.8,3.39,3.39,0,0,1,1.23,2.72A3.43,3.43,0,0,1,33.6,9.84H31v4.45H29.25ZM31,8.21h2.56a1.8,1.8,0,0,0,1.9-1.84,1.69,1.69,0,0,0-.73-1.52,2,2,0,0,0-1.24-.32H31Z"/><path class="cls-1" d="M38.85,4.85a4.13,4.13,0,0,1,7.14,0c.36.67.49,1,.49,3.75s-.13,3.07-.49,3.74a4.13,4.13,0,0,1-7.14,0c-.37-.67-.5-1-.5-3.74S38.48,5.52,38.85,4.85Zm1.81,7a2.28,2.28,0,0,0,3.52,0c.45-.58.57-.9.57-3.23s-.12-2.66-.57-3.24a2.28,2.28,0,0,0-3.52,0c-.45.58-.58.9-.58,3.24S40.21,11.25,40.66,11.83Z"/><path class="cls-1" d="M48.5,2.9h1.72v9.76h5.56v1.63H48.5Z"/><path class="cls-1" d="M58.5,0h2.14L58.37,2.34H57ZM57.39,2.9h1.73V14.29H57.39Z"/><path class="cls-1" d="M63.46,4.43H60.34V2.9h8V4.43H65.19v9.86H63.46Z"/><path class="cls-1" d="M69.52,2.9h1.73V14.29H69.52Z"/><path class="cls-1" d="M81.33,11.11a3.92,3.92,0,0,1-4,3.28,4.05,4.05,0,0,1-3.57-2.05c-.37-.67-.5-1-.5-3.74s.13-3.08.5-3.75a4.09,4.09,0,0,1,7.57,1.33H79.51a2.31,2.31,0,0,0-2.18-1.65,2.18,2.18,0,0,0-1.76.83c-.45.58-.58.9-.58,3.24s.13,2.65.58,3.23a2.18,2.18,0,0,0,1.76.83,2.35,2.35,0,0,0,2.18-1.55Z"/><path class="cls-1" d="M88.39,11.75H84.06l-.88,2.54H81.36L85.5,2.9h1.44l4.15,11.39H89.27Zm-.5-1.54-1.65-5h0l-1.65,5Z"/><path class="cls-1" d="M1.14,27.52a5.22,5.22,0,0,0,3.23,1.14c1.41,0,2.26-.64,2.26-1.58a1.5,1.5,0,0,0-1.49-1.54c-.51-.06-.91-.13-1.51-.21a3.15,3.15,0,0,1-3-3.2C.61,20.18,2,18.8,4.32,18.8A6.68,6.68,0,0,1,8,20l-1,1.42a5.3,5.3,0,0,0-2.82-.88c-1.05,0-1.9.54-1.9,1.63,0,.64.46,1.28,1.61,1.46.31.05.74.11,1.28.17a3.26,3.26,0,0,1,3.13,3.29c0,2.09-1.56,3.31-4,3.31A6.36,6.36,0,0,1,0,28.82Z"/><path class="cls-1" d="M10.18,18.9h7.28v1.63H11.9v3.25h4.74v1.54H11.9v3.34h5.56v1.63H10.18Z"/><path class="cls-1" d="M19.07,18.9h1.64L24,26.32l3.2-7.42H28.8V30.29H27.08v-7.1h0l-2.38,5.47H23.22l-2.39-5.47h0v7.1H19.07Z"/><path class="cls-1" d="M35,18.9h4.13a3.72,3.72,0,0,1,2.56.8A3.39,3.39,0,0,1,43,22.42a3.43,3.43,0,0,1-3.57,3.42H36.77v4.45H35Zm1.73,5.31h2.56a1.8,1.8,0,0,0,1.9-1.84,1.69,1.69,0,0,0-.73-1.52,2,2,0,0,0-1.23-.32h-2.5Z"/><path class="cls-1" d="M44.53,18.9H49a3.34,3.34,0,0,1,2.32.75,3.21,3.21,0,0,1,1.14,2.43,3.25,3.25,0,0,1-2.21,3.16l2.64,5.05h-2l-2.35-4.86H46.26v4.86H44.53Zm1.73,5h2.6a1.77,1.77,0,0,0,1.94-1.81,1.52,1.52,0,0,0-.57-1.29A1.89,1.89,0,0,0,49,20.43h-2.7Z"/><path class="cls-1" d="M54.29,18.9H56V30.29H54.29Z"/><path class="cls-1" d="M57.23,18.9h1.83l2.59,8.67h0l2.59-8.67H66.1L62.34,30.29H61Z"/><path class="cls-1" d="M67.31,18.9H69V30.29H67.31Z"/><path class="cls-1" d="M71.44,18.9h1.73v9.76h5.55v1.63H71.44Z"/><path class="cls-1" d="M80.34,18.9h7.28v1.63H82.06v3.25H86.8v1.54H82.06v3.34h5.56v1.63H80.34Zm4-2.9h2.15l-2.27,2.34H82.83Z"/><path class="cls-1" d="M92.93,24h4v2.32a4,4,0,0,1-4.07,4.05,4.07,4.07,0,0,1-3.57-2.05c-.36-.67-.49-1-.49-3.74s.13-3.08.49-3.75a4.07,4.07,0,0,1,3.57-2.05,4,4,0,0,1,4,3.38H95.09a2.3,2.3,0,0,0-2.18-1.65,2.19,2.19,0,0,0-1.76.83c-.45.58-.57.9-.57,3.24s.12,2.65.57,3.23a2.19,2.19,0,0,0,1.76.83,2.31,2.31,0,0,0,2.34-2.42v-.59H92.93Z"/><path class="cls-1" d="M99,18.9h1.73V30.29H99Z"/><path class="cls-1" d="M103.23,20.85a4.13,4.13,0,0,1,7.14,0c.37.67.5,1,.5,3.75s-.13,3.07-.5,3.74a4.13,4.13,0,0,1-7.14,0c-.37-.67-.5-1-.5-3.74S102.86,21.52,103.23,20.85Zm1.81,7a2.28,2.28,0,0,0,3.52,0c.45-.58.58-.9.58-3.23s-.13-2.66-.58-3.24a2.28,2.28,0,0,0-3.52,0c-.45.58-.58.9-.58,3.24S104.59,27.25,105,27.83Z"/></g></g></svg>