<svg xmlns="http://www.w3.org/2000/svg" viewBox="0 0 126.75 30.17"><defs><style>.cls-1{fill:#fff;}</style></defs><title>pro-educa</title><g id="Camada_2" data-name="Camada 2"><g id="Camada_1-2" data-name="Camada 1"><path class="cls-1" d="M4.29,10.58H2.72l-.5,3.49H1l.49-3.49H0V9.52H1.58l.36-2.3H.46V6.16H2.05l.49-3.49H3.79L3.3,6.16H4.87l.49-3.49H6.61l-.5,3.49H7.59V7.22H6l-.35,2.3H7.12v1.06H5.54L5,14.07H3.79Zm.46-3.36H3.19l-.36,2.3H4.4Z"/><path class="cls-1" d="M8.83,2.67h7.29V4.31H10.56V7.55H15.3V9.09H10.56v3.35h5.56v1.63H8.83Z"/><path class="cls-1" d="M17.73,2.67h4a3.88,3.88,0,0,1,3.48,1.92c.56,1,.6,1.4.6,3.78,0,2.56-.12,3-.63,3.81a4.07,4.07,0,0,1-3.56,1.89H17.73Zm1.73,9.77h2.06a2.36,2.36,0,0,0,2.11-1c.39-.58.44-.9.44-3S24,5.89,23.55,5.27a2.19,2.19,0,0,0-2-1H19.46Z"/><path class="cls-1" d="M27.6,2.67h1.73V10A2.32,2.32,0,1,0,34,10V2.67H35.7v7.54a3.88,3.88,0,0,1-4.05,4,3.88,3.88,0,0,1-4-4Z"/><path class="cls-1" d="M45.57,10.88a3.93,3.93,0,0,1-4,3.29A4.05,4.05,0,0,1,38,12.12c-.37-.67-.5-1-.5-3.75s.13-3.07.5-3.74A4.09,4.09,0,0,1,45.57,6H43.75a2.3,2.3,0,0,0-2.18-1.65,2.18,2.18,0,0,0-1.76.83c-.45.57-.58.9-.58,3.23s.13,2.66.58,3.24a2.21,2.21,0,0,0,1.76.83,2.35,2.35,0,0,0,2.18-1.56Z"/><path class="cls-1" d="M52.63,11.53H48.3l-.88,2.54H45.6l4.15-11.4h1.44l4.14,11.4H53.51ZM52.13,10,50.48,5h0L48.8,10Z"/><path class="cls-1" d="M59.7,14.17a4.09,4.09,0,0,1-3.33-2.05c-.37-.67-.5-1-.5-3.75s.13-3.07.5-3.74A4.09,4.09,0,0,1,63.94,6H62.11a2.28,2.28,0,0,0-2.17-1.65,2.18,2.18,0,0,0-1.76.83c-.45.57-.58.9-.58,3.23s.13,2.66.58,3.24a2.21,2.21,0,0,0,1.76.83,2.34,2.34,0,0,0,2.17-1.56h1.83a3.88,3.88,0,0,1-3.41,3.25l-.67.9h0a1.65,1.65,0,0,1,.43-.06,1.27,1.27,0,0,1,1.41,1.21c0,1-.93,1.51-2,1.51a4.73,4.73,0,0,1-1.62-.39l.29-.67a3.36,3.36,0,0,0,1.12.24c.55,0,.93-.19.93-.67s-.35-.59-.78-.59a1.09,1.09,0,0,0-.61.17l-.35-.3Z"/><path class="cls-1" d="M71,11.53H66.67l-.88,2.54H64l4.14-11.4h1.44l4.15,11.4H71.88ZM66,2A1.9,1.9,0,0,1,67.79.1c.8,0,1.52.61,2.18.61.3,0,.64-.12.75-.71h1c-.17,1-.69,1.86-1.76,1.86-.81,0-1.66-.6-2.3-.6a.67.67,0,0,0-.68.69Zm4.52,8L68.85,5h0l-1.65,5Z"/><path class="cls-1" d="M74.74,4.63a4.12,4.12,0,0,1,7.13,0c.37.67.5,1,.5,3.74s-.13,3.08-.5,3.75a4.12,4.12,0,0,1-7.13,0c-.37-.67-.5-1-.5-3.75S74.37,5.3,74.74,4.63Zm1.8,7a2.29,2.29,0,0,0,3.53,0c.44-.58.57-.9.57-3.24s-.13-2.66-.57-3.23a2.29,2.29,0,0,0-3.53,0C76.1,5.71,76,6,76,8.37S76.1,11,76.54,11.61Z"/><path class="cls-1" d="M95.91,10.88a3.93,3.93,0,0,1-4,3.29,4.07,4.07,0,0,1-3.57-2.05c-.36-.67-.49-1-.49-3.75s.13-3.07.49-3.74A4.1,4.1,0,0,1,95.91,6H94.08A2.29,2.29,0,0,0,91.9,4.31a2.21,2.21,0,0,0-1.76.83c-.44.57-.57.9-.57,3.23s.13,2.66.57,3.24a2.24,2.24,0,0,0,1.76.83,2.34,2.34,0,0,0,2.18-1.56Z"/><path class="cls-1" d="M97.23,4.63a4.13,4.13,0,0,1,7.14,0c.37.67.5,1,.5,3.74s-.13,3.08-.5,3.75a4.13,4.13,0,0,1-7.14,0c-.37-.67-.49-1-.49-3.75S96.86,5.3,97.23,4.63Zm1.81,7a2.28,2.28,0,0,0,3.52,0c.45-.58.58-.9.58-3.24s-.13-2.66-.58-3.23a2.28,2.28,0,0,0-3.52,0c-.45.57-.58.9-.58,3.23S98.59,11,99,11.61Z"/><path class="cls-1" d="M106.88,2.67h1.63l3.27,7.43L115,2.67h1.63v11.4h-1.73V7h0l-2.38,5.48H111L108.64,7h0v7.11h-1.73Z"/><path class="cls-1" d="M119.12,4.63a4.13,4.13,0,0,1,7.14,0c.37.67.49,1,.49,3.74s-.12,3.08-.49,3.75a4.13,4.13,0,0,1-7.14,0c-.37-.67-.5-1-.5-3.75S118.75,5.3,119.12,4.63Zm1.81,7a2.28,2.28,0,0,0,3.52,0c.45-.58.58-.9.58-3.24s-.13-2.66-.58-3.23a2.28,2.28,0,0,0-3.52,0c-.45.57-.58.9-.58,3.23S120.48,11,120.93,11.61Z"/><path class="cls-1" d="M20.56,26.88a3.93,3.93,0,0,1-4,3.29A4.07,4.07,0,0,1,13,28.12c-.36-.67-.49-1-.49-3.75s.13-3.07.49-3.74A4.1,4.1,0,0,1,20.56,22H18.73a2.29,2.29,0,0,0-2.18-1.65,2.21,2.21,0,0,0-1.76.83c-.45.57-.57.9-.57,3.23s.12,2.66.57,3.24a2.24,2.24,0,0,0,1.76.83,2.35,2.35,0,0,0,2.18-1.56Z"/><path class="cls-1" d="M21.88,20.63a4.13,4.13,0,0,1,7.14,0c.37.67.5,1,.5,3.74s-.13,3.08-.5,3.75a4.13,4.13,0,0,1-7.14,0c-.37-.67-.5-1-.5-3.75S21.51,21.3,21.88,20.63Zm1.81,7a2.28,2.28,0,0,0,3.52,0c.45-.58.58-.9.58-3.24s-.13-2.66-.58-3.23a2.28,2.28,0,0,0-3.52,0c-.45.57-.58.9-.58,3.23S23.24,27,23.69,27.61Z"/><path class="cls-1" d="M31.53,18.67h1.63l3.27,7.43,3.2-7.43h1.63v11.4H39.53V23h0l-2.39,5.48H35.67L33.29,23h0v7.11H31.53Z"/><path class="cls-1" d="M43.66,18.67h4.13a3.79,3.79,0,0,1,2.56.8,3.39,3.39,0,0,1,1.23,2.73A3.44,3.44,0,0,1,48,25.62H45.38v4.45H43.66ZM45.38,24H48a1.8,1.8,0,0,0,1.9-1.84,1.66,1.66,0,0,0-.74-1.52,2,2,0,0,0-1.23-.32h-2.5Z"/><path class="cls-1" d="M53.14,18.67h4.45a3.38,3.38,0,0,1,2.33.76A3.28,3.28,0,0,1,58.84,25l2.64,5.06h-2L57.08,25.2H54.87v4.87H53.14Zm1.73,5h2.61a1.77,1.77,0,0,0,1.94-1.81,1.56,1.56,0,0,0-.58-1.3,1.91,1.91,0,0,0-1.26-.35H54.87Z"/><path class="cls-1" d="M63,20.63a4.12,4.12,0,0,1,7.13,0c.37.67.5,1,.5,3.74s-.13,3.08-.5,3.75a4.12,4.12,0,0,1-7.13,0c-.37-.67-.5-1-.5-3.75S62.65,21.3,63,20.63Zm1.8,7a2.29,2.29,0,0,0,3.53,0c.44-.58.57-.9.57-3.24s-.13-2.66-.57-3.23a2.29,2.29,0,0,0-3.53,0c-.44.57-.57.9-.57,3.23S64.38,27,64.82,27.61Z"/><path class="cls-1" d="M72.66,18.67H74.3l3.26,7.43,3.2-7.43H82.4v11.4H80.67V23h0l-2.38,5.48H76.81L74.42,23h0v7.11H72.66Z"/><path class="cls-1" d="M84.79,18.67h1.73v11.4H84.79Z"/><path class="cls-1" d="M89.06,27.3a5.27,5.27,0,0,0,3.24,1.14c1.41,0,2.25-.64,2.25-1.59a1.47,1.47,0,0,0-1.48-1.53l-1.51-.21a3.16,3.16,0,0,1-3-3.2c0-2,1.36-3.33,3.71-3.33A6.67,6.67,0,0,1,96,19.76l-1,1.43a5.33,5.33,0,0,0-2.82-.88c-1.06,0-1.91.54-1.91,1.63,0,.64.47,1.28,1.62,1.45.3.05.74.12,1.28.18a3.25,3.25,0,0,1,3.12,3.28c0,2.1-1.55,3.32-4,3.32a6.41,6.41,0,0,1-4.35-1.57Z"/><path class="cls-1" d="M98.25,27.3a5.22,5.22,0,0,0,3.23,1.14c1.41,0,2.26-.64,2.26-1.59a1.48,1.48,0,0,0-1.49-1.53l-1.51-.21a3.16,3.16,0,0,1-3-3.2c0-2,1.36-3.33,3.71-3.33a6.67,6.67,0,0,1,3.7,1.18l-1,1.43a5.3,5.3,0,0,0-2.82-.88c-1,0-1.9.54-1.9,1.63,0,.64.46,1.28,1.61,1.45.31.05.74.12,1.28.18a3.26,3.26,0,0,1,3.13,3.28c0,2.1-1.56,3.32-4,3.32a6.41,6.41,0,0,1-4.35-1.57Z"/><path class="cls-1" d="M107.4,20.63a4.13,4.13,0,0,1,7.14,0c.37.67.49,1,.49,3.74s-.12,3.08-.49,3.75a4.13,4.13,0,0,1-7.14,0c-.37-.67-.5-1-.5-3.75S107,21.3,107.4,20.63Zm1.81,7a2.28,2.28,0,0,0,3.52,0c.45-.58.58-.9.58-3.24s-.13-2.66-.58-3.23a2.28,2.28,0,0,0-3.52,0c-.45.57-.58.9-.58,3.23S108.76,27,109.21,27.61Z"/></g></g></svg>