<svg xmlns="http://www.w3.org/2000/svg" viewBox="0 0 126.13 43.59"><defs><style>.cls-1{fill:#fff;}</style></defs><title>pro-inova</title><g id="Camada_2" data-name="Camada 2"><g id="Camada_1-2" data-name="Camada 1"><path class="cls-1" d="M23.91,8H22.34l-.49,3.49H20.6L21.1,8H19.62V7h1.59l.35-2.31H20.09v-1h1.58L22.17.1h1.25l-.5,3.49h1.57L25,.1h1.25l-.49,3.49h1.47v1H25.63L25.27,7h1.48V8H25.16l-.5,3.49H23.42Zm.47-3.36H22.81L22.46,7H24Z"/><path class="cls-1" d="M32.29.1h7.29V1.73H34V5h4.74V6.51H34V9.86h5.56v1.63H32.29Z"/><path class="cls-1" d="M48.87,8.31a3.9,3.9,0,0,1-4,3.28A4.07,4.07,0,0,1,41.3,9.54c-.36-.67-.49-1-.49-3.75s.13-3.07.49-3.74a4.07,4.07,0,0,1,3.57-2,4,4,0,0,1,4,3.38H47.05a2.3,2.3,0,0,0-2.18-1.65,2.19,2.19,0,0,0-1.76.83c-.45.58-.57.9-.57,3.23s.12,2.66.57,3.24a2.19,2.19,0,0,0,1.76.83,2.35,2.35,0,0,0,2.18-1.55Z"/><path class="cls-1" d="M50.2,2.05a4.13,4.13,0,0,1,7.14,0c.37.67.49,1,.49,3.74s-.12,3.08-.49,3.75a4.13,4.13,0,0,1-7.14,0c-.37-.67-.5-1-.5-3.75S49.83,2.72,50.2,2.05ZM52,9a2.28,2.28,0,0,0,3.52,0c.45-.58.57-.9.57-3.24S56,3.14,55.53,2.56a2.28,2.28,0,0,0-3.52,0c-.45.58-.58.9-.58,3.23S51.56,8.45,52,9Z"/><path class="cls-1" d="M59.85.1h1.63l5.15,8.1h0V.1h1.72V11.49H66.76l-5.15-8.1h0v8.1H59.85Z"/><path class="cls-1" d="M70.9,2.05a4.13,4.13,0,0,1,7.14,0c.37.67.5,1,.5,3.74s-.13,3.08-.5,3.75a4.13,4.13,0,0,1-7.14,0c-.37-.67-.49-1-.49-3.75S70.53,2.72,70.9,2.05Zm1.81,7a2.28,2.28,0,0,0,3.52,0c.45-.58.58-.9.58-3.24s-.13-2.65-.58-3.23a2.28,2.28,0,0,0-3.52,0c-.45.58-.57.9-.57,3.23S72.26,8.45,72.71,9Z"/><path class="cls-1" d="M80.55.1h1.63l3.27,7.42L88.65.1h1.63V11.49H88.55V4.39h0L86.14,9.86H84.7L82.31,4.39h0v7.1H80.55Z"/><path class="cls-1" d="M92.68.1h1.73V11.49H92.68Z"/><path class="cls-1" d="M102.65,9H98.33l-.88,2.54H95.62L99.77.1h1.44l4.14,11.39h-1.82Zm-.5-1.54-1.65-5h0l-1.65,5Z"/><path class="cls-1" d="M16.52,16.1h1.73V27.49H16.52Z"/><path class="cls-1" d="M20.65,16.1h1.63l5.15,8.1h0V16.1h1.72V27.49H27.56l-5.15-8.1h0v8.1H20.65Z"/><path class="cls-1" d="M31.7,18.05a4.13,4.13,0,0,1,7.14,0c.37.67.5,1,.5,3.74s-.13,3.08-.5,3.75a4.13,4.13,0,0,1-7.14,0c-.37-.67-.49-1-.49-3.75S31.33,18.72,31.7,18.05Zm1.81,7A2.28,2.28,0,0,0,37,25c.45-.58.58-.9.58-3.24s-.13-2.65-.58-3.23a2.28,2.28,0,0,0-3.52,0c-.45.58-.57.9-.57,3.23S33.06,24.45,33.51,25Z"/><path class="cls-1" d="M39.77,16.1h1.82l2.59,8.67h0l2.59-8.67h1.82L44.87,27.49H43.53Z"/><path class="cls-1" d="M54.81,25H50.49l-.88,2.54H47.78L51.93,16.1h1.44l4.14,11.39H55.69Zm-.5-1.54-1.65-5h0l-1.65,5Z"/><path class="cls-1" d="M58.73,16.1h4A3.87,3.87,0,0,1,66.19,18c.56,1,.6,1.39.6,3.77,0,2.57-.12,3-.64,3.81a4,4,0,0,1-3.55,1.89H58.73Zm1.73,9.76h2.06a2.36,2.36,0,0,0,2.11-1c.39-.58.44-.9.44-3s0-2.55-.52-3.17a2.2,2.2,0,0,0-2-1H60.46Z"/><path class="cls-1" d="M68.92,18.05a4.13,4.13,0,0,1,7.14,0c.37.67.49,1,.49,3.74s-.12,3.08-.49,3.75a4.13,4.13,0,0,1-7.14,0c-.37-.67-.5-1-.5-3.75S68.55,18.72,68.92,18.05Zm1.81,7a2.28,2.28,0,0,0,3.52,0c.45-.58.57-.9.57-3.24s-.12-2.65-.57-3.23a2.28,2.28,0,0,0-3.52,0c-.45.58-.58.9-.58,3.23S70.28,24.45,70.73,25Z"/><path class="cls-1" d="M78.57,16.1H83a3.34,3.34,0,0,1,2.32.75,3.28,3.28,0,0,1-1.08,5.58l2.65,5.06h-2L82.5,22.63H80.29v4.86H78.57Zm1.72,5H82.9a1.77,1.77,0,0,0,1.94-1.81,1.54,1.54,0,0,0-.58-1.3A1.91,1.91,0,0,0,83,17.63H80.29Z"/><path class="cls-1" d="M94.17,25H89.85L89,27.49H87.14L91.29,16.1h1.44l4.14,11.39H95.05Zm-.5-1.54-1.65-5h0l-1.65,5Z"/><path class="cls-1" d="M101.93,16.1h7.28v1.63h-5.56V21h4.74v1.53h-4.74v3.35h5.56v1.63h-7.28Z"/><path class="cls-1" d="M0,32.1H7.28v1.63H1.73V37H6.47v1.53H1.73v3.35H7.28v1.63H0Z"/><path class="cls-1" d="M8.9,32.1h1.63l3.26,7.42L17,32.1h1.63V43.49H16.9v-7.1h0l-2.39,5.47H13l-2.38-5.47h0v7.1H8.9Z"/><path class="cls-1" d="M21,32.1h4.13a3.72,3.72,0,0,1,2.56.8A3.36,3.36,0,0,1,29,35.62,3.44,3.44,0,0,1,25.38,39H22.75v4.45H21Zm1.73,5.31h2.56a1.81,1.81,0,0,0,1.91-1.84,1.69,1.69,0,0,0-.74-1.52,2,2,0,0,0-1.23-.32h-2.5Z"/><path class="cls-1" d="M30.51,32.1H35a3.34,3.34,0,0,1,2.32.75,3.27,3.27,0,0,1-1.07,5.58l2.64,5.06H36.8l-2.35-4.86H32.24v4.86H30.51Zm1.73,5h2.61a1.77,1.77,0,0,0,1.94-1.81,1.56,1.56,0,0,0-.58-1.3A1.91,1.91,0,0,0,35,33.63H32.24Z"/><path class="cls-1" d="M40.27,32.1h7.28v1.63H42V37h4.74v1.53H42v3.35h5.55v1.63H40.27Z"/><path class="cls-1" d="M49.17,32.1h7.28v1.63H50.9V37h4.73v1.53H50.9v3.35h5.55v1.63H49.17Z"/><path class="cls-1" d="M58.06,32.1H59.7l5.15,8.1h0V32.1h1.73V43.49H65l-5.16-8.1h0v8.1H58.06Z"/><path class="cls-1" d="M69,32.1h4A3.87,3.87,0,0,1,76.47,34c.56,1,.6,1.39.6,3.77,0,2.57-.12,3-.64,3.81a4,4,0,0,1-3.55,1.89H69Zm1.73,9.76H72.8a2.36,2.36,0,0,0,2.11-1c.39-.58.44-.9.44-3s0-2.55-.52-3.17a2.19,2.19,0,0,0-2-1H70.74Z"/><path class="cls-1" d="M79.09,32.1h7.28v1.63H80.82V37h4.73v1.53H80.82v3.35h5.55v1.63H79.09Z"/><path class="cls-1" d="M88,32.1h4A3.85,3.85,0,0,1,95.44,34c.56,1,.61,1.39.61,3.77,0,2.57-.13,3-.64,3.81a4.06,4.06,0,0,1-3.55,1.89H88Zm1.73,9.76h2.07a2.38,2.38,0,0,0,2.11-1c.38-.58.43-.9.43-3s0-2.55-.51-3.17a2.2,2.2,0,0,0-2-1H89.71Z"/><path class="cls-1" d="M98.17,34.05a4.13,4.13,0,0,1,7.14,0c.37.67.5,1,.5,3.74s-.13,3.08-.5,3.75a4.13,4.13,0,0,1-7.14,0c-.36-.67-.49-1-.49-3.75S97.81,34.72,98.17,34.05ZM100,41a2.21,2.21,0,0,0,1.76.83A2.18,2.18,0,0,0,103.5,41c.45-.58.58-.9.58-3.24s-.13-2.65-.58-3.23a2.18,2.18,0,0,0-1.76-.83,2.21,2.21,0,0,0-1.76.83c-.44.58-.57.9-.57,3.23S99.54,40.45,100,41Z"/><path class="cls-1" d="M107.82,32.1h4.45a3.34,3.34,0,0,1,2.32.75,3.27,3.27,0,0,1-1.07,5.58l2.64,5.06h-2l-2.35-4.86h-2.21v4.86h-1.73Zm1.73,5h2.61a1.77,1.77,0,0,0,1.94-1.81,1.56,1.56,0,0,0-.58-1.3,1.91,1.91,0,0,0-1.26-.35h-2.71Z"/><path class="cls-1" d="M123.42,41H119.1l-.88,2.54H116.4l4.14-11.39H122l4.15,11.39h-1.82Zm-.49-1.54-1.65-5h0l-1.65,5Z"/></g></g></svg>