<svg xmlns="http://www.w3.org/2000/svg" viewBox="0 0 116.27 27.59"><defs><style>.cls-1{fill:#fff;}</style></defs><title>pro-reduzirasdesigualdades</title><g id="Camada_2" data-name="Camada 2"><g id="Camada_1-2" data-name="Camada 1"><path class="cls-1" d="M16.45,8H14.88l-.5,3.49H13.14L13.63,8H12.16V7h1.58l.36-2.31H12.62v-1h1.59L14.7.1H16l-.49,3.49H17L17.52.1h1.25l-.5,3.49h1.48v1H18.16L17.81,7h1.47V8H17.7l-.5,3.49H16Zm.46-3.36H15.34L15,7h1.57Z"/><path class="cls-1" d="M21,.1h4.45a3.34,3.34,0,0,1,2.32.75A3.21,3.21,0,0,1,28.9,3.28a3.22,3.22,0,0,1-2.21,3.15l2.64,5.06h-2L24.93,6.63H22.72v4.86H21Zm1.73,5h2.61a1.77,1.77,0,0,0,1.94-1.81A1.56,1.56,0,0,0,26.69,2a1.92,1.92,0,0,0-1.27-.35h-2.7Z"/><path class="cls-1" d="M30.75.1H38V1.73H32.48V5h4.74V6.51H32.48V9.86H38v1.63H30.75Z"/><path class="cls-1" d="M39.65.1h4A3.87,3.87,0,0,1,47.11,2c.56,1,.6,1.39.6,3.77,0,2.57-.12,3-.63,3.81a4.07,4.07,0,0,1-3.56,1.89H39.65Zm1.73,9.76h2.06a2.36,2.36,0,0,0,2.11-1c.39-.58.44-.9.44-3s-.05-2.55-.52-3.17a2.19,2.19,0,0,0-2-1H41.38Z"/><path class="cls-1" d="M49.52.1h1.73V7.44a2.32,2.32,0,1,0,4.64,0V.1h1.73V7.63a4.05,4.05,0,0,1-8.1,0Z"/><path class="cls-1" d="M59.12,10.05l5.17-8.42h-5V.1H66.4V1.39L61.22,9.86H66.4v1.63H59.12Z"/><path class="cls-1" d="M68.11.1h1.73V11.49H68.11Z"/><path class="cls-1" d="M72.24.1h4.45A3.34,3.34,0,0,1,79,.85a3.21,3.21,0,0,1,1.14,2.43,3.23,3.23,0,0,1-2.21,3.15l2.64,5.06h-2L76.18,6.63H74v4.86H72.24Zm1.73,5h2.61a1.76,1.76,0,0,0,1.93-1.81A1.56,1.56,0,0,0,77.94,2a1.94,1.94,0,0,0-1.27-.35H74Z"/><path class="cls-1" d="M91.68,9H87.36l-.88,2.54H84.65L88.8.1h1.44l4.15,11.39H92.56Zm-.5-1.54-1.64-5h0l-1.64,5Z"/><path class="cls-1" d="M95.74,8.72A5.27,5.27,0,0,0,99,9.86c1.4,0,2.25-.64,2.25-1.58a1.48,1.48,0,0,0-1.49-1.54l-1.5-.21a3.16,3.16,0,0,1-3-3.2C95.21,1.38,96.58,0,98.93,0a6.78,6.78,0,0,1,3.7,1.18l-1,1.43a5.33,5.33,0,0,0-2.82-.88c-1.06,0-1.91.54-1.91,1.63,0,.64.47,1.28,1.62,1.46.3,0,.74.11,1.28.17A3.25,3.25,0,0,1,103,8.28c0,2.09-1.55,3.31-4,3.31A6.36,6.36,0,0,1,94.61,10Z"/><path class="cls-1" d="M0,16.1H4A3.86,3.86,0,0,1,7.46,18c.56,1,.61,1.39.61,3.77,0,2.57-.13,3-.64,3.81a4.07,4.07,0,0,1-3.56,1.89H0Zm1.73,9.76H3.79a2.39,2.39,0,0,0,2.12-1c.38-.58.43-.9.43-3s0-2.55-.51-3.17a2.22,2.22,0,0,0-2-1H1.73Z"/><path class="cls-1" d="M10.08,16.1h7.28v1.63H11.81V21h4.74v1.53H11.81v3.35h5.55v1.63H10.08Z"/><path class="cls-1" d="M19.12,24.72a5.24,5.24,0,0,0,3.23,1.14c1.41,0,2.26-.64,2.26-1.58a1.48,1.48,0,0,0-1.49-1.54l-1.5-.21a3.16,3.16,0,0,1-3-3.2C18.59,17.38,20,16,22.31,16A6.74,6.74,0,0,1,26,17.18l-1,1.43a5.3,5.3,0,0,0-2.81-.88c-1.06,0-1.91.54-1.91,1.63,0,.64.46,1.28,1.62,1.46.3.05.73.11,1.28.17a3.25,3.25,0,0,1,3.12,3.29c0,2.09-1.55,3.31-4,3.31A6.39,6.39,0,0,1,18,26Z"/><path class="cls-1" d="M28.16,16.1h1.73V27.49H28.16Z"/><path class="cls-1" d="M36,21.22h4v2.32a4.09,4.09,0,0,1-7.63,2c-.37-.67-.5-1-.5-3.75s.13-3.07.5-3.74A4.09,4.09,0,0,1,40,19.38H38.15A2.31,2.31,0,0,0,36,17.73a2.18,2.18,0,0,0-1.76.83c-.45.58-.58.9-.58,3.23s.13,2.66.58,3.24a2.18,2.18,0,0,0,1.76.83,2.31,2.31,0,0,0,2.34-2.42v-.59H36Z"/><path class="cls-1" d="M41.84,16.1h1.73v7.34a2.32,2.32,0,1,0,4.64,0V16.1h1.73v7.53a4.05,4.05,0,0,1-8.1,0Z"/><path class="cls-1" d="M57.57,25H53.25l-.88,2.54H50.54L54.69,16.1h1.44l4.14,11.39H58.45Zm-.5-1.54-1.65-5h0l-1.65,5Z"/><path class="cls-1" d="M61.49,16.1h1.73v9.76h5.55v1.63H61.49Z"/><path class="cls-1" d="M70.38,16.1h4A3.85,3.85,0,0,1,77.84,18c.56,1,.61,1.39.61,3.77,0,2.57-.13,3-.64,3.81a4.06,4.06,0,0,1-3.55,1.89H70.38Zm1.73,9.76h2.07a2.38,2.38,0,0,0,2.11-1c.38-.58.43-.9.43-3s0-2.55-.51-3.17a2.21,2.21,0,0,0-2-1H72.11Z"/><path class="cls-1" d="M86,25H81.7l-.88,2.54H79L83.14,16.1h1.44l4.14,11.39H86.9Zm-.5-1.54-1.65-5h0l-1.65,5Z"/><path class="cls-1" d="M89.93,16.1h4A3.85,3.85,0,0,1,97.39,18c.56,1,.61,1.39.61,3.77,0,2.57-.13,3-.64,3.81a4.06,4.06,0,0,1-3.55,1.89H89.93Zm1.73,9.76h2.07a2.38,2.38,0,0,0,2.11-1c.39-.58.43-.9.43-3s0-2.55-.51-3.17a2.2,2.2,0,0,0-2-1H91.66Z"/><path class="cls-1" d="M100,16.1h7.29v1.63h-5.56V21h4.74v1.53h-4.74v3.35h5.56v1.63H100Z"/><path class="cls-1" d="M109.05,24.72a5.27,5.27,0,0,0,3.24,1.14c1.41,0,2.25-.64,2.25-1.58a1.48,1.48,0,0,0-1.48-1.54l-1.51-.21a3.15,3.15,0,0,1-3-3.2c0-1.95,1.36-3.33,3.71-3.33a6.75,6.75,0,0,1,3.7,1.18l-1,1.43a5.33,5.33,0,0,0-2.82-.88c-1.06,0-1.91.54-1.91,1.63,0,.64.47,1.28,1.62,1.46.31.05.74.11,1.28.17a3.25,3.25,0,0,1,3.12,3.29c0,2.09-1.55,3.31-4,3.31A6.36,6.36,0,0,1,107.92,26Z"/></g></g></svg>