<svg xmlns="http://www.w3.org/2000/svg" viewBox="0 0 366.42 275.71"><defs><style>.cls-1{fill:#fff;}</style></defs><title>vamosjuntos</title><g id="Camada_2" data-name="Camada 2"><g id="Camada_1-2" data-name="Camada 1"><path class="cls-1" d="M17.23,51H10.84L9.39.43h7.67l-.42,35.3h.14l12-35.3h7.67Z"/><path class="cls-1" d="M46.19.43h6L54.67,51H47.42L47.2,40.13H37.32L33.29,51H26ZM46.69,15h-.14L39.79,33.32H47Z"/><path class="cls-1" d="M67.07.43h7l4.62,26.78h.15L92.72.43h7L90.9,51H83.66L89,20.25h-.15L77.92,42H74.29L71,20.25h-.14L65.47,51H58.22Z"/><path class="cls-1" d="M104.05,12.36A14.69,14.69,0,0,1,118.37,0c5.89,0,11.42,4.12,10,12.36l-4.67,26.71a14.68,14.68,0,0,1-14.31,12.36c-5.9,0-11.43-4.12-10-12.36Zm2.58,26.71c-.61,3.48,1.37,5.11,4,5.11a5.77,5.77,0,0,0,5.8-5.11l4.67-26.71c.61-3.48-1.37-5.11-4-5.11a5.77,5.77,0,0,0-5.8,5.11Z"/><path class="cls-1" d="M157.73,15h-7.25l.29-1.64c.58-3.33-.36-6.1-4.05-6.1-4,0-5.46,3.19-6.05,6.53-.68,3.91-.56,5.26,2.94,6.75l5.16,2.2c6,2.42,6.47,6.47,5.18,13.85-1.49,8.53-5.72,14.85-15.1,14.85-7,0-11.46-5.19-10.26-12l.47-2.7h7.24L135.91,39c-.46,2.63.51,5.18,4.2,5.18,4.91,0,5.77-2.91,6.58-7.53.94-5.4.45-6.25-2.85-7.67L139,26.85c-5.81-2.56-6.72-6.68-5.61-13C134.76,6.18,140,0,148.27,0c7.25,0,11.06,5.83,10.08,11.44Z"/><path class="cls-1" d="M189,39.07a14.72,14.72,0,0,1-14.53,12.36,10.25,10.25,0,0,1-8.65-4.55l6.48-4.54a4.92,4.92,0,0,0,3.66,1.84c1.77,0,5.08-1.06,6-6.11L188.47.43h7.25Z"/><path class="cls-1" d="M219.12,39.64a14.53,14.53,0,0,1-13.78,11.79c-6.47,0-10.82-5.19-9.66-11.79L202.54.43h7.24l-6.73,38.5c-.62,3.55,1,5.25,3.55,5.25s4.78-1.7,5.4-5.25L218.74.43H226Z"/><path class="cls-1" d="M232.52.43h7l5.61,30.47h.14L250.56.43h7.25L249,51h-6.82l-5.76-30.4h-.15L230.91,51h-7.24Z"/><path class="cls-1" d="M267.91,7.25h-8.39l1.2-6.82h24l-1.19,6.82h-8.39L267.5,51h-7.25Z"/><path class="cls-1" d="M318.27,31.61a15,15,0,0,0-1.27,3.2c-.21,1.2.07,2.06,1.28,2.06,4.55,0,11.14-8.46,12.33-15.28,1.74-9.94-6-16.9-16.08-16.9-11.93,0-23.23,10.16-25.17,21.24-2,11.58,5.88,20.81,18.17,20.81,6.89,0,14.52-3.41,18.57-7.46h5.47a32.89,32.89,0,0,1-25.43,12.15c-14.85,0-24.79-11-22.19-25.86C286.44,11.37,300.64,0,315.28,0c13.36,0,23,8.81,20.86,21.24-2.07,11.86-13.64,19.89-19.67,19.89-3.2,0-4.93-1.49-4.76-4.48h-.14c-2.45,2.21-5.05,4.48-9.45,4.48-6.11,0-9.31-4.9-8.27-10.8,1.64-9.37,10.08-19.46,20-19.46,3.33,0,6.45,1.7,7.2,5.54h.14l2.18-4.33h4.47ZM313,16c-6.18,0-12.32,7.89-13.36,13.85-.7,4,1.26,6.18,4.81,6.18,5.4,0,11.78-8.45,12.78-14.13C317.79,18.54,316.39,16,313,16Z"/><path class="cls-1" d="M365.65,15H358.4l.29-1.64c.58-3.33-.35-6.1-4.05-6.1-4,0-5.46,3.19-6,6.53-.69,3.91-.57,5.26,2.94,6.75l5.15,2.2c6,2.42,6.47,6.47,5.18,13.85-1.49,8.53-5.72,14.85-15.1,14.85-7,0-11.45-5.19-10.26-12l.47-2.7h7.25l-.4,2.28c-.46,2.63.51,5.18,4.21,5.18,4.9,0,5.77-2.91,6.57-7.53.95-5.4.46-6.25-2.85-7.67L347,26.85c-5.8-2.56-6.72-6.68-5.61-13C342.68,6.18,347.88,0,356.2,0c7.24,0,11.05,5.83,10.07,11.44Z"/><path class="cls-1" d="M7,67.16H24l-.94,5.38H11.77L9.65,84.66h9.87L18.58,90H8.71l-3,17H0Z"/><path class="cls-1" d="M31.28,67.16H36L38,107.09H32.25l-.18-8.58H24.28l-3.19,8.58H15.37Zm.39,11.49h-.11L26.23,93.13H32Z"/><path class="cls-1" d="M39.81,102.05,55.74,72.54H45.53l.95-5.38H62.91l-.79,4.54-16.25,30h11l-.95,5.38h-17Z"/><path class="cls-1" d="M66.45,67.16h17l-1,5.38H71.22l-2,11.72H79l-.94,5.39H68.23l-2,11.72H77.51l-1,5.72H59.46Z"/><path class="cls-1" d="M87.2,67.16h9.2c6.78,0,9.4,4,8,11.72-.8,4.6-2.68,8-6.68,10l3,18.23H94.68L92.34,90H88.92l-3,17H80.21ZM89.8,85h3.25c4,0,5-2.24,5.69-6.22s.42-6.23-3.79-6.23H92Z"/><path class="cls-1" d="M134.62,98.12a11.48,11.48,0,0,1-10.89,9.31c-5.1,0-8.54-4.09-7.62-9.31l5.42-31h5.72l-5.32,30.4c-.49,2.8.78,4.15,2.8,4.15s3.77-1.35,4.26-4.15l5.32-30.4H140Z"/><path class="cls-1" d="M145.42,67.16h5.5l3.64,21.14h.12l11-21.14h5.55l-7,39.93h-5.72l4.25-24.28h-.11L154,100h-2.86l-2.61-17.16h-.11l-4.25,24.28h-5.72Z"/><path class="cls-1" d="M187,67.16h5.5l3.64,21.14h.12l11-21.14h5.55l-7,39.93h-5.72l4.25-24.28h-.11L195.6,100h-2.86l-2.6-17.16H190l-4.25,24.28h-5.72Z"/><path class="cls-1" d="M224.56,67.16h4.77l1.93,39.93h-5.72l-.18-8.58h-7.8l-3.18,8.58h-5.72Zm.4,11.49h-.11l-5.34,14.48h5.73Z"/><path class="cls-1" d="M240.83,67.16h5.5l4.42,24.06h.12l4.21-24.06h5.72l-7,39.93h-5.38l-4.55-24h-.11l-4.21,24h-5.72Z"/><path class="cls-1" d="M266,67.16h8.47c6.45,0,9.36,3.87,8.23,10.32l-3.27,18.68c-1.29,7.4-5.72,10.93-12.45,10.93h-8Zm-.33,34.55h2.64c3.2,0,4.71-1.57,5.31-5l3.36-19.24c.55-3.14-.2-4.94-3.57-4.94h-2.63Z"/><path class="cls-1" d="M295.52,67.16h4.77l1.93,39.93H296.5l-.19-8.58h-7.79l-3.19,8.58h-5.72Zm.4,11.49h-.11l-5.34,14.48h5.72Z"/><path class="cls-1" d="M311.74,72.54h-6.62l.95-5.38H325l-.94,5.38h-6.62l-6,34.55H305.7Z"/><path class="cls-1" d="M324.89,76.58a11.59,11.59,0,0,1,11.3-9.76c4.65,0,9,3.25,7.88,9.76l-3.69,21.09a11.59,11.59,0,0,1-11.3,9.76c-4.65,0-9-3.25-7.88-9.76Zm2,21.09c-.48,2.75,1.09,4,3.16,4a4.55,4.55,0,0,0,4.58-4l3.69-21.09c.48-2.75-1.09-4-3.16-4a4.55,4.55,0,0,0-4.58,4Z"/><path class="cls-1" d="M156.19,123.25h5.72l-7,39.94H149.2Z"/><path class="cls-1" d="M167.24,123.25h5.5l4.42,24.06h.12l4.21-24.06h5.72l-7,39.94h-5.39l-4.54-24h-.12l-4.2,24h-5.72Z"/><path class="cls-1" d="M190.38,132.67a11.59,11.59,0,0,1,11.3-9.76c4.66,0,9,3.25,7.89,9.76l-3.69,21.09a11.59,11.59,0,0,1-11.3,9.76c-4.66,0-9-3.25-7.89-9.76Zm2,21.09c-.48,2.75,1.09,4,3.17,4a4.55,4.55,0,0,0,4.57-4l3.69-21.09c.48-2.75-1.08-4-3.16-4a4.56,4.56,0,0,0-4.58,4Z"/><path class="cls-1" d="M219.48,163.19h-5l-1.14-39.94h6.06L219,151.13h.12l9.47-27.88h6.06Z"/><path class="cls-1" d="M242.35,123.25h4.76L249,163.19h-5.72l-.18-8.59h-7.79l-3.19,8.59h-5.72Zm.4,11.5h-.12l-5.33,14.47H243Z"/><path class="cls-1" d="M258.84,123.25h8.47c6.45,0,9.36,3.87,8.23,10.32l-3.27,18.68c-1.29,7.4-5.73,10.94-12.46,10.94h-8Zm-.33,34.55h2.64c3.2,0,4.71-1.57,5.3-5l3.37-19.24c.55-3.14-.2-4.94-3.57-4.94h-2.63Z"/><path class="cls-1" d="M280.75,132.67A11.58,11.58,0,0,1,292,122.91c4.66,0,9,3.25,7.89,9.76l-3.69,21.09a11.59,11.59,0,0,1-11.3,9.76c-4.66,0-9-3.25-7.88-9.76Zm2,21.09c-.48,2.75,1.09,4,3.16,4a4.55,4.55,0,0,0,4.58-4l3.69-21.09c.48-2.75-1.09-4-3.17-4a4.55,4.55,0,0,0-4.57,4Z"/><path class="cls-1" d="M306.63,123.25h9.2c6.78,0,9.4,4,8,11.72-.8,4.6-2.68,8-6.68,10l3,18.23h-6.06l-2.35-17.06h-3.42l-3,17.06h-5.72Zm2.6,17.83h3.25c4,0,5-2.24,5.69-6.22s.42-6.23-3.79-6.23h-3Z"/><path class="cls-1" d="M324.2,157.46h5.72l-1,5.73-6.45,4.15Z"/><path class="cls-1" d="M54.18,210.36c-.87,4.93-5.61,9.25-10.71,9.25-4.37,0-9-2.13-7.77-9.42l3.84-22A11.05,11.05,0,0,1,50.46,179c5.28,0,8.51,4,7.54,9.54l-.4,2.24H51.88l.33-1.9c.4-2.25-.62-4.16-2.8-4.16-2.86,0-3.88,2-4.35,4.66L41.49,209.8c-.41,2.3.18,4.09,2.76,4.09,1.57,0,3.74-.9,4.29-4l.35-2h5.72Z"/><path class="cls-1" d="M62.27,188.76A11.6,11.6,0,0,1,73.57,179c4.66,0,9,3.26,7.89,9.76l-3.69,21.09a11.59,11.59,0,0,1-11.3,9.76c-4.66,0-9-3.25-7.89-9.76Zm2,21.09c-.48,2.75,1.09,4,3.17,4a4.55,4.55,0,0,0,4.57-4l3.7-21.09c.48-2.75-1.09-4-3.17-4a4.55,4.55,0,0,0-4.57,4Z"/><path class="cls-1" d="M88.15,179.34h5.73l-6,34.22H99.22l-1,5.72h-17Z"/><path class="cls-1" d="M115.25,179.34H120l1.93,39.94h-5.72l-.18-8.59h-7.79l-3.19,8.59H99.34Zm.4,11.5h-.12l-5.33,14.47h5.72Z"/><path class="cls-1" d="M131.74,179.34h8.35c7.41,0,9.3,4.88,8.39,10.1l-.26,1.45c-.74,4.27-2.42,5.84-5.22,7.41,2.47,1.29,3.28,3.7,2.56,7.85l-.4,2.24c-1.21,7-5.21,10.89-12.61,10.89h-7.8Zm-.27,34.22h2.47c4.6,0,5.43-2.81,6.11-6.74s.33-6-3.82-6h-2.52Zm3.12-17.84h2.58c3.82,0,5.17-2,5.81-5.61s-.35-5.39-4.11-5.39h-2.35Z"/><path class="cls-1" d="M153.65,188.76A11.59,11.59,0,0,1,165,179c4.65,0,9,3.26,7.88,9.76l-3.69,21.09a11.59,11.59,0,0,1-11.3,9.76c-4.66,0-9-3.25-7.88-9.76Zm2,21.09c-.48,2.75,1.09,4,3.16,4a4.55,4.55,0,0,0,4.58-4l3.69-21.09c.48-2.75-1.09-4-3.17-4a4.55,4.55,0,0,0-4.57,4Z"/><path class="cls-1" d="M179.53,179.34h9.2c6.78,0,9.4,4,8,11.72-.8,4.6-2.68,8-6.68,10l3,18.23H187l-2.35-17.06h-3.42l-3,17.06h-5.72Zm2.6,17.84h3.25c4,0,5-2.25,5.69-6.23s.42-6.23-3.79-6.23h-3Z"/><path class="cls-1" d="M209.76,179.34h4.77l1.93,39.94h-5.72l-.19-8.59h-7.79l-3.19,8.59h-5.72Zm.4,11.5h-.11l-5.34,14.47h5.72Z"/><path class="cls-1" d="M226,184.72h-6.62l.95-5.38h18.95l-.94,5.38H231.7l-6,34.56h-5.72Z"/><path class="cls-1" d="M242,179.34h5.72l-7,39.94H235Z"/><path class="cls-1" d="M257.46,219.28h-5l-1.14-39.94h6L257,207.22h.11l9.48-27.88h6.06Z"/><path class="cls-1" d="M274.07,188.76a11.6,11.6,0,0,1,11.3-9.76c4.66,0,9,3.26,7.89,9.76l-3.69,21.09a11.59,11.59,0,0,1-11.3,9.76c-4.66,0-9-3.25-7.89-9.76Zm2,21.09c-.48,2.75,1.09,4,3.17,4a4.55,4.55,0,0,0,4.57-4l3.69-21.09c.49-2.75-1.08-4-3.16-4a4.57,4.57,0,0,0-4.58,4Z"/><path class="cls-1" d="M310.39,179.34h17.05l-.94,5.38H315.17l-2.06,11.73H323l-.95,5.38h-9.87l-2.05,11.73h11.33l-1,5.72H303.4Z"/><path class="cls-1" d="M16.88,240.81H10.26l.94-5.38h19l-.94,5.38H22.6l-6.05,34.56H10.83Z"/><path class="cls-1" d="M32.68,235.43h9.2c6.79,0,9.4,4,8,11.72-.8,4.6-2.68,8-6.68,10l3,18.23H40.16l-2.34-17.05H34.4l-3,17.05H25.69Zm2.6,17.84h3.25c4,0,5-2.25,5.69-6.23s.42-6.23-3.79-6.23h-3Z"/><path class="cls-1" d="M62.91,235.43h4.77l1.93,39.94H63.89l-.18-8.58h-7.8l-3.18,8.58H47Zm.4,11.5H63.2L57.87,261.4h5.72Z"/><path class="cls-1" d="M79.18,235.43h5.5l4.43,24.06h.11l4.21-24.06h5.72l-7,39.94H86.78l-4.55-24h-.12l-4.2,24H72.19Z"/><path class="cls-1" d="M120.81,246.93h-5.73l.23-1.29c.46-2.64-.28-4.83-3.19-4.83-3.14,0-4.32,2.53-4.78,5.16-.54,3.09-.44,4.16,2.32,5.33l4.08,1.74c4.71,1.91,5.1,5.11,4.08,10.94-1.18,6.73-4.52,11.73-11.92,11.73-5.55,0-9-4.1-8.1-9.49l.37-2.13h5.72l-.31,1.8c-.37,2.07.4,4.09,3.32,4.09,3.87,0,4.55-2.3,5.19-5.94.75-4.27.36-4.94-2.25-6.06L106,256.3c-4.58-2-5.3-5.28-4.43-10.27,1.06-6.06,5.17-10.94,11.73-10.94,5.72,0,8.73,4.6,8,9Z"/><path class="cls-1" d="M127.08,235.43h17l-.94,5.38H131.86l-2.12,12.12h9.87l-.94,5.39H128.8l-3,17.05h-5.72Z"/><path class="cls-1" d="M145.85,244.85a11.6,11.6,0,0,1,11.3-9.76c4.65,0,9,3.26,7.88,9.76l-3.69,21.09a11.6,11.6,0,0,1-11.3,9.77c-4.65,0-9-3.26-7.88-9.77Zm2,21.09c-.48,2.75,1.09,4,3.16,4a4.55,4.55,0,0,0,4.58-4l3.69-21.09c.48-2.75-1.09-4-3.16-4a4.55,4.55,0,0,0-4.58,4Z"/><path class="cls-1" d="M171.73,235.43h9.2c6.79,0,9.4,4,8,11.72-.8,4.6-2.68,8-6.68,10l3,18.23h-6.06l-2.34-17.05h-3.42l-3,17.05h-5.72Zm2.6,17.84h3.25c4,0,5-2.25,5.69-6.23s.42-6.23-3.79-6.23h-3Z"/><path class="cls-1" d="M195.62,235.43h5.5l3.65,21.15h.11l11-21.15h5.56l-7,39.94h-5.72L213,251.08h-.12l-8.66,17.16h-2.87l-2.6-17.16h-.11l-4.25,24.29h-5.73Z"/><path class="cls-1" d="M233.15,235.43h4.77l1.93,39.94h-5.72l-.19-8.58h-7.79L223,275.37h-5.72Zm.4,11.5h-.11L228.1,261.4h5.72Z"/><path class="cls-1" d="M249.64,235.43h8.47c6.45,0,9.36,3.87,8.23,10.32l-3.27,18.68c-1.29,7.4-5.72,10.94-12.45,10.94h-8ZM249.31,270H252c3.2,0,4.71-1.57,5.31-5l3.36-19.24c.55-3.14-.2-4.94-3.57-4.94h-2.63Z"/><path class="cls-1" d="M271.55,244.85a11.6,11.6,0,0,1,11.3-9.76c4.65,0,9,3.26,7.88,9.76L287,265.94a11.6,11.6,0,0,1-11.3,9.77c-4.65,0-9-3.26-7.88-9.77Zm2,21.09c-.48,2.75,1.09,4,3.16,4a4.55,4.55,0,0,0,4.58-4L285,244.85c.48-2.75-1.09-4-3.16-4a4.55,4.55,0,0,0-4.58,4Z"/><path class="cls-1" d="M297.43,235.43h9.2c6.79,0,9.4,4,8,11.72-.8,4.6-2.68,8-6.68,10l3,18.23h-6.06l-2.34-17.05h-3.42l-3,17.05h-5.72Zm2.6,17.84h3.25c4,0,5-2.25,5.69-6.23s.42-6.23-3.79-6.23h-3Z"/><path class="cls-1" d="M315,269.65h5.72l-1,5.72H314Z"/></g></g></svg>