<svg xmlns="http://www.w3.org/2000/svg" viewBox="0 0 236.68 337.37"><defs><style>.cls-1{fill:#009684;}.cls-2{fill:#fff;}</style></defs><title>visaodebrasil</title><g id="Camada_2" data-name="Camada 2"><g id="Camada_1-2" data-name="Camada 1"><path class="cls-1" d="M16.82,233.63h7.36l10.46,35h.13l10.46-35h7.36l-15.17,46H32Z"/><path class="cls-1" d="M57.5,233.63h7v46h-7Z"/><path class="cls-1" d="M74.74,268.42a21.14,21.14,0,0,0,13,4.59c5.68,0,9.1-2.58,9.1-6.39,0-3.23-1.87-5.68-6-6.2-2.07-.26-3.68-.52-6.07-.84-7.94-1.1-12.2-6.26-12.2-12.91,0-7.88,5.48-13.43,15-13.43A26.94,26.94,0,0,1,102.5,238l-3.88,5.74a21.43,21.43,0,0,0-11.36-3.55c-4.26,0-7.68,2.2-7.68,6.59,0,2.58,1.87,5.16,6.52,5.87,1.23.2,3,.45,5.16.71,8.59,1,12.59,7,12.59,13.24,0,8.45-6.26,13.36-16.14,13.36a25.71,25.71,0,0,1-17.56-6.33Z"/><path class="cls-1" d="M134.78,269.33H117.35l-3.55,10.26h-7.36l16.72-46H129l16.72,46h-7.36Zm-20.21-38.61c.58-4.45,3.42-7.49,7.3-7.49,3.23,0,6.13,2.46,8.78,2.46,1.22,0,2.58-.46,3-2.84h3.88c-.71,3.87-2.78,7.49-7.1,7.49-3.3,0-6.72-2.39-9.3-2.39a2.66,2.66,0,0,0-2.71,2.77Zm18.21,32.41-6.65-20.08H126l-6.65,20.08Z"/><path class="cls-1" d="M149.89,241.5a16.68,16.68,0,0,1,28.8,0c1.48,2.71,2,4.07,2,15.11s-.52,12.4-2,15.11a16.68,16.68,0,0,1-28.8,0c-1.48-2.71-2-4.07-2-15.11S148.41,244.21,149.89,241.5Zm7.3,28.15a9.18,9.18,0,0,0,14.2,0c1.81-2.32,2.32-3.61,2.32-13s-.51-10.72-2.32-13a9.18,9.18,0,0,0-14.2,0c-1.81,2.32-2.33,3.61-2.33,13S155.38,267.33,157.19,269.65Z"/><path class="cls-1" d="M195.84,253.55h9.37a9.08,9.08,0,0,1,8.17,4.51c1.32,2.26,1.43,3.28,1.43,8.89,0,6-.3,7.08-1.5,9a9.57,9.57,0,0,1-8.36,4.44h-9.11Zm4.07,23h4.85a5.56,5.56,0,0,0,5-2.33c.9-1.36,1-2.11,1-7.08s-.12-6-1.21-7.45a5.17,5.17,0,0,0-4.78-2.26h-4.85Z"/><path class="cls-1" d="M219.55,253.55h17.13v3.84H223.62V265h11.14v3.61H223.62v7.87h13.06v3.84H219.55Z"/><path class="cls-1" d="M28.16,291H46c9,0,13.62,5.1,13.62,12.33,0,3.81-1.42,7.49-6.77,9.88v.13c5,1.16,7.48,5.94,7.48,10.59,0,7.94-5.87,13-12.78,13H28.16Zm7,6.2v13.17H45.21c5,0,7.42-3,7.42-6.59s-2.39-6.58-7.42-6.58Zm0,19.37V330.4H45.85c5.17,0,7.49-3.29,7.49-6.91s-2.32-6.9-7.49-6.9Z"/><path class="cls-1" d="M67.55,291h18c3.87,0,6.9.9,9.36,3a13.25,13.25,0,0,1-4.33,22.54L101.18,337H92.92l-9.49-19.63H74.52V337h-7Zm7,20.14H85c5.23,0,7.82-3.42,7.82-7.29a6.21,6.21,0,0,0-2.33-5.23,7.74,7.74,0,0,0-5.1-1.42H74.52Z"/><path class="cls-1" d="M130.5,326.72H113.07L109.52,337h-7.36l16.72-46h5.81l16.72,46h-7.36Zm-2-6.2-6.65-20.07h-.13l-6.65,20.07Z"/><path class="cls-1" d="M146.9,325.82a21.21,21.21,0,0,0,13,4.58c5.68,0,9.1-2.58,9.1-6.39,0-3.23-1.87-5.68-6-6.2-2.07-.26-3.68-.51-6.07-.84-7.94-1.09-12.2-6.26-12.2-12.91,0-7.88,5.49-13.43,15-13.43a26.93,26.93,0,0,1,14.91,4.78l-3.87,5.75a21.5,21.5,0,0,0-11.37-3.56c-4.26,0-7.68,2.2-7.68,6.59,0,2.58,1.87,5.16,6.52,5.87,1.23.2,3,.46,5.17.72,8.58,1,12.59,7,12.59,13.23,0,8.46-6.27,13.36-16.14,13.36a25.76,25.76,0,0,1-17.56-6.32Z"/><path class="cls-1" d="M183.38,291h7v46h-7Z"/><path class="cls-1" d="M200,291h7V330.4h22.4V337H200Z"/><path class="cls-1" d="M13.35,144c-.28-1.92-1.54-3.56-1.37-5.83-3.5,1.61-5.13-2.32-5.78-3.76C-4.48,110.41-.24,73,10.43,49.87,26.58,30.68,45.43,14.24,70,4.23A230,230,0,0,1,129,.53c2.52.2,3.94,2,4.73,2.15,39.94,10.2,61.13,37.69,71.72,73.16,17.52,41.79-7,89.24-38.17,104-3.89,1.85-6.81,5.84-8.28,8.89-8.4,2.23-15.48,5.28-22.38,8.1-15.42,2.05-36.37,2.89-49.59-2.15-3.94-1.49-8-3.92-10.07-7.21l-1,0c-.55-.46-1-2-2.29-1.24-4.28,2.24-9.72,1.17-13.9-.5C39,177.6,26.48,162.06,13.38,146.4l-.16-.83Z"/><path class="cls-2" d="M105.65,158.92l-93.07-62,93.07-62,93.07,62.05Zm-86.71-62,86.71,57.81,86.72-57.81L105.65,39.07Z"/><path class="cls-2" d="M105.65,158.57c-47,0-88.78-25.13-101.54-61.1l-.21-.59.21-.59c12.76-36,54.51-61.1,101.54-61.1s88.79,25.12,101.55,61.1l.2.59-.2.59C194.44,133.44,152.69,158.57,105.65,158.57Zm-98-61.69c12.52,34.28,52.71,58.16,98,58.16s85.5-23.88,98-58.16c-12.51-34.28-52.7-58.17-98-58.17S20.16,62.6,7.64,96.88Z"/><circle class="cls-2" cx="105.65" cy="96.88" r="39.95"/><path class="cls-2" d="M105.65,138.59a41.72,41.72,0,1,1,41.72-41.71A41.76,41.76,0,0,1,105.65,138.59Zm0-79.9a38.19,38.19,0,1,0,38.19,38.19A38.23,38.23,0,0,0,105.65,58.69Z"/><circle class="cls-1" cx="105.65" cy="96.88" r="9.99"/><circle class="cls-1" cx="130.62" cy="71.91" r="14.98"/><path class="cls-2" d="M130.62,88.65a16.75,16.75,0,1,1,16.75-16.74A16.76,16.76,0,0,1,130.62,88.65Zm0-30a13.22,13.22,0,1,0,13.22,13.22A13.23,13.23,0,0,0,130.62,58.69Z"/></g></g></svg>