<svg xmlns="http://www.w3.org/2000/svg" viewBox="0 0 348.5 168.23"><defs><style>.cls-1,.cls-2{fill:#009684;}.cls-2{fill-rule:evenodd;}.cls-3{fill:#e84e1b;}.cls-4{fill:#0a7e6f;}.cls-5{fill:#fff;}.cls-6{fill:#575756;}</style></defs><title>vote-zegustavo</title><g id="Camada_2" data-name="Camada 2"><g id="Camada_1-2" data-name="Camada 1"><path class="cls-1" d="M158.25,16.92V2.59h26.34V67.68h-17V16.92Z"/><path class="cls-1" d="M239.6,18.56a15.43,15.43,0,0,1-10.31,14.76v.18c7.8,2.59,13,8.54,13,17.09,0,13.47-13.7,19.68-25,19.68s-25-6.21-25-19.68c0-8.55,5.2-14.5,13-17.09v-.18a15.43,15.43,0,0,1-10.31-14.76C195.06,6.13,206.15,0,217.33,0S239.6,6.13,239.6,18.56ZM209.53,48.43a7.8,7.8,0,1,0,15.6,0,7.81,7.81,0,1,0-15.6,0Zm.61-29.35a7.19,7.19,0,1,0,7.19-7.34A7.25,7.25,0,0,0,210.14,19.08Z"/><path class="cls-1" d="M244.87,16.92V2.59h26.34V67.68h-17V16.92Z"/><path class="cls-1" d="M287.92,67.68l18.63-21.92-.17-.18a21.6,21.6,0,0,1-9.19,2c-12.82,0-21-11-21-23,0-16,13.18-24.6,28.08-24.6,6.33,0,13.6,1.55,18.63,5.61a23.69,23.69,0,0,1,8.75,18c0,9.41-4.85,18.47-10.48,25.9L307.25,67.68Zm6-43.59a10.45,10.45,0,0,0,10.49,10.7,10.71,10.71,0,1,0,0-21.41A10.46,10.46,0,0,0,293.9,24.09Z"/><polygon class="cls-2" points="55.91 116.65 20.94 116.65 40.91 85.77 24.89 85.77 24.89 77.22 57.54 77.22 58.18 77.22 65.55 77.22 66.88 74.67 74.47 74.67 72.2 77.22 81.78 77.22 81.78 85.88 68.06 85.88 68.06 92.72 81 92.72 81 101.15 68.06 101.15 68.06 107.82 81.78 107.82 81.78 116.65 57.54 116.65 57.54 78.22 38.26 108.05 55.91 108.05 55.91 116.65"/><path class="cls-3" d="M155.4,92.77v2.68a60.15,60.15,0,0,1-.21,6,11.51,11.51,0,0,1-.74,3.07,4.53,4.53,0,0,1-2.15,2.3,9.33,9.33,0,0,1-7.47,0,4.41,4.41,0,0,1-2.15-2.3,11.17,11.17,0,0,1-.73-3.07,59.37,59.37,0,0,1-.22-6V76.36H131.05V97.1a41.6,41.6,0,0,0,.79,9.54,13.14,13.14,0,0,0,2.62,5.24,12.48,12.48,0,0,0,5.56,3.58,31.35,31.35,0,0,0,17.11,0,12.2,12.2,0,0,0,5.54-3.58,12.92,12.92,0,0,0,2.64-5.24,42.31,42.31,0,0,0,.78-9.54V76.36H155.4Z"/><path class="cls-3" d="M221.63,76.36H193.25V78.8a20.11,20.11,0,0,0-5.33-2.51,21.52,21.52,0,0,0-6.18-.87A13.75,13.75,0,0,0,171.93,79a12,12,0,0,0-3.78,9.19,9.44,9.44,0,0,0,2.4,6.83c1.59,1.66,4.33,3,8.19,4.05q4.22,1.13,5.41,2.18a3.8,3.8,0,0,1,1.19,3,3.62,3.62,0,0,1-1.39,2.92,5.32,5.32,0,0,1-3.53,1.15,9.36,9.36,0,0,1-4.64-1.33,19.61,19.61,0,0,1-4.72-4l-4.84,8a21.31,21.31,0,0,0,6.49,4.38,19.73,19.73,0,0,0,7.51,1.39q6.85,0,11-3.8a13,13,0,0,0,4.11-10,13.38,13.38,0,0,0-.72-4.49,9.74,9.74,0,0,0-2.13-3.47q-2.07-2.11-8.64-3.88l-.49-.14a11.67,11.67,0,0,1-4.1-1.68,3,3,0,0,1-1-2.37,2.83,2.83,0,0,1,1.21-2.36,5,5,0,0,1,3.14-.93,10,10,0,0,1,3.8.79,14.24,14.24,0,0,1,3.76,2.34l3.16-7.21v6.22h8.82v30h10.74v-30h8.82Z"/><path class="cls-3" d="M129.59,92.93h-21.1v8.24h10.69a7.58,7.58,0,0,1-3.2,5.3,11.25,11.25,0,0,1-6.82,2,9.49,9.49,0,0,1-7.6-3.22c-1.84-2.14-2.77-5.08-2.77-8.81s.93-6.62,2.77-8.76a9.54,9.54,0,0,1,7.6-3.2,9.68,9.68,0,0,1,4.67,1.12A11.23,11.23,0,0,1,117.59,89l9.31-4.45a20,20,0,0,0-7.49-6.77,22.19,22.19,0,0,0-10.24-2.28A23,23,0,0,0,100.89,77,20,20,0,0,0,94.1,81.3a19.63,19.63,0,0,0-4.49,6.63A21.21,21.21,0,0,0,88.1,96a21.55,21.55,0,0,0,1.54,8A19.9,19.9,0,0,0,94,110.72a18.7,18.7,0,0,0,6.65,4.38,23.52,23.52,0,0,0,8.52,1.44q9.74,0,15.1-5.59t5.38-15.71c0-.63,0-1.1,0-1.42S129.61,93.2,129.59,92.93Z"/><path class="cls-3" d="M325.77,88.13a20.33,20.33,0,0,0-4.54-6.62A21,21,0,0,0,314.39,77a21.73,21.73,0,0,0-16.17,0,20.78,20.78,0,0,0-6.79,4.47,20,20,0,0,0-4.62,6.63,20.11,20.11,0,0,0,4.62,22.48,20.75,20.75,0,0,0,6.79,4.46,21.47,21.47,0,0,0,16.12,0,21.61,21.61,0,0,0,6.89-4.46,20,20,0,0,0,6.11-14.56A20.29,20.29,0,0,0,325.77,88.13ZM300.14,106V86L316,96Z"/><path class="cls-3" d="M278.18,76.36l-7.83,22c-.12.38-.31,1-.56,2s-.52,2-.81,3.23c-.35-1.5-.65-2.69-.87-3.57s-.38-1.45-.45-1.68l-7.88-22h-11.4L264.9,115.6h8.17l16.52-39.24Z"/><polygon class="cls-3" points="228.68 76.36 215.08 115.6 225.77 115.6 227.82 108.58 243.07 108.58 245.07 115.6 255.75 115.6 242.14 76.36 228.68 76.36"/><polygon class="cls-4" points="0 168.23 21.4 168.23 33.63 162.12 21.4 133.08 0 133.08 10.7 151.91 0 168.23"/><polygon class="cls-4" points="348.5 168.23 327.1 168.23 314.87 162.12 327.1 133.08 348.5 133.08 337.8 151.91 348.5 168.23"/><rect class="cls-1" x="18.34" y="126.96" width="312.75" height="35.16"/><path class="cls-5" d="M37.9,146.73a4.49,4.49,0,0,1-4.59,3.76,4.65,4.65,0,0,1-4.09-2.35c-.42-.77-.56-1.15-.56-4.29s.14-3.52.56-4.29a4.65,4.65,0,0,1,4.09-2.35,4.6,4.6,0,0,1,4.59,3.87H35.81a2.64,2.64,0,0,0-2.5-1.89,2.51,2.51,0,0,0-2,.95c-.52.66-.66,1-.66,3.71s.14,3,.66,3.7a2.49,2.49,0,0,0,2,1,2.7,2.7,0,0,0,2.5-1.78Z"/><path class="cls-5" d="M39.42,139.56a4.73,4.73,0,0,1,8.18,0c.42.77.57,1.15.57,4.29s-.15,3.52-.57,4.29a4.73,4.73,0,0,1-8.18,0c-.42-.77-.57-1.15-.57-4.29S39,140.33,39.42,139.56Zm2.07,8a2.52,2.52,0,0,0,2,1,2.49,2.49,0,0,0,2-1c.51-.66.66-1,.66-3.7s-.15-3-.66-3.71a2.51,2.51,0,0,0-2-.95,2.54,2.54,0,0,0-2,.95c-.51.66-.66,1-.66,3.71S41,146.89,41.49,147.55Z"/><path class="cls-5" d="M50.48,137.32h1.87l3.74,8.51,3.67-8.51h1.87v13.06h-2v-8.15h0l-2.74,6.28H55.23l-2.73-6.28h0v8.15h-2Z"/><path class="cls-5" d="M64.39,137.32h4.73a4.28,4.28,0,0,1,2.93.92,3.86,3.86,0,0,1,1.41,3.11,3.94,3.94,0,0,1-4.09,3.93h-3v5.1h-2Zm2,6.09H69.3a2.06,2.06,0,0,0,2.18-2.11,1.94,1.94,0,0,0-.84-1.74,2.25,2.25,0,0,0-1.41-.37H66.37Z"/><path class="cls-5" d="M75.26,137.32h5.1a3.87,3.87,0,0,1,2.66.86,3.76,3.76,0,0,1-1.23,6.4l3,5.8H82.47l-2.7-5.58H77.24v5.58h-2Zm2,5.72h3A2,2,0,0,0,82.45,141a1.79,1.79,0,0,0-.66-1.49,2.24,2.24,0,0,0-1.45-.4h-3.1Z"/><path class="cls-5" d="M86.58,139.56a4.73,4.73,0,0,1,8.18,0c.42.77.57,1.15.57,4.29s-.15,3.52-.57,4.29a4.73,4.73,0,0,1-8.18,0c-.42-.77-.57-1.15-.57-4.29S86.16,140.33,86.58,139.56Zm2.07,8a2.49,2.49,0,0,0,2,1,2.52,2.52,0,0,0,2-1c.51-.66.66-1,.66-3.7s-.15-3-.66-3.71a2.54,2.54,0,0,0-2-.95,2.51,2.51,0,0,0-2,.95c-.51.66-.66,1-.66,3.71S88.14,146.89,88.65,147.55Z"/><path class="cls-5" d="M97.64,137.32h1.87l3.74,8.51,3.67-8.51h1.87v13.06h-2v-8.15h0L104,148.51h-1.65l-2.73-6.28h0v8.15h-2Z"/><path class="cls-5" d="M111.54,137.32h8.35v1.87h-6.37v3.72H119v1.76h-5.43v3.84h6.37v1.87h-8.35Z"/><path class="cls-5" d="M124,139.08h-3.58v-1.76h9.14v1.76h-3.58v11.3h-2Z"/><path class="cls-5" d="M130.91,137.32h2v13.06h-2Z"/><path class="cls-5" d="M135.64,137.32h1.87l3.75,8.51,3.66-8.51h1.87v13.06h-2v-8.15h0L142,148.51h-1.65l-2.73-6.28h0v8.15h-2Z"/><path class="cls-5" d="M149.55,137.32h8.34v1.87h-6.36v3.72H157v1.76h-5.43v3.84h6.36v1.87h-8.34Z"/><path class="cls-5" d="M159.74,137.32h1.88l5.9,9.28h0v-9.28h2v13.06h-1.87l-5.91-9.28h0v9.28h-2Z"/><path class="cls-5" d="M174.51,139.08h-3.58v-1.76h9.14v1.76h-3.58v11.3h-2Z"/><path class="cls-5" d="M181.26,139.56a4.73,4.73,0,0,1,8.18,0c.42.77.57,1.15.57,4.29s-.15,3.52-.57,4.29a4.73,4.73,0,0,1-8.18,0c-.42-.77-.57-1.15-.57-4.29S180.84,140.33,181.26,139.56Zm2.07,8a2.61,2.61,0,0,0,4,0c.51-.66.66-1,.66-3.7s-.15-3-.66-3.71a2.62,2.62,0,0,0-4,0c-.51.66-.66,1-.66,3.71S182.82,146.89,183.33,147.55Z"/><path class="cls-5" d="M196.72,137.32h8.35v1.87H198.7v3.72h5.43v1.76H198.7v3.84h6.37v1.87h-8.35Z"/><path class="cls-5" d="M211.32,137.32h8.35v1.87H213.3v3.72h5.43v1.76H213.3v3.84h6.37v1.87h-8.35Z"/><path class="cls-5" d="M225.06,145.52l-2.86,4.86H220l4-6.7-3.74-6.36h2.24l2.6,4.53,2.6-4.53h2.24l-3.74,6.36,4,6.7h-2.24Z"/><path class="cls-5" d="M231.35,137.32h4.73a4.29,4.29,0,0,1,2.94.92,3.86,3.86,0,0,1,1.41,3.11,3.94,3.94,0,0,1-4.09,3.93h-3v5.1h-2Zm2,6.09h2.94a2.07,2.07,0,0,0,2.18-2.11,1.94,1.94,0,0,0-.84-1.74,2.28,2.28,0,0,0-1.42-.37h-2.86Z"/><path class="cls-5" d="M242.23,137.32h8.34v1.87h-6.36v3.72h5.43v1.76h-5.43v3.84h6.36v1.87h-8.34Z"/><path class="cls-5" d="M252.43,137.32h5.09a3.84,3.84,0,0,1,2.66.86,3.75,3.75,0,0,1-1.22,6.4l3,5.8h-2.35l-2.69-5.58h-2.53v5.58h-2Zm2,5.72h3a2,2,0,0,0,2.22-2.07,1.79,1.79,0,0,0-.66-1.49,2.26,2.26,0,0,0-1.45-.4h-3.1Z"/><path class="cls-5" d="M263.61,137.32h2v13.06h-2Z"/><path class="cls-5" d="M268.35,137.32h8.34v1.87h-6.36v3.72h5.43v1.76h-5.43v3.84h6.36v1.87h-8.34Zm4.27-2.22-1.23,1.58h-1.76l1.94-2.68h2.1l1.94,2.68h-1.76Z"/><path class="cls-5" d="M278.55,137.32h1.87l5.9,9.28h0v-9.28h2v13.06h-1.87l-5.91-9.28h0v9.28h-2Z"/><path class="cls-5" d="M299.89,146.73a4.48,4.48,0,0,1-4.58,3.76,4.64,4.64,0,0,1-4.09-2.35c-.42-.77-.57-1.15-.57-4.29s.15-3.52.57-4.29a4.68,4.68,0,0,1,8.67,1.52H297.8a2.63,2.63,0,0,0-2.49-1.89,2.53,2.53,0,0,0-2,.95c-.51.66-.66,1-.66,3.71s.15,3,.66,3.7a2.51,2.51,0,0,0,2,1,2.69,2.69,0,0,0,2.49-1.78Z"/><path class="cls-5" d="M301.29,137.32h2v13.06h-2Z"/><path class="cls-5" d="M312.72,147.46h-5l-1,2.92h-2.1l4.75-13.06h1.65l4.76,13.06h-2.1Zm-.57-1.76-1.89-5.7h0l-1.89,5.7Z"/><path class="cls-6" d="M42.89,67.78h-8.1L21.72,2.66h9.73l7.3,45.45h.18L46.32,2.66h9.73Z"/><path class="cls-6" d="M58.75,18c0-10.61,7.93-15.91,15.4-15.91S89.56,7.41,89.56,18V52.41c0,10.61-7.93,15.91-15.41,15.91S58.75,63,58.75,52.41Zm9.19,34.39c0,4.48,2.88,6.59,6.21,6.59s6.22-2.11,6.22-6.59V18c0-4.48-2.88-6.58-6.22-6.58s-6.21,2.1-6.21,6.58Z"/><path class="cls-6" d="M100.37,11.44H89.74V2.66h30.45v8.78H109.56V67.78h-9.19Z"/><path class="cls-6" d="M122,2.66h27.38v8.78H131.18V30.55H147v8.78H131.18V58.45h18.19v9.33H122Z"/></g></g></svg>