<svg xmlns="http://www.w3.org/2000/svg" viewBox="0 0 329.22 110"><defs><style>.cls-1{fill:#004c24;}.cls-1,.cls-3{fill-rule:evenodd;}.cls-2{fill:#063;}.cls-3,.cls-4{fill:#dddb00;}.cls-5{fill:#009684;}</style></defs><title>zapdoze</title><g id="Camada_2" data-name="Camada 2"><g id="Camada_1-2" data-name="Camada 1"><polygon class="cls-1" points="308.78 110 329.22 109.82 322.73 86.82 328.79 61.09 308.35 61.27 308.78 110"/><rect class="cls-2" y="54.26" width="317.99" height="48.74"/><path class="cls-3" d="M129.44,77.53a17.53,17.53,0,0,1-26,15.2l-9.69,3.08L97,86.5a17.15,17.15,0,0,1-2.51-9,17.5,17.5,0,0,1,35,0Zm-17.5-14.6a14.68,14.68,0,0,0-14.72,14.6A14.41,14.41,0,0,0,100,86.09l-1.84,5.42,5.65-1.8a14.64,14.64,0,1,0,8.1-26.78Zm8.84,18.6c-.11-.18-.4-.29-.83-.5s-2.54-1.24-2.93-1.38-.68-.22-1,.21-1.11,1.38-1.36,1.67-.5.32-.93.1a11.64,11.64,0,0,1-3.45-2.11,12.69,12.69,0,0,1-2.39-3c-.25-.42,0-.65.19-.86s.43-.5.64-.75a2.75,2.75,0,0,0,.43-.71.82.82,0,0,0,0-.75c-.11-.21-1-2.3-1.33-3.16s-.71-.71-1-.71-.54,0-.83,0a1.6,1.6,0,0,0-1.14.53,4.79,4.79,0,0,0-1.5,3.55,8.24,8.24,0,0,0,1.75,4.4c.22.29,3,4.73,7.33,6.43s4.36,1.14,5.15,1.06a4.26,4.26,0,0,0,2.89-2,3.61,3.61,0,0,0,.26-2Z"/><path class="cls-4" d="M150.61,70.2,146.76,73V69l3.85-2.84h3.85V93h-3.85Z"/><path class="cls-4" d="M164,77.41l.07.07a3,3,0,0,1,1.63-.34A4,4,0,0,1,169,78.88c.68,1.06.83,2,.83,6.26,0,3.51-.15,4.27-.87,5.48a5.44,5.44,0,0,1-4.86,2.6,5.55,5.55,0,0,1-4.83-2.6c-.76-1.21-.91-2-.91-5.48,0-3.32.19-4.07.72-5.51l5.05-13.51h4.31Zm1.92,5.06a1.89,1.89,0,1,0-3.77,0v5a1.89,1.89,0,1,0,3.77,0Z"/><path class="cls-4" d="M183.38,81.71l-.07-.08a2.94,2.94,0,0,1-1.62.34,4,4,0,0,1-3.25-1.73c-.68-1.06-.83-2-.83-6.27,0-3.51.15-4.26.87-5.47a5.45,5.45,0,0,1,4.87-2.6,5.57,5.57,0,0,1,4.83,2.6c.75,1.21.9,2,.9,5.47,0,3.32-.19,4.08-.71,5.51L183.31,93H179Zm-1.92-5.06a1.89,1.89,0,1,0,3.77,0v-5a1.89,1.89,0,1,0-3.77,0Z"/><path class="cls-4" d="M202.67,81.71l-.07-.08A2.91,2.91,0,0,1,201,82a4,4,0,0,1-3.25-1.73c-.68-1.06-.83-2-.83-6.27,0-3.51.15-4.26.87-5.47a5.45,5.45,0,0,1,4.87-2.6,5.57,5.57,0,0,1,4.83,2.6c.75,1.21.9,2,.9,5.47,0,3.32-.18,4.08-.71,5.51L202.6,93h-4.3Zm-1.92-5.06a1.89,1.89,0,1,0,3.77,0v-5a1.89,1.89,0,1,0-3.77,0Z"/><path class="cls-4" d="M214.87,77.41l.08.07a2.91,2.91,0,0,1,1.62-.34,4,4,0,0,1,3.25,1.74c.68,1.06.83,2,.83,6.26,0,3.51-.15,4.27-.87,5.48a5.46,5.46,0,0,1-4.87,2.6,5.57,5.57,0,0,1-4.83-2.6c-.75-1.21-.9-2-.9-5.48,0-3.32.18-4.07.71-5.51L215,66.12h4.3Zm1.93,5.06a1.89,1.89,0,1,0-3.78,0v5a1.89,1.89,0,1,0,3.78,0Z"/><path class="cls-4" d="M226,77.45c2.31,0,3.06-.34,3.06-2.34V71.63a1.78,1.78,0,0,0-1.89-1.88,1.83,1.83,0,0,0-1.88,1.88v2.19h-3.85V71.6a5.77,5.77,0,0,1,5.81-5.7,5.42,5.42,0,0,1,4.19,1.89c1,1.2,1.47,2.26,1.47,5.69,0,3.7-.19,4.31-2.38,5.63,2.38,1.47,2.38,2.34,2.38,6.15,0,3.54-.23,4.34-1,5.51a5.39,5.39,0,0,1-4.75,2.45,5.46,5.46,0,0,1-5.7-5.74V85.29h3.85v2a1.87,1.87,0,0,0,1.88,2.07c1.17,0,1.89-.83,1.89-2.15V83.37c0-2.07-.56-2.53-3.06-2.53Z"/><path class="cls-4" d="M239.42,77.41l.08.07a2.91,2.91,0,0,1,1.62-.34,4,4,0,0,1,3.24,1.74c.68,1.06.83,2,.83,6.26,0,3.51-.15,4.27-.86,5.48a5.47,5.47,0,0,1-4.87,2.6,5.56,5.56,0,0,1-4.83-2.6c-.76-1.21-.91-2-.91-5.48,0-3.32.19-4.07.72-5.51l5.06-13.51h4.3Zm1.93,5.06a1.89,1.89,0,1,0-3.78,0v5a1.89,1.89,0,1,0,3.78,0Z"/><path class="cls-4" d="M257.58,70.2,253.73,73V69l3.85-2.84h3.85V93h-3.85Z"/><path class="cls-4" d="M266.68,68a5.58,5.58,0,0,1,8.68,0c1,1.29,1.4,2.23,1.4,5.17,0,3.17-.08,4.27-1.93,5.74,1.85,1.4,1.93,2.53,1.93,6.6,0,3.29-.27,4.19-1.06,5.36a5.79,5.79,0,0,1-9.36,0c-.79-1.17-1-2.07-1-5.36,0-4.07.07-5.2,1.92-6.6-1.85-1.47-1.92-2.57-1.92-5.74C265.29,70.2,265.66,69.26,266.68,68Zm6.23,3.66a1.89,1.89,0,0,0-3.78,0v3.93a1.89,1.89,0,0,0,3.78,0Zm0,10.57a1.89,1.89,0,0,0-3.78,0v5.28a1.89,1.89,0,0,0,3.78,0Z"/><path class="cls-4" d="M282.12,70.2,278.28,73V69l3.84-2.84H286V93h-3.85Z"/><path class="cls-4" d="M295.61,81.71l-.08-.08a2.91,2.91,0,0,1-1.62.34,4,4,0,0,1-3.25-1.73c-.68-1.06-.83-2-.83-6.27,0-3.51.15-4.26.87-5.47a5.46,5.46,0,0,1,4.87-2.6,5.57,5.57,0,0,1,4.83,2.6c.75,1.21.9,2,.9,5.47,0,3.32-.18,4.08-.71,5.51L295.53,93h-4.3Zm-1.93-5.06a1.89,1.89,0,1,0,3.78,0v-5a1.89,1.89,0,1,0-3.78,0Z"/><path class="cls-5" d="M94.93,10h7.65V12.4H97.5v5.26h4.42v2.41H97.5v5.26h5.08V27.9H94.93Z"/><path class="cls-5" d="M104.13,10h2.47l3.88,10.8h0V10h2.56V27.9h-2.41l-3.93-10.77h0V27.9h-2.57Z"/><path class="cls-5" d="M117.09,12.4h-3V10h8.51V12.4h-3V27.9h-2.57Z"/><path class="cls-5" d="M123.75,10h4.13c3.05,0,4.53,1.79,4.53,5.26,0,2.07-.58,3.57-2.21,4.48L133,27.9h-2.71l-2.39-7.65h-1.54V27.9h-2.57Zm2.57,8h1.46c1.79,0,2.06-1,2.06-2.79s-.3-2.79-2.18-2.79h-1.34Z"/><path class="cls-5" d="M134.47,10h7.65V12.4H137v5.26h4.43v2.41H137v5.26h5.08V27.9h-7.65Z"/><path class="cls-5" d="M148.46,10h7.65V12.4H151v5.26h4.43v2.41H151v5.26h5.09V27.9h-7.65Z"/><path class="cls-5" d="M157.76,10h2.47l3.3,9.49h.05L166.85,10h2.49V27.9h-2.57V17h-.05l-2.54,7.7H162.9L160.38,17h0V27.9h-2.57Z"/><path class="cls-5" d="M113.19,45.91a4.14,4.14,0,0,1-4.07,4.15c-2,0-4.23-1-4.23-4.23V36a4,4,0,0,1,4.18-4.13,4.07,4.07,0,0,1,4.12,4.28v1h-2.56v-.86A1.69,1.69,0,0,0,109,34.41c-1.28,0-1.58.88-1.58,2.09v9.16c0,1,.4,1.83,1.56,1.83a1.58,1.58,0,0,0,1.61-1.81V44.8h2.56Z"/><path class="cls-5" d="M115.13,36.22a4.3,4.3,0,1,1,8.6,0v9.46a4.3,4.3,0,1,1-8.6,0Zm2.56,9.46a1.74,1.74,0,1,0,3.48,0V36.22a1.74,1.74,0,1,0-3.48,0Z"/><path class="cls-5" d="M125.89,32h2.47l3.87,10.8h.05V32h2.57V49.91h-2.41l-3.93-10.77h0V49.91h-2.57Z"/><path class="cls-5" d="M138.85,34.41h-3V32h8.5v2.42h-3v15.5h-2.56Z"/><path class="cls-5" d="M147,32h2.14l4,17.92h-2.56l-.76-3.85h-3.5l-.75,3.85H143Zm1.09,5.16H148l-1.25,6.49h2.56Z"/><path class="cls-5" d="M154.67,34.41h-3V32h8.51v2.42h-3v15.5h-2.57Z"/><path class="cls-5" d="M160.88,36.22a4.31,4.31,0,1,1,8.61,0v9.46a4.31,4.31,0,1,1-8.61,0Zm2.57,9.46a1.74,1.74,0,1,0,3.47,0V36.22a1.74,1.74,0,1,0-3.47,0Z"/><path class="cls-2" d="M176.16,43.76l10.56-28.95h-10V9.52h16.12V14L182.05,43.43h10.78v5.28H176.16Z"/><path class="cls-2" d="M200,9.52h4.68l8.75,39.19h-5.61l-1.65-8.42h-7.65l-1.66,8.42H191.2Zm2.37,11.29h-.11L199.46,35h5.61Z"/><path class="cls-2" d="M213.56,9.52H222c3.08,0,5.33.72,7.26,2.75s2.53,4.52,2.53,9.2c0,3.41-.27,5.72-1.59,7.87-1.54,2.53-4,4.07-8.15,4.07h-2.86v15.3h-5.62Zm5.62,18.61h2.7c4.56,0,4.62-2.7,4.62-6.61,0-3.69,0-6.71-4.4-6.71h-2.92Z"/><path class="cls-2" d="M242.53,7.53h4.85c3.69,0,5.74,2.22,5.74,5.91V24.12c0,4.24-2.18,6.26-6,6.26h-4.56Zm3.28,19.77h1.5c1.83,0,2.54-.9,2.54-2.85v-11c0-1.8-.61-2.83-2.54-2.83h-1.5Z"/><path class="cls-2" d="M253.44,12.92a5.49,5.49,0,1,1,11,0V25a5.49,5.49,0,1,1-11,0ZM256.71,25a2.22,2.22,0,1,0,4.43,0V12.92a2.22,2.22,0,1,0-4.43,0Z"/><path class="cls-2" d="M274.25,43.76l10.57-28.95h-10V9.52h16.13V14L280.14,43.43h10.79v5.28H274.25Z"/><path class="cls-2" d="M291.83,9.52h16.73v5.29H297.44v11.5h9.69v5.28h-9.69V43.1h11.12v5.61H291.83ZM301.3,0h5.94L300,7.76h-3.64Z"/></g></g></svg>